M48
;DRILL file {KiCad (5.0.0)} date 04/27/19 15:16:33
;FORMAT={-:-/ absolute / metric / decimal}
FMAT,2
METRIC,TZ
T1C0.300
T2C1.000
%
G90
G05
M71
T1
X57.5Y-72.5
X57.5Y-75.
X57.5Y-77.5
X57.5Y-80.
X57.5Y-82.5
X57.5Y-85.
X57.5Y-87.5
X57.5Y-90.
X57.5Y-92.5
X57.5Y-95.
X57.5Y-97.5
X57.5Y-100.
X57.5Y-102.5
X57.5Y-105.
X57.5Y-107.5
X57.5Y-110.
X57.5Y-112.5
X57.5Y-115.
X60.Y-72.5
X60.Y-115.
X62.5Y-72.5
X62.5Y-80.
X62.5Y-107.5
X62.5Y-110.
X62.5Y-115.
X62.581Y-77.5
X65.Y-72.5
X65.Y-77.5
X65.Y-80.
X65.Y-107.5
X65.Y-110.
X65.Y-115.
X67.5Y-72.644
X67.5Y-115.
X70.Y-72.644
X70.Y-87.5
X70.Y-115.
X71.374Y-91.44
X72.5Y-72.644
X72.5Y-72.644
X72.5Y-87.5
X72.5Y-115.
X73.279Y-80.518
X73.406Y-99.06
X75.Y-72.644
X75.Y-87.5
X75.Y-115.
X77.5Y-72.644
X77.5Y-87.5
X77.5Y-115.
X79.629Y-79.121
X80.Y-72.644
X80.Y-87.5
X80.Y-115.
X81.915Y-72.644
X82.296Y-99.06
X82.5Y-87.5
X82.5Y-115.
X83.185Y-78.99
X83.189Y-78.49
X83.439Y-98.552
X84.582Y-81.661
X85.Y-87.5
X85.Y-115.
X86.11Y-95.656
X86.11Y-102.231
X86.61Y-95.635
X86.61Y-102.231
X87.5Y-87.5
X87.5Y-115.
X89.408Y-78.486
X89.408Y-78.994
X90.Y-87.5
X90.Y-115.
X90.043Y-99.568
X90.373Y-73.05
X92.5Y-72.5
X92.5Y-87.5
X92.5Y-115.
X93.345Y-101.346
X95.Y-72.5
X95.Y-87.5
X95.Y-115.
X96.393Y-78.74
X97.5Y-72.5
X97.5Y-87.5
X97.5Y-115.
X100.Y-72.5
X100.Y-87.5
X100.Y-115.
X102.5Y-72.5
X102.5Y-87.5
X102.5Y-107.5
X102.5Y-110.
X102.5Y-115.
X105.Y-72.5
X105.Y-72.5
X105.Y-72.5
X105.Y-87.5
X105.Y-107.5
X105.Y-110.
X105.Y-115.
X107.5Y-72.5
X107.5Y-87.5
X107.5Y-115.
X110.Y-72.5
X110.Y-87.5
X110.Y-115.
X112.5Y-72.5
X112.5Y-75.
X112.5Y-77.5
X112.5Y-80.
X112.5Y-82.5
X112.5Y-85.
X112.5Y-87.5
X112.5Y-90.
X112.5Y-92.5
X112.5Y-95.
X112.5Y-97.5
X112.5Y-100.
X112.5Y-102.5
X112.5Y-105.
X112.5Y-107.5
X112.5Y-110.
X112.5Y-112.5
X112.5Y-115.
X85.86Y-98.31
X85.86Y-99.81
X86.36Y-99.06
X86.86Y-98.31
X86.86Y-99.81
X85.483Y-78.24
X85.483Y-79.24
X86.233Y-78.74
X86.983Y-78.24
X86.983Y-79.24
T2
X63.5Y-88.9
X63.5Y-91.4
X106.68Y-78.74
X106.68Y-81.24
X106.68Y-101.06
X106.68Y-103.56
T0
M30
