G04 #@! TF.GenerationSoftware,KiCad,Pcbnew,(5.0.0)*
G04 #@! TF.CreationDate,2019-04-27T15:16:20+09:00*
G04 #@! TF.ProjectId,Power_supply_circuit,506F7765725F737570706C795F636972,rev?*
G04 #@! TF.SameCoordinates,Original*
G04 #@! TF.FileFunction,Legend,Bot*
G04 #@! TF.FilePolarity,Positive*
%FSLAX46Y46*%
G04 Gerber Fmt 4.6, Leading zero omitted, Abs format (unit mm)*
G04 Created by KiCad (PCBNEW (5.0.0)) date 04/27/19 15:16:20*
%MOMM*%
%LPD*%
G01*
G04 APERTURE LIST*
%ADD10C,0.200000*%
G04 APERTURE END LIST*
D10*
X67871428Y-114271428D02*
X67928571Y-114214285D01*
X68042857Y-114157142D01*
X68157142Y-114157142D01*
X68271428Y-114214285D01*
X68328571Y-114271428D01*
X68385714Y-114385714D01*
X68385714Y-114500000D01*
X68328571Y-114614285D01*
X68271428Y-114671428D01*
X68157142Y-114728571D01*
X68042857Y-114728571D01*
X67928571Y-114671428D01*
X67871428Y-114614285D01*
X67871428Y-114157142D02*
X67871428Y-114614285D01*
X67814285Y-114671428D01*
X67757142Y-114671428D01*
X67642857Y-114614285D01*
X67585714Y-114500000D01*
X67585714Y-114214285D01*
X67700000Y-114042857D01*
X67871428Y-113928571D01*
X68100000Y-113871428D01*
X68328571Y-113928571D01*
X68500000Y-114042857D01*
X68614285Y-114214285D01*
X68671428Y-114442857D01*
X68614285Y-114671428D01*
X68500000Y-114842857D01*
X68328571Y-114957142D01*
X68100000Y-115014285D01*
X67871428Y-114957142D01*
X67700000Y-114842857D01*
X67071428Y-114042857D02*
X67071428Y-114842857D01*
X67071428Y-114157142D02*
X67014285Y-114100000D01*
X66900000Y-114042857D01*
X66728571Y-114042857D01*
X66614285Y-114100000D01*
X66557142Y-114214285D01*
X66557142Y-114842857D01*
X66271428Y-114957142D02*
X65357142Y-114957142D01*
X65185714Y-114042857D02*
X64900000Y-114842857D01*
X64614285Y-114042857D02*
X64900000Y-114842857D01*
X65014285Y-115128571D01*
X65071428Y-115185714D01*
X65185714Y-115242857D01*
X63985714Y-114842857D02*
X64100000Y-114785714D01*
X64157142Y-114728571D01*
X64214285Y-114614285D01*
X64214285Y-114271428D01*
X64157142Y-114157142D01*
X64100000Y-114100000D01*
X63985714Y-114042857D01*
X63814285Y-114042857D01*
X63700000Y-114100000D01*
X63642857Y-114157142D01*
X63585714Y-114271428D01*
X63585714Y-114614285D01*
X63642857Y-114728571D01*
X63700000Y-114785714D01*
X63814285Y-114842857D01*
X63985714Y-114842857D01*
X63128571Y-114785714D02*
X63014285Y-114842857D01*
X62785714Y-114842857D01*
X62671428Y-114785714D01*
X62614285Y-114671428D01*
X62614285Y-114614285D01*
X62671428Y-114500000D01*
X62785714Y-114442857D01*
X62957142Y-114442857D01*
X63071428Y-114385714D01*
X63128571Y-114271428D01*
X63128571Y-114214285D01*
X63071428Y-114100000D01*
X62957142Y-114042857D01*
X62785714Y-114042857D01*
X62671428Y-114100000D01*
X62100000Y-114842857D02*
X62100000Y-114042857D01*
X62100000Y-113642857D02*
X62157142Y-113700000D01*
X62100000Y-113757142D01*
X62042857Y-113700000D01*
X62100000Y-113642857D01*
X62100000Y-113757142D01*
X61528571Y-114842857D02*
X61528571Y-113642857D01*
X61014285Y-114842857D02*
X61014285Y-114214285D01*
X61071428Y-114100000D01*
X61185714Y-114042857D01*
X61357142Y-114042857D01*
X61471428Y-114100000D01*
X61528571Y-114157142D01*
X60442857Y-114842857D02*
X60442857Y-114042857D01*
X60442857Y-113642857D02*
X60500000Y-113700000D01*
X60442857Y-113757142D01*
X60385714Y-113700000D01*
X60442857Y-113642857D01*
X60442857Y-113757142D01*
X59928571Y-114785714D02*
X59814285Y-114842857D01*
X59585714Y-114842857D01*
X59471428Y-114785714D01*
X59414285Y-114671428D01*
X59414285Y-114614285D01*
X59471428Y-114500000D01*
X59585714Y-114442857D01*
X59757142Y-114442857D01*
X59871428Y-114385714D01*
X59928571Y-114271428D01*
X59928571Y-114214285D01*
X59871428Y-114100000D01*
X59757142Y-114042857D01*
X59585714Y-114042857D01*
X59471428Y-114100000D01*
X58385714Y-114842857D02*
X58385714Y-114214285D01*
X58442857Y-114100000D01*
X58557142Y-114042857D01*
X58785714Y-114042857D01*
X58900000Y-114100000D01*
X58385714Y-114785714D02*
X58500000Y-114842857D01*
X58785714Y-114842857D01*
X58900000Y-114785714D01*
X58957142Y-114671428D01*
X58957142Y-114557142D01*
X58900000Y-114442857D01*
X58785714Y-114385714D01*
X58500000Y-114385714D01*
X58385714Y-114328571D01*
M02*
