G04 #@! TF.GenerationSoftware,KiCad,Pcbnew,(5.0.0)*
G04 #@! TF.CreationDate,2019-04-27T15:16:20+09:00*
G04 #@! TF.ProjectId,Power_supply_circuit,506F7765725F737570706C795F636972,rev?*
G04 #@! TF.SameCoordinates,Original*
G04 #@! TF.FileFunction,Copper,L1,Top,Signal*
G04 #@! TF.FilePolarity,Positive*
%FSLAX46Y46*%
G04 Gerber Fmt 4.6, Leading zero omitted, Abs format (unit mm)*
G04 Created by KiCad (PCBNEW (5.0.0)) date 04/27/19 15:16:20*
%MOMM*%
%LPD*%
G01*
G04 APERTURE LIST*
G04 #@! TA.AperFunction,SMDPad,CuDef*
%ADD10R,3.800000X3.500000*%
G04 #@! TD*
G04 #@! TA.AperFunction,Conductor*
%ADD11C,0.100000*%
G04 #@! TD*
G04 #@! TA.AperFunction,SMDPad,CuDef*
%ADD12C,0.950000*%
G04 #@! TD*
G04 #@! TA.AperFunction,SMDPad,CuDef*
%ADD13C,1.150000*%
G04 #@! TD*
G04 #@! TA.AperFunction,ComponentPad*
%ADD14R,2.000000X1.700000*%
G04 #@! TD*
G04 #@! TA.AperFunction,ComponentPad*
%ADD15O,2.000000X1.700000*%
G04 #@! TD*
G04 #@! TA.AperFunction,SMDPad,CuDef*
%ADD16R,2.300000X3.500000*%
G04 #@! TD*
G04 #@! TA.AperFunction,SMDPad,CuDef*
%ADD17R,1.500000X1.000000*%
G04 #@! TD*
G04 #@! TA.AperFunction,ComponentPad*
%ADD18C,0.600000*%
G04 #@! TD*
G04 #@! TA.AperFunction,SMDPad,CuDef*
%ADD19O,0.280000X0.850000*%
G04 #@! TD*
G04 #@! TA.AperFunction,SMDPad,CuDef*
%ADD20R,0.280000X0.280000*%
G04 #@! TD*
G04 #@! TA.AperFunction,SMDPad,CuDef*
%ADD21R,2.400000X1.650000*%
G04 #@! TD*
G04 #@! TA.AperFunction,SMDPad,CuDef*
%ADD22R,1.050000X0.680000*%
G04 #@! TD*
G04 #@! TA.AperFunction,SMDPad,CuDef*
%ADD23R,0.500000X0.260000*%
G04 #@! TD*
G04 #@! TA.AperFunction,SMDPad,CuDef*
%ADD24R,0.700000X0.280000*%
G04 #@! TD*
G04 #@! TA.AperFunction,SMDPad,CuDef*
%ADD25O,0.850000X0.280000*%
G04 #@! TD*
G04 #@! TA.AperFunction,SMDPad,CuDef*
%ADD26R,0.680000X1.050000*%
G04 #@! TD*
G04 #@! TA.AperFunction,SMDPad,CuDef*
%ADD27R,0.280000X0.700000*%
G04 #@! TD*
G04 #@! TA.AperFunction,SMDPad,CuDef*
%ADD28R,0.260000X0.500000*%
G04 #@! TD*
G04 #@! TA.AperFunction,SMDPad,CuDef*
%ADD29R,1.650000X2.400000*%
G04 #@! TD*
G04 #@! TA.AperFunction,SMDPad,CuDef*
%ADD30R,0.900000X1.300000*%
G04 #@! TD*
G04 #@! TA.AperFunction,ViaPad*
%ADD31C,0.400000*%
G04 #@! TD*
G04 #@! TA.AperFunction,Conductor*
%ADD32C,0.500000*%
G04 #@! TD*
G04 #@! TA.AperFunction,Conductor*
%ADD33C,0.200000*%
G04 #@! TD*
G04 #@! TA.AperFunction,Conductor*
%ADD34C,0.254000*%
G04 #@! TD*
G04 APERTURE END LIST*
D10*
G04 #@! TO.P,L2,1*
G04 #@! TO.N,Net-(D1-Pad1)*
X92100000Y-110250000D03*
G04 #@! TO.P,L2,2*
G04 #@! TO.N,GND*
X84400000Y-110250000D03*
G04 #@! TD*
D11*
G04 #@! TO.N,GND*
G04 #@! TO.C,C3*
G36*
X94748779Y-78103144D02*
X94771834Y-78106563D01*
X94794443Y-78112227D01*
X94816387Y-78120079D01*
X94837457Y-78130044D01*
X94857448Y-78142026D01*
X94876168Y-78155910D01*
X94893438Y-78171562D01*
X94909090Y-78188832D01*
X94922974Y-78207552D01*
X94934956Y-78227543D01*
X94944921Y-78248613D01*
X94952773Y-78270557D01*
X94958437Y-78293166D01*
X94961856Y-78316221D01*
X94963000Y-78339500D01*
X94963000Y-78914500D01*
X94961856Y-78937779D01*
X94958437Y-78960834D01*
X94952773Y-78983443D01*
X94944921Y-79005387D01*
X94934956Y-79026457D01*
X94922974Y-79046448D01*
X94909090Y-79065168D01*
X94893438Y-79082438D01*
X94876168Y-79098090D01*
X94857448Y-79111974D01*
X94837457Y-79123956D01*
X94816387Y-79133921D01*
X94794443Y-79141773D01*
X94771834Y-79147437D01*
X94748779Y-79150856D01*
X94725500Y-79152000D01*
X94250500Y-79152000D01*
X94227221Y-79150856D01*
X94204166Y-79147437D01*
X94181557Y-79141773D01*
X94159613Y-79133921D01*
X94138543Y-79123956D01*
X94118552Y-79111974D01*
X94099832Y-79098090D01*
X94082562Y-79082438D01*
X94066910Y-79065168D01*
X94053026Y-79046448D01*
X94041044Y-79026457D01*
X94031079Y-79005387D01*
X94023227Y-78983443D01*
X94017563Y-78960834D01*
X94014144Y-78937779D01*
X94013000Y-78914500D01*
X94013000Y-78339500D01*
X94014144Y-78316221D01*
X94017563Y-78293166D01*
X94023227Y-78270557D01*
X94031079Y-78248613D01*
X94041044Y-78227543D01*
X94053026Y-78207552D01*
X94066910Y-78188832D01*
X94082562Y-78171562D01*
X94099832Y-78155910D01*
X94118552Y-78142026D01*
X94138543Y-78130044D01*
X94159613Y-78120079D01*
X94181557Y-78112227D01*
X94204166Y-78106563D01*
X94227221Y-78103144D01*
X94250500Y-78102000D01*
X94725500Y-78102000D01*
X94748779Y-78103144D01*
X94748779Y-78103144D01*
G37*
D12*
G04 #@! TD*
G04 #@! TO.P,C3,2*
G04 #@! TO.N,GND*
X94488000Y-78627000D03*
D11*
G04 #@! TO.N,+3V3*
G04 #@! TO.C,C3*
G36*
X94748779Y-79853144D02*
X94771834Y-79856563D01*
X94794443Y-79862227D01*
X94816387Y-79870079D01*
X94837457Y-79880044D01*
X94857448Y-79892026D01*
X94876168Y-79905910D01*
X94893438Y-79921562D01*
X94909090Y-79938832D01*
X94922974Y-79957552D01*
X94934956Y-79977543D01*
X94944921Y-79998613D01*
X94952773Y-80020557D01*
X94958437Y-80043166D01*
X94961856Y-80066221D01*
X94963000Y-80089500D01*
X94963000Y-80664500D01*
X94961856Y-80687779D01*
X94958437Y-80710834D01*
X94952773Y-80733443D01*
X94944921Y-80755387D01*
X94934956Y-80776457D01*
X94922974Y-80796448D01*
X94909090Y-80815168D01*
X94893438Y-80832438D01*
X94876168Y-80848090D01*
X94857448Y-80861974D01*
X94837457Y-80873956D01*
X94816387Y-80883921D01*
X94794443Y-80891773D01*
X94771834Y-80897437D01*
X94748779Y-80900856D01*
X94725500Y-80902000D01*
X94250500Y-80902000D01*
X94227221Y-80900856D01*
X94204166Y-80897437D01*
X94181557Y-80891773D01*
X94159613Y-80883921D01*
X94138543Y-80873956D01*
X94118552Y-80861974D01*
X94099832Y-80848090D01*
X94082562Y-80832438D01*
X94066910Y-80815168D01*
X94053026Y-80796448D01*
X94041044Y-80776457D01*
X94031079Y-80755387D01*
X94023227Y-80733443D01*
X94017563Y-80710834D01*
X94014144Y-80687779D01*
X94013000Y-80664500D01*
X94013000Y-80089500D01*
X94014144Y-80066221D01*
X94017563Y-80043166D01*
X94023227Y-80020557D01*
X94031079Y-79998613D01*
X94041044Y-79977543D01*
X94053026Y-79957552D01*
X94066910Y-79938832D01*
X94082562Y-79921562D01*
X94099832Y-79905910D01*
X94118552Y-79892026D01*
X94138543Y-79880044D01*
X94159613Y-79870079D01*
X94181557Y-79862227D01*
X94204166Y-79856563D01*
X94227221Y-79853144D01*
X94250500Y-79852000D01*
X94725500Y-79852000D01*
X94748779Y-79853144D01*
X94748779Y-79853144D01*
G37*
D12*
G04 #@! TD*
G04 #@! TO.P,C3,1*
G04 #@! TO.N,+3V3*
X94488000Y-80377000D03*
D11*
G04 #@! TO.N,GND*
G04 #@! TO.C,C5*
G36*
X92752779Y-92363144D02*
X92775834Y-92366563D01*
X92798443Y-92372227D01*
X92820387Y-92380079D01*
X92841457Y-92390044D01*
X92861448Y-92402026D01*
X92880168Y-92415910D01*
X92897438Y-92431562D01*
X92913090Y-92448832D01*
X92926974Y-92467552D01*
X92938956Y-92487543D01*
X92948921Y-92508613D01*
X92956773Y-92530557D01*
X92962437Y-92553166D01*
X92965856Y-92576221D01*
X92967000Y-92599500D01*
X92967000Y-93074500D01*
X92965856Y-93097779D01*
X92962437Y-93120834D01*
X92956773Y-93143443D01*
X92948921Y-93165387D01*
X92938956Y-93186457D01*
X92926974Y-93206448D01*
X92913090Y-93225168D01*
X92897438Y-93242438D01*
X92880168Y-93258090D01*
X92861448Y-93271974D01*
X92841457Y-93283956D01*
X92820387Y-93293921D01*
X92798443Y-93301773D01*
X92775834Y-93307437D01*
X92752779Y-93310856D01*
X92729500Y-93312000D01*
X92154500Y-93312000D01*
X92131221Y-93310856D01*
X92108166Y-93307437D01*
X92085557Y-93301773D01*
X92063613Y-93293921D01*
X92042543Y-93283956D01*
X92022552Y-93271974D01*
X92003832Y-93258090D01*
X91986562Y-93242438D01*
X91970910Y-93225168D01*
X91957026Y-93206448D01*
X91945044Y-93186457D01*
X91935079Y-93165387D01*
X91927227Y-93143443D01*
X91921563Y-93120834D01*
X91918144Y-93097779D01*
X91917000Y-93074500D01*
X91917000Y-92599500D01*
X91918144Y-92576221D01*
X91921563Y-92553166D01*
X91927227Y-92530557D01*
X91935079Y-92508613D01*
X91945044Y-92487543D01*
X91957026Y-92467552D01*
X91970910Y-92448832D01*
X91986562Y-92431562D01*
X92003832Y-92415910D01*
X92022552Y-92402026D01*
X92042543Y-92390044D01*
X92063613Y-92380079D01*
X92085557Y-92372227D01*
X92108166Y-92366563D01*
X92131221Y-92363144D01*
X92154500Y-92362000D01*
X92729500Y-92362000D01*
X92752779Y-92363144D01*
X92752779Y-92363144D01*
G37*
D12*
G04 #@! TD*
G04 #@! TO.P,C5,1*
G04 #@! TO.N,GND*
X92442000Y-92837000D03*
D11*
G04 #@! TO.N,Net-(C5-Pad2)*
G04 #@! TO.C,C5*
G36*
X91002779Y-92363144D02*
X91025834Y-92366563D01*
X91048443Y-92372227D01*
X91070387Y-92380079D01*
X91091457Y-92390044D01*
X91111448Y-92402026D01*
X91130168Y-92415910D01*
X91147438Y-92431562D01*
X91163090Y-92448832D01*
X91176974Y-92467552D01*
X91188956Y-92487543D01*
X91198921Y-92508613D01*
X91206773Y-92530557D01*
X91212437Y-92553166D01*
X91215856Y-92576221D01*
X91217000Y-92599500D01*
X91217000Y-93074500D01*
X91215856Y-93097779D01*
X91212437Y-93120834D01*
X91206773Y-93143443D01*
X91198921Y-93165387D01*
X91188956Y-93186457D01*
X91176974Y-93206448D01*
X91163090Y-93225168D01*
X91147438Y-93242438D01*
X91130168Y-93258090D01*
X91111448Y-93271974D01*
X91091457Y-93283956D01*
X91070387Y-93293921D01*
X91048443Y-93301773D01*
X91025834Y-93307437D01*
X91002779Y-93310856D01*
X90979500Y-93312000D01*
X90404500Y-93312000D01*
X90381221Y-93310856D01*
X90358166Y-93307437D01*
X90335557Y-93301773D01*
X90313613Y-93293921D01*
X90292543Y-93283956D01*
X90272552Y-93271974D01*
X90253832Y-93258090D01*
X90236562Y-93242438D01*
X90220910Y-93225168D01*
X90207026Y-93206448D01*
X90195044Y-93186457D01*
X90185079Y-93165387D01*
X90177227Y-93143443D01*
X90171563Y-93120834D01*
X90168144Y-93097779D01*
X90167000Y-93074500D01*
X90167000Y-92599500D01*
X90168144Y-92576221D01*
X90171563Y-92553166D01*
X90177227Y-92530557D01*
X90185079Y-92508613D01*
X90195044Y-92487543D01*
X90207026Y-92467552D01*
X90220910Y-92448832D01*
X90236562Y-92431562D01*
X90253832Y-92415910D01*
X90272552Y-92402026D01*
X90292543Y-92390044D01*
X90313613Y-92380079D01*
X90335557Y-92372227D01*
X90358166Y-92366563D01*
X90381221Y-92363144D01*
X90404500Y-92362000D01*
X90979500Y-92362000D01*
X91002779Y-92363144D01*
X91002779Y-92363144D01*
G37*
D12*
G04 #@! TD*
G04 #@! TO.P,C5,2*
G04 #@! TO.N,Net-(C5-Pad2)*
X90692000Y-92837000D03*
D11*
G04 #@! TO.N,GND*
G04 #@! TO.C,C6*
G36*
X87037779Y-93252144D02*
X87060834Y-93255563D01*
X87083443Y-93261227D01*
X87105387Y-93269079D01*
X87126457Y-93279044D01*
X87146448Y-93291026D01*
X87165168Y-93304910D01*
X87182438Y-93320562D01*
X87198090Y-93337832D01*
X87211974Y-93356552D01*
X87223956Y-93376543D01*
X87233921Y-93397613D01*
X87241773Y-93419557D01*
X87247437Y-93442166D01*
X87250856Y-93465221D01*
X87252000Y-93488500D01*
X87252000Y-93963500D01*
X87250856Y-93986779D01*
X87247437Y-94009834D01*
X87241773Y-94032443D01*
X87233921Y-94054387D01*
X87223956Y-94075457D01*
X87211974Y-94095448D01*
X87198090Y-94114168D01*
X87182438Y-94131438D01*
X87165168Y-94147090D01*
X87146448Y-94160974D01*
X87126457Y-94172956D01*
X87105387Y-94182921D01*
X87083443Y-94190773D01*
X87060834Y-94196437D01*
X87037779Y-94199856D01*
X87014500Y-94201000D01*
X86439500Y-94201000D01*
X86416221Y-94199856D01*
X86393166Y-94196437D01*
X86370557Y-94190773D01*
X86348613Y-94182921D01*
X86327543Y-94172956D01*
X86307552Y-94160974D01*
X86288832Y-94147090D01*
X86271562Y-94131438D01*
X86255910Y-94114168D01*
X86242026Y-94095448D01*
X86230044Y-94075457D01*
X86220079Y-94054387D01*
X86212227Y-94032443D01*
X86206563Y-94009834D01*
X86203144Y-93986779D01*
X86202000Y-93963500D01*
X86202000Y-93488500D01*
X86203144Y-93465221D01*
X86206563Y-93442166D01*
X86212227Y-93419557D01*
X86220079Y-93397613D01*
X86230044Y-93376543D01*
X86242026Y-93356552D01*
X86255910Y-93337832D01*
X86271562Y-93320562D01*
X86288832Y-93304910D01*
X86307552Y-93291026D01*
X86327543Y-93279044D01*
X86348613Y-93269079D01*
X86370557Y-93261227D01*
X86393166Y-93255563D01*
X86416221Y-93252144D01*
X86439500Y-93251000D01*
X87014500Y-93251000D01*
X87037779Y-93252144D01*
X87037779Y-93252144D01*
G37*
D12*
G04 #@! TD*
G04 #@! TO.P,C6,2*
G04 #@! TO.N,GND*
X86727000Y-93726000D03*
D11*
G04 #@! TO.N,Net-(C6-Pad1)*
G04 #@! TO.C,C6*
G36*
X85287779Y-93252144D02*
X85310834Y-93255563D01*
X85333443Y-93261227D01*
X85355387Y-93269079D01*
X85376457Y-93279044D01*
X85396448Y-93291026D01*
X85415168Y-93304910D01*
X85432438Y-93320562D01*
X85448090Y-93337832D01*
X85461974Y-93356552D01*
X85473956Y-93376543D01*
X85483921Y-93397613D01*
X85491773Y-93419557D01*
X85497437Y-93442166D01*
X85500856Y-93465221D01*
X85502000Y-93488500D01*
X85502000Y-93963500D01*
X85500856Y-93986779D01*
X85497437Y-94009834D01*
X85491773Y-94032443D01*
X85483921Y-94054387D01*
X85473956Y-94075457D01*
X85461974Y-94095448D01*
X85448090Y-94114168D01*
X85432438Y-94131438D01*
X85415168Y-94147090D01*
X85396448Y-94160974D01*
X85376457Y-94172956D01*
X85355387Y-94182921D01*
X85333443Y-94190773D01*
X85310834Y-94196437D01*
X85287779Y-94199856D01*
X85264500Y-94201000D01*
X84689500Y-94201000D01*
X84666221Y-94199856D01*
X84643166Y-94196437D01*
X84620557Y-94190773D01*
X84598613Y-94182921D01*
X84577543Y-94172956D01*
X84557552Y-94160974D01*
X84538832Y-94147090D01*
X84521562Y-94131438D01*
X84505910Y-94114168D01*
X84492026Y-94095448D01*
X84480044Y-94075457D01*
X84470079Y-94054387D01*
X84462227Y-94032443D01*
X84456563Y-94009834D01*
X84453144Y-93986779D01*
X84452000Y-93963500D01*
X84452000Y-93488500D01*
X84453144Y-93465221D01*
X84456563Y-93442166D01*
X84462227Y-93419557D01*
X84470079Y-93397613D01*
X84480044Y-93376543D01*
X84492026Y-93356552D01*
X84505910Y-93337832D01*
X84521562Y-93320562D01*
X84538832Y-93304910D01*
X84557552Y-93291026D01*
X84577543Y-93279044D01*
X84598613Y-93269079D01*
X84620557Y-93261227D01*
X84643166Y-93255563D01*
X84666221Y-93252144D01*
X84689500Y-93251000D01*
X85264500Y-93251000D01*
X85287779Y-93252144D01*
X85287779Y-93252144D01*
G37*
D12*
G04 #@! TD*
G04 #@! TO.P,C6,1*
G04 #@! TO.N,Net-(C6-Pad1)*
X84977000Y-93726000D03*
D11*
G04 #@! TO.N,+BATT*
G04 #@! TO.C,C7*
G36*
X78746779Y-99693144D02*
X78769834Y-99696563D01*
X78792443Y-99702227D01*
X78814387Y-99710079D01*
X78835457Y-99720044D01*
X78855448Y-99732026D01*
X78874168Y-99745910D01*
X78891438Y-99761562D01*
X78907090Y-99778832D01*
X78920974Y-99797552D01*
X78932956Y-99817543D01*
X78942921Y-99838613D01*
X78950773Y-99860557D01*
X78956437Y-99883166D01*
X78959856Y-99906221D01*
X78961000Y-99929500D01*
X78961000Y-100504500D01*
X78959856Y-100527779D01*
X78956437Y-100550834D01*
X78950773Y-100573443D01*
X78942921Y-100595387D01*
X78932956Y-100616457D01*
X78920974Y-100636448D01*
X78907090Y-100655168D01*
X78891438Y-100672438D01*
X78874168Y-100688090D01*
X78855448Y-100701974D01*
X78835457Y-100713956D01*
X78814387Y-100723921D01*
X78792443Y-100731773D01*
X78769834Y-100737437D01*
X78746779Y-100740856D01*
X78723500Y-100742000D01*
X78248500Y-100742000D01*
X78225221Y-100740856D01*
X78202166Y-100737437D01*
X78179557Y-100731773D01*
X78157613Y-100723921D01*
X78136543Y-100713956D01*
X78116552Y-100701974D01*
X78097832Y-100688090D01*
X78080562Y-100672438D01*
X78064910Y-100655168D01*
X78051026Y-100636448D01*
X78039044Y-100616457D01*
X78029079Y-100595387D01*
X78021227Y-100573443D01*
X78015563Y-100550834D01*
X78012144Y-100527779D01*
X78011000Y-100504500D01*
X78011000Y-99929500D01*
X78012144Y-99906221D01*
X78015563Y-99883166D01*
X78021227Y-99860557D01*
X78029079Y-99838613D01*
X78039044Y-99817543D01*
X78051026Y-99797552D01*
X78064910Y-99778832D01*
X78080562Y-99761562D01*
X78097832Y-99745910D01*
X78116552Y-99732026D01*
X78136543Y-99720044D01*
X78157613Y-99710079D01*
X78179557Y-99702227D01*
X78202166Y-99696563D01*
X78225221Y-99693144D01*
X78248500Y-99692000D01*
X78723500Y-99692000D01*
X78746779Y-99693144D01*
X78746779Y-99693144D01*
G37*
D12*
G04 #@! TD*
G04 #@! TO.P,C7,1*
G04 #@! TO.N,+BATT*
X78486000Y-100217000D03*
D11*
G04 #@! TO.N,GND*
G04 #@! TO.C,C7*
G36*
X78746779Y-101443144D02*
X78769834Y-101446563D01*
X78792443Y-101452227D01*
X78814387Y-101460079D01*
X78835457Y-101470044D01*
X78855448Y-101482026D01*
X78874168Y-101495910D01*
X78891438Y-101511562D01*
X78907090Y-101528832D01*
X78920974Y-101547552D01*
X78932956Y-101567543D01*
X78942921Y-101588613D01*
X78950773Y-101610557D01*
X78956437Y-101633166D01*
X78959856Y-101656221D01*
X78961000Y-101679500D01*
X78961000Y-102254500D01*
X78959856Y-102277779D01*
X78956437Y-102300834D01*
X78950773Y-102323443D01*
X78942921Y-102345387D01*
X78932956Y-102366457D01*
X78920974Y-102386448D01*
X78907090Y-102405168D01*
X78891438Y-102422438D01*
X78874168Y-102438090D01*
X78855448Y-102451974D01*
X78835457Y-102463956D01*
X78814387Y-102473921D01*
X78792443Y-102481773D01*
X78769834Y-102487437D01*
X78746779Y-102490856D01*
X78723500Y-102492000D01*
X78248500Y-102492000D01*
X78225221Y-102490856D01*
X78202166Y-102487437D01*
X78179557Y-102481773D01*
X78157613Y-102473921D01*
X78136543Y-102463956D01*
X78116552Y-102451974D01*
X78097832Y-102438090D01*
X78080562Y-102422438D01*
X78064910Y-102405168D01*
X78051026Y-102386448D01*
X78039044Y-102366457D01*
X78029079Y-102345387D01*
X78021227Y-102323443D01*
X78015563Y-102300834D01*
X78012144Y-102277779D01*
X78011000Y-102254500D01*
X78011000Y-101679500D01*
X78012144Y-101656221D01*
X78015563Y-101633166D01*
X78021227Y-101610557D01*
X78029079Y-101588613D01*
X78039044Y-101567543D01*
X78051026Y-101547552D01*
X78064910Y-101528832D01*
X78080562Y-101511562D01*
X78097832Y-101495910D01*
X78116552Y-101482026D01*
X78136543Y-101470044D01*
X78157613Y-101460079D01*
X78179557Y-101452227D01*
X78202166Y-101446563D01*
X78225221Y-101443144D01*
X78248500Y-101442000D01*
X78723500Y-101442000D01*
X78746779Y-101443144D01*
X78746779Y-101443144D01*
G37*
D12*
G04 #@! TD*
G04 #@! TO.P,C7,2*
G04 #@! TO.N,GND*
X78486000Y-101967000D03*
D11*
G04 #@! TO.N,GND*
G04 #@! TO.C,C9*
G36*
X81286779Y-95770144D02*
X81309834Y-95773563D01*
X81332443Y-95779227D01*
X81354387Y-95787079D01*
X81375457Y-95797044D01*
X81395448Y-95809026D01*
X81414168Y-95822910D01*
X81431438Y-95838562D01*
X81447090Y-95855832D01*
X81460974Y-95874552D01*
X81472956Y-95894543D01*
X81482921Y-95915613D01*
X81490773Y-95937557D01*
X81496437Y-95960166D01*
X81499856Y-95983221D01*
X81501000Y-96006500D01*
X81501000Y-96581500D01*
X81499856Y-96604779D01*
X81496437Y-96627834D01*
X81490773Y-96650443D01*
X81482921Y-96672387D01*
X81472956Y-96693457D01*
X81460974Y-96713448D01*
X81447090Y-96732168D01*
X81431438Y-96749438D01*
X81414168Y-96765090D01*
X81395448Y-96778974D01*
X81375457Y-96790956D01*
X81354387Y-96800921D01*
X81332443Y-96808773D01*
X81309834Y-96814437D01*
X81286779Y-96817856D01*
X81263500Y-96819000D01*
X80788500Y-96819000D01*
X80765221Y-96817856D01*
X80742166Y-96814437D01*
X80719557Y-96808773D01*
X80697613Y-96800921D01*
X80676543Y-96790956D01*
X80656552Y-96778974D01*
X80637832Y-96765090D01*
X80620562Y-96749438D01*
X80604910Y-96732168D01*
X80591026Y-96713448D01*
X80579044Y-96693457D01*
X80569079Y-96672387D01*
X80561227Y-96650443D01*
X80555563Y-96627834D01*
X80552144Y-96604779D01*
X80551000Y-96581500D01*
X80551000Y-96006500D01*
X80552144Y-95983221D01*
X80555563Y-95960166D01*
X80561227Y-95937557D01*
X80569079Y-95915613D01*
X80579044Y-95894543D01*
X80591026Y-95874552D01*
X80604910Y-95855832D01*
X80620562Y-95838562D01*
X80637832Y-95822910D01*
X80656552Y-95809026D01*
X80676543Y-95797044D01*
X80697613Y-95787079D01*
X80719557Y-95779227D01*
X80742166Y-95773563D01*
X80765221Y-95770144D01*
X80788500Y-95769000D01*
X81263500Y-95769000D01*
X81286779Y-95770144D01*
X81286779Y-95770144D01*
G37*
D12*
G04 #@! TD*
G04 #@! TO.P,C9,2*
G04 #@! TO.N,GND*
X81026000Y-96294000D03*
D11*
G04 #@! TO.N,Net-(C9-Pad1)*
G04 #@! TO.C,C9*
G36*
X81286779Y-97520144D02*
X81309834Y-97523563D01*
X81332443Y-97529227D01*
X81354387Y-97537079D01*
X81375457Y-97547044D01*
X81395448Y-97559026D01*
X81414168Y-97572910D01*
X81431438Y-97588562D01*
X81447090Y-97605832D01*
X81460974Y-97624552D01*
X81472956Y-97644543D01*
X81482921Y-97665613D01*
X81490773Y-97687557D01*
X81496437Y-97710166D01*
X81499856Y-97733221D01*
X81501000Y-97756500D01*
X81501000Y-98331500D01*
X81499856Y-98354779D01*
X81496437Y-98377834D01*
X81490773Y-98400443D01*
X81482921Y-98422387D01*
X81472956Y-98443457D01*
X81460974Y-98463448D01*
X81447090Y-98482168D01*
X81431438Y-98499438D01*
X81414168Y-98515090D01*
X81395448Y-98528974D01*
X81375457Y-98540956D01*
X81354387Y-98550921D01*
X81332443Y-98558773D01*
X81309834Y-98564437D01*
X81286779Y-98567856D01*
X81263500Y-98569000D01*
X80788500Y-98569000D01*
X80765221Y-98567856D01*
X80742166Y-98564437D01*
X80719557Y-98558773D01*
X80697613Y-98550921D01*
X80676543Y-98540956D01*
X80656552Y-98528974D01*
X80637832Y-98515090D01*
X80620562Y-98499438D01*
X80604910Y-98482168D01*
X80591026Y-98463448D01*
X80579044Y-98443457D01*
X80569079Y-98422387D01*
X80561227Y-98400443D01*
X80555563Y-98377834D01*
X80552144Y-98354779D01*
X80551000Y-98331500D01*
X80551000Y-97756500D01*
X80552144Y-97733221D01*
X80555563Y-97710166D01*
X80561227Y-97687557D01*
X80569079Y-97665613D01*
X80579044Y-97644543D01*
X80591026Y-97624552D01*
X80604910Y-97605832D01*
X80620562Y-97588562D01*
X80637832Y-97572910D01*
X80656552Y-97559026D01*
X80676543Y-97547044D01*
X80697613Y-97537079D01*
X80719557Y-97529227D01*
X80742166Y-97523563D01*
X80765221Y-97520144D01*
X80788500Y-97519000D01*
X81263500Y-97519000D01*
X81286779Y-97520144D01*
X81286779Y-97520144D01*
G37*
D12*
G04 #@! TD*
G04 #@! TO.P,C9,1*
G04 #@! TO.N,Net-(C9-Pad1)*
X81026000Y-98044000D03*
D11*
G04 #@! TO.N,+BATT*
G04 #@! TO.C,C1*
G36*
X78492779Y-80488144D02*
X78515834Y-80491563D01*
X78538443Y-80497227D01*
X78560387Y-80505079D01*
X78581457Y-80515044D01*
X78601448Y-80527026D01*
X78620168Y-80540910D01*
X78637438Y-80556562D01*
X78653090Y-80573832D01*
X78666974Y-80592552D01*
X78678956Y-80612543D01*
X78688921Y-80633613D01*
X78696773Y-80655557D01*
X78702437Y-80678166D01*
X78705856Y-80701221D01*
X78707000Y-80724500D01*
X78707000Y-81299500D01*
X78705856Y-81322779D01*
X78702437Y-81345834D01*
X78696773Y-81368443D01*
X78688921Y-81390387D01*
X78678956Y-81411457D01*
X78666974Y-81431448D01*
X78653090Y-81450168D01*
X78637438Y-81467438D01*
X78620168Y-81483090D01*
X78601448Y-81496974D01*
X78581457Y-81508956D01*
X78560387Y-81518921D01*
X78538443Y-81526773D01*
X78515834Y-81532437D01*
X78492779Y-81535856D01*
X78469500Y-81537000D01*
X77994500Y-81537000D01*
X77971221Y-81535856D01*
X77948166Y-81532437D01*
X77925557Y-81526773D01*
X77903613Y-81518921D01*
X77882543Y-81508956D01*
X77862552Y-81496974D01*
X77843832Y-81483090D01*
X77826562Y-81467438D01*
X77810910Y-81450168D01*
X77797026Y-81431448D01*
X77785044Y-81411457D01*
X77775079Y-81390387D01*
X77767227Y-81368443D01*
X77761563Y-81345834D01*
X77758144Y-81322779D01*
X77757000Y-81299500D01*
X77757000Y-80724500D01*
X77758144Y-80701221D01*
X77761563Y-80678166D01*
X77767227Y-80655557D01*
X77775079Y-80633613D01*
X77785044Y-80612543D01*
X77797026Y-80592552D01*
X77810910Y-80573832D01*
X77826562Y-80556562D01*
X77843832Y-80540910D01*
X77862552Y-80527026D01*
X77882543Y-80515044D01*
X77903613Y-80505079D01*
X77925557Y-80497227D01*
X77948166Y-80491563D01*
X77971221Y-80488144D01*
X77994500Y-80487000D01*
X78469500Y-80487000D01*
X78492779Y-80488144D01*
X78492779Y-80488144D01*
G37*
D12*
G04 #@! TD*
G04 #@! TO.P,C1,1*
G04 #@! TO.N,+BATT*
X78232000Y-81012000D03*
D11*
G04 #@! TO.N,GND*
G04 #@! TO.C,C1*
G36*
X78492779Y-78738144D02*
X78515834Y-78741563D01*
X78538443Y-78747227D01*
X78560387Y-78755079D01*
X78581457Y-78765044D01*
X78601448Y-78777026D01*
X78620168Y-78790910D01*
X78637438Y-78806562D01*
X78653090Y-78823832D01*
X78666974Y-78842552D01*
X78678956Y-78862543D01*
X78688921Y-78883613D01*
X78696773Y-78905557D01*
X78702437Y-78928166D01*
X78705856Y-78951221D01*
X78707000Y-78974500D01*
X78707000Y-79549500D01*
X78705856Y-79572779D01*
X78702437Y-79595834D01*
X78696773Y-79618443D01*
X78688921Y-79640387D01*
X78678956Y-79661457D01*
X78666974Y-79681448D01*
X78653090Y-79700168D01*
X78637438Y-79717438D01*
X78620168Y-79733090D01*
X78601448Y-79746974D01*
X78581457Y-79758956D01*
X78560387Y-79768921D01*
X78538443Y-79776773D01*
X78515834Y-79782437D01*
X78492779Y-79785856D01*
X78469500Y-79787000D01*
X77994500Y-79787000D01*
X77971221Y-79785856D01*
X77948166Y-79782437D01*
X77925557Y-79776773D01*
X77903613Y-79768921D01*
X77882543Y-79758956D01*
X77862552Y-79746974D01*
X77843832Y-79733090D01*
X77826562Y-79717438D01*
X77810910Y-79700168D01*
X77797026Y-79681448D01*
X77785044Y-79661457D01*
X77775079Y-79640387D01*
X77767227Y-79618443D01*
X77761563Y-79595834D01*
X77758144Y-79572779D01*
X77757000Y-79549500D01*
X77757000Y-78974500D01*
X77758144Y-78951221D01*
X77761563Y-78928166D01*
X77767227Y-78905557D01*
X77775079Y-78883613D01*
X77785044Y-78862543D01*
X77797026Y-78842552D01*
X77810910Y-78823832D01*
X77826562Y-78806562D01*
X77843832Y-78790910D01*
X77862552Y-78777026D01*
X77882543Y-78765044D01*
X77903613Y-78755079D01*
X77925557Y-78747227D01*
X77948166Y-78741563D01*
X77971221Y-78738144D01*
X77994500Y-78737000D01*
X78469500Y-78737000D01*
X78492779Y-78738144D01*
X78492779Y-78738144D01*
G37*
D12*
G04 #@! TD*
G04 #@! TO.P,C1,2*
G04 #@! TO.N,GND*
X78232000Y-79262000D03*
D11*
G04 #@! TO.N,GND*
G04 #@! TO.C,C2*
G36*
X81500505Y-78547204D02*
X81524773Y-78550804D01*
X81548572Y-78556765D01*
X81571671Y-78565030D01*
X81593850Y-78575520D01*
X81614893Y-78588132D01*
X81634599Y-78602747D01*
X81652777Y-78619223D01*
X81669253Y-78637401D01*
X81683868Y-78657107D01*
X81696480Y-78678150D01*
X81706970Y-78700329D01*
X81715235Y-78723428D01*
X81721196Y-78747227D01*
X81724796Y-78771495D01*
X81726000Y-78795999D01*
X81726000Y-79446001D01*
X81724796Y-79470505D01*
X81721196Y-79494773D01*
X81715235Y-79518572D01*
X81706970Y-79541671D01*
X81696480Y-79563850D01*
X81683868Y-79584893D01*
X81669253Y-79604599D01*
X81652777Y-79622777D01*
X81634599Y-79639253D01*
X81614893Y-79653868D01*
X81593850Y-79666480D01*
X81571671Y-79676970D01*
X81548572Y-79685235D01*
X81524773Y-79691196D01*
X81500505Y-79694796D01*
X81476001Y-79696000D01*
X80575999Y-79696000D01*
X80551495Y-79694796D01*
X80527227Y-79691196D01*
X80503428Y-79685235D01*
X80480329Y-79676970D01*
X80458150Y-79666480D01*
X80437107Y-79653868D01*
X80417401Y-79639253D01*
X80399223Y-79622777D01*
X80382747Y-79604599D01*
X80368132Y-79584893D01*
X80355520Y-79563850D01*
X80345030Y-79541671D01*
X80336765Y-79518572D01*
X80330804Y-79494773D01*
X80327204Y-79470505D01*
X80326000Y-79446001D01*
X80326000Y-78795999D01*
X80327204Y-78771495D01*
X80330804Y-78747227D01*
X80336765Y-78723428D01*
X80345030Y-78700329D01*
X80355520Y-78678150D01*
X80368132Y-78657107D01*
X80382747Y-78637401D01*
X80399223Y-78619223D01*
X80417401Y-78602747D01*
X80437107Y-78588132D01*
X80458150Y-78575520D01*
X80480329Y-78565030D01*
X80503428Y-78556765D01*
X80527227Y-78550804D01*
X80551495Y-78547204D01*
X80575999Y-78546000D01*
X81476001Y-78546000D01*
X81500505Y-78547204D01*
X81500505Y-78547204D01*
G37*
D13*
G04 #@! TD*
G04 #@! TO.P,C2,2*
G04 #@! TO.N,GND*
X81026000Y-79121000D03*
D11*
G04 #@! TO.N,+BATT*
G04 #@! TO.C,C2*
G36*
X81500505Y-80597204D02*
X81524773Y-80600804D01*
X81548572Y-80606765D01*
X81571671Y-80615030D01*
X81593850Y-80625520D01*
X81614893Y-80638132D01*
X81634599Y-80652747D01*
X81652777Y-80669223D01*
X81669253Y-80687401D01*
X81683868Y-80707107D01*
X81696480Y-80728150D01*
X81706970Y-80750329D01*
X81715235Y-80773428D01*
X81721196Y-80797227D01*
X81724796Y-80821495D01*
X81726000Y-80845999D01*
X81726000Y-81496001D01*
X81724796Y-81520505D01*
X81721196Y-81544773D01*
X81715235Y-81568572D01*
X81706970Y-81591671D01*
X81696480Y-81613850D01*
X81683868Y-81634893D01*
X81669253Y-81654599D01*
X81652777Y-81672777D01*
X81634599Y-81689253D01*
X81614893Y-81703868D01*
X81593850Y-81716480D01*
X81571671Y-81726970D01*
X81548572Y-81735235D01*
X81524773Y-81741196D01*
X81500505Y-81744796D01*
X81476001Y-81746000D01*
X80575999Y-81746000D01*
X80551495Y-81744796D01*
X80527227Y-81741196D01*
X80503428Y-81735235D01*
X80480329Y-81726970D01*
X80458150Y-81716480D01*
X80437107Y-81703868D01*
X80417401Y-81689253D01*
X80399223Y-81672777D01*
X80382747Y-81654599D01*
X80368132Y-81634893D01*
X80355520Y-81613850D01*
X80345030Y-81591671D01*
X80336765Y-81568572D01*
X80330804Y-81544773D01*
X80327204Y-81520505D01*
X80326000Y-81496001D01*
X80326000Y-80845999D01*
X80327204Y-80821495D01*
X80330804Y-80797227D01*
X80336765Y-80773428D01*
X80345030Y-80750329D01*
X80355520Y-80728150D01*
X80368132Y-80707107D01*
X80382747Y-80687401D01*
X80399223Y-80669223D01*
X80417401Y-80652747D01*
X80437107Y-80638132D01*
X80458150Y-80625520D01*
X80480329Y-80615030D01*
X80503428Y-80606765D01*
X80527227Y-80600804D01*
X80551495Y-80597204D01*
X80575999Y-80596000D01*
X81476001Y-80596000D01*
X81500505Y-80597204D01*
X81500505Y-80597204D01*
G37*
D13*
G04 #@! TD*
G04 #@! TO.P,C2,1*
G04 #@! TO.N,+BATT*
X81026000Y-81171000D03*
D11*
G04 #@! TO.N,+3V3*
G04 #@! TO.C,C4*
G36*
X92295505Y-79962204D02*
X92319773Y-79965804D01*
X92343572Y-79971765D01*
X92366671Y-79980030D01*
X92388850Y-79990520D01*
X92409893Y-80003132D01*
X92429599Y-80017747D01*
X92447777Y-80034223D01*
X92464253Y-80052401D01*
X92478868Y-80072107D01*
X92491480Y-80093150D01*
X92501970Y-80115329D01*
X92510235Y-80138428D01*
X92516196Y-80162227D01*
X92519796Y-80186495D01*
X92521000Y-80210999D01*
X92521000Y-80861001D01*
X92519796Y-80885505D01*
X92516196Y-80909773D01*
X92510235Y-80933572D01*
X92501970Y-80956671D01*
X92491480Y-80978850D01*
X92478868Y-80999893D01*
X92464253Y-81019599D01*
X92447777Y-81037777D01*
X92429599Y-81054253D01*
X92409893Y-81068868D01*
X92388850Y-81081480D01*
X92366671Y-81091970D01*
X92343572Y-81100235D01*
X92319773Y-81106196D01*
X92295505Y-81109796D01*
X92271001Y-81111000D01*
X91370999Y-81111000D01*
X91346495Y-81109796D01*
X91322227Y-81106196D01*
X91298428Y-81100235D01*
X91275329Y-81091970D01*
X91253150Y-81081480D01*
X91232107Y-81068868D01*
X91212401Y-81054253D01*
X91194223Y-81037777D01*
X91177747Y-81019599D01*
X91163132Y-80999893D01*
X91150520Y-80978850D01*
X91140030Y-80956671D01*
X91131765Y-80933572D01*
X91125804Y-80909773D01*
X91122204Y-80885505D01*
X91121000Y-80861001D01*
X91121000Y-80210999D01*
X91122204Y-80186495D01*
X91125804Y-80162227D01*
X91131765Y-80138428D01*
X91140030Y-80115329D01*
X91150520Y-80093150D01*
X91163132Y-80072107D01*
X91177747Y-80052401D01*
X91194223Y-80034223D01*
X91212401Y-80017747D01*
X91232107Y-80003132D01*
X91253150Y-79990520D01*
X91275329Y-79980030D01*
X91298428Y-79971765D01*
X91322227Y-79965804D01*
X91346495Y-79962204D01*
X91370999Y-79961000D01*
X92271001Y-79961000D01*
X92295505Y-79962204D01*
X92295505Y-79962204D01*
G37*
D13*
G04 #@! TD*
G04 #@! TO.P,C4,1*
G04 #@! TO.N,+3V3*
X91821000Y-80536000D03*
D11*
G04 #@! TO.N,GND*
G04 #@! TO.C,C4*
G36*
X92295505Y-77912204D02*
X92319773Y-77915804D01*
X92343572Y-77921765D01*
X92366671Y-77930030D01*
X92388850Y-77940520D01*
X92409893Y-77953132D01*
X92429599Y-77967747D01*
X92447777Y-77984223D01*
X92464253Y-78002401D01*
X92478868Y-78022107D01*
X92491480Y-78043150D01*
X92501970Y-78065329D01*
X92510235Y-78088428D01*
X92516196Y-78112227D01*
X92519796Y-78136495D01*
X92521000Y-78160999D01*
X92521000Y-78811001D01*
X92519796Y-78835505D01*
X92516196Y-78859773D01*
X92510235Y-78883572D01*
X92501970Y-78906671D01*
X92491480Y-78928850D01*
X92478868Y-78949893D01*
X92464253Y-78969599D01*
X92447777Y-78987777D01*
X92429599Y-79004253D01*
X92409893Y-79018868D01*
X92388850Y-79031480D01*
X92366671Y-79041970D01*
X92343572Y-79050235D01*
X92319773Y-79056196D01*
X92295505Y-79059796D01*
X92271001Y-79061000D01*
X91370999Y-79061000D01*
X91346495Y-79059796D01*
X91322227Y-79056196D01*
X91298428Y-79050235D01*
X91275329Y-79041970D01*
X91253150Y-79031480D01*
X91232107Y-79018868D01*
X91212401Y-79004253D01*
X91194223Y-78987777D01*
X91177747Y-78969599D01*
X91163132Y-78949893D01*
X91150520Y-78928850D01*
X91140030Y-78906671D01*
X91131765Y-78883572D01*
X91125804Y-78859773D01*
X91122204Y-78835505D01*
X91121000Y-78811001D01*
X91121000Y-78160999D01*
X91122204Y-78136495D01*
X91125804Y-78112227D01*
X91131765Y-78088428D01*
X91140030Y-78065329D01*
X91150520Y-78043150D01*
X91163132Y-78022107D01*
X91177747Y-78002401D01*
X91194223Y-77984223D01*
X91212401Y-77967747D01*
X91232107Y-77953132D01*
X91253150Y-77940520D01*
X91275329Y-77930030D01*
X91298428Y-77921765D01*
X91322227Y-77915804D01*
X91346495Y-77912204D01*
X91370999Y-77911000D01*
X92271001Y-77911000D01*
X92295505Y-77912204D01*
X92295505Y-77912204D01*
G37*
D13*
G04 #@! TD*
G04 #@! TO.P,C4,2*
G04 #@! TO.N,GND*
X91821000Y-78486000D03*
D11*
G04 #@! TO.N,GND*
G04 #@! TO.C,C8*
G36*
X81500505Y-101543204D02*
X81524773Y-101546804D01*
X81548572Y-101552765D01*
X81571671Y-101561030D01*
X81593850Y-101571520D01*
X81614893Y-101584132D01*
X81634599Y-101598747D01*
X81652777Y-101615223D01*
X81669253Y-101633401D01*
X81683868Y-101653107D01*
X81696480Y-101674150D01*
X81706970Y-101696329D01*
X81715235Y-101719428D01*
X81721196Y-101743227D01*
X81724796Y-101767495D01*
X81726000Y-101791999D01*
X81726000Y-102442001D01*
X81724796Y-102466505D01*
X81721196Y-102490773D01*
X81715235Y-102514572D01*
X81706970Y-102537671D01*
X81696480Y-102559850D01*
X81683868Y-102580893D01*
X81669253Y-102600599D01*
X81652777Y-102618777D01*
X81634599Y-102635253D01*
X81614893Y-102649868D01*
X81593850Y-102662480D01*
X81571671Y-102672970D01*
X81548572Y-102681235D01*
X81524773Y-102687196D01*
X81500505Y-102690796D01*
X81476001Y-102692000D01*
X80575999Y-102692000D01*
X80551495Y-102690796D01*
X80527227Y-102687196D01*
X80503428Y-102681235D01*
X80480329Y-102672970D01*
X80458150Y-102662480D01*
X80437107Y-102649868D01*
X80417401Y-102635253D01*
X80399223Y-102618777D01*
X80382747Y-102600599D01*
X80368132Y-102580893D01*
X80355520Y-102559850D01*
X80345030Y-102537671D01*
X80336765Y-102514572D01*
X80330804Y-102490773D01*
X80327204Y-102466505D01*
X80326000Y-102442001D01*
X80326000Y-101791999D01*
X80327204Y-101767495D01*
X80330804Y-101743227D01*
X80336765Y-101719428D01*
X80345030Y-101696329D01*
X80355520Y-101674150D01*
X80368132Y-101653107D01*
X80382747Y-101633401D01*
X80399223Y-101615223D01*
X80417401Y-101598747D01*
X80437107Y-101584132D01*
X80458150Y-101571520D01*
X80480329Y-101561030D01*
X80503428Y-101552765D01*
X80527227Y-101546804D01*
X80551495Y-101543204D01*
X80575999Y-101542000D01*
X81476001Y-101542000D01*
X81500505Y-101543204D01*
X81500505Y-101543204D01*
G37*
D13*
G04 #@! TD*
G04 #@! TO.P,C8,2*
G04 #@! TO.N,GND*
X81026000Y-102117000D03*
D11*
G04 #@! TO.N,+BATT*
G04 #@! TO.C,C8*
G36*
X81500505Y-99493204D02*
X81524773Y-99496804D01*
X81548572Y-99502765D01*
X81571671Y-99511030D01*
X81593850Y-99521520D01*
X81614893Y-99534132D01*
X81634599Y-99548747D01*
X81652777Y-99565223D01*
X81669253Y-99583401D01*
X81683868Y-99603107D01*
X81696480Y-99624150D01*
X81706970Y-99646329D01*
X81715235Y-99669428D01*
X81721196Y-99693227D01*
X81724796Y-99717495D01*
X81726000Y-99741999D01*
X81726000Y-100392001D01*
X81724796Y-100416505D01*
X81721196Y-100440773D01*
X81715235Y-100464572D01*
X81706970Y-100487671D01*
X81696480Y-100509850D01*
X81683868Y-100530893D01*
X81669253Y-100550599D01*
X81652777Y-100568777D01*
X81634599Y-100585253D01*
X81614893Y-100599868D01*
X81593850Y-100612480D01*
X81571671Y-100622970D01*
X81548572Y-100631235D01*
X81524773Y-100637196D01*
X81500505Y-100640796D01*
X81476001Y-100642000D01*
X80575999Y-100642000D01*
X80551495Y-100640796D01*
X80527227Y-100637196D01*
X80503428Y-100631235D01*
X80480329Y-100622970D01*
X80458150Y-100612480D01*
X80437107Y-100599868D01*
X80417401Y-100585253D01*
X80399223Y-100568777D01*
X80382747Y-100550599D01*
X80368132Y-100530893D01*
X80355520Y-100509850D01*
X80345030Y-100487671D01*
X80336765Y-100464572D01*
X80330804Y-100440773D01*
X80327204Y-100416505D01*
X80326000Y-100392001D01*
X80326000Y-99741999D01*
X80327204Y-99717495D01*
X80330804Y-99693227D01*
X80336765Y-99669428D01*
X80345030Y-99646329D01*
X80355520Y-99624150D01*
X80368132Y-99603107D01*
X80382747Y-99583401D01*
X80399223Y-99565223D01*
X80417401Y-99548747D01*
X80437107Y-99534132D01*
X80458150Y-99521520D01*
X80480329Y-99511030D01*
X80503428Y-99502765D01*
X80527227Y-99496804D01*
X80551495Y-99493204D01*
X80575999Y-99492000D01*
X81476001Y-99492000D01*
X81500505Y-99493204D01*
X81500505Y-99493204D01*
G37*
D13*
G04 #@! TD*
G04 #@! TO.P,C8,1*
G04 #@! TO.N,+BATT*
X81026000Y-100067000D03*
D11*
G04 #@! TO.N,-3V3*
G04 #@! TO.C,C10*
G36*
X92041505Y-98731204D02*
X92065773Y-98734804D01*
X92089572Y-98740765D01*
X92112671Y-98749030D01*
X92134850Y-98759520D01*
X92155893Y-98772132D01*
X92175599Y-98786747D01*
X92193777Y-98803223D01*
X92210253Y-98821401D01*
X92224868Y-98841107D01*
X92237480Y-98862150D01*
X92247970Y-98884329D01*
X92256235Y-98907428D01*
X92262196Y-98931227D01*
X92265796Y-98955495D01*
X92267000Y-98979999D01*
X92267000Y-99630001D01*
X92265796Y-99654505D01*
X92262196Y-99678773D01*
X92256235Y-99702572D01*
X92247970Y-99725671D01*
X92237480Y-99747850D01*
X92224868Y-99768893D01*
X92210253Y-99788599D01*
X92193777Y-99806777D01*
X92175599Y-99823253D01*
X92155893Y-99837868D01*
X92134850Y-99850480D01*
X92112671Y-99860970D01*
X92089572Y-99869235D01*
X92065773Y-99875196D01*
X92041505Y-99878796D01*
X92017001Y-99880000D01*
X91116999Y-99880000D01*
X91092495Y-99878796D01*
X91068227Y-99875196D01*
X91044428Y-99869235D01*
X91021329Y-99860970D01*
X90999150Y-99850480D01*
X90978107Y-99837868D01*
X90958401Y-99823253D01*
X90940223Y-99806777D01*
X90923747Y-99788599D01*
X90909132Y-99768893D01*
X90896520Y-99747850D01*
X90886030Y-99725671D01*
X90877765Y-99702572D01*
X90871804Y-99678773D01*
X90868204Y-99654505D01*
X90867000Y-99630001D01*
X90867000Y-98979999D01*
X90868204Y-98955495D01*
X90871804Y-98931227D01*
X90877765Y-98907428D01*
X90886030Y-98884329D01*
X90896520Y-98862150D01*
X90909132Y-98841107D01*
X90923747Y-98821401D01*
X90940223Y-98803223D01*
X90958401Y-98786747D01*
X90978107Y-98772132D01*
X90999150Y-98759520D01*
X91021329Y-98749030D01*
X91044428Y-98740765D01*
X91068227Y-98734804D01*
X91092495Y-98731204D01*
X91116999Y-98730000D01*
X92017001Y-98730000D01*
X92041505Y-98731204D01*
X92041505Y-98731204D01*
G37*
D13*
G04 #@! TD*
G04 #@! TO.P,C10,1*
G04 #@! TO.N,-3V3*
X91567000Y-99305000D03*
D11*
G04 #@! TO.N,GND*
G04 #@! TO.C,C10*
G36*
X92041505Y-100781204D02*
X92065773Y-100784804D01*
X92089572Y-100790765D01*
X92112671Y-100799030D01*
X92134850Y-100809520D01*
X92155893Y-100822132D01*
X92175599Y-100836747D01*
X92193777Y-100853223D01*
X92210253Y-100871401D01*
X92224868Y-100891107D01*
X92237480Y-100912150D01*
X92247970Y-100934329D01*
X92256235Y-100957428D01*
X92262196Y-100981227D01*
X92265796Y-101005495D01*
X92267000Y-101029999D01*
X92267000Y-101680001D01*
X92265796Y-101704505D01*
X92262196Y-101728773D01*
X92256235Y-101752572D01*
X92247970Y-101775671D01*
X92237480Y-101797850D01*
X92224868Y-101818893D01*
X92210253Y-101838599D01*
X92193777Y-101856777D01*
X92175599Y-101873253D01*
X92155893Y-101887868D01*
X92134850Y-101900480D01*
X92112671Y-101910970D01*
X92089572Y-101919235D01*
X92065773Y-101925196D01*
X92041505Y-101928796D01*
X92017001Y-101930000D01*
X91116999Y-101930000D01*
X91092495Y-101928796D01*
X91068227Y-101925196D01*
X91044428Y-101919235D01*
X91021329Y-101910970D01*
X90999150Y-101900480D01*
X90978107Y-101887868D01*
X90958401Y-101873253D01*
X90940223Y-101856777D01*
X90923747Y-101838599D01*
X90909132Y-101818893D01*
X90896520Y-101797850D01*
X90886030Y-101775671D01*
X90877765Y-101752572D01*
X90871804Y-101728773D01*
X90868204Y-101704505D01*
X90867000Y-101680001D01*
X90867000Y-101029999D01*
X90868204Y-101005495D01*
X90871804Y-100981227D01*
X90877765Y-100957428D01*
X90886030Y-100934329D01*
X90896520Y-100912150D01*
X90909132Y-100891107D01*
X90923747Y-100871401D01*
X90940223Y-100853223D01*
X90958401Y-100836747D01*
X90978107Y-100822132D01*
X90999150Y-100809520D01*
X91021329Y-100799030D01*
X91044428Y-100790765D01*
X91068227Y-100784804D01*
X91092495Y-100781204D01*
X91116999Y-100780000D01*
X92017001Y-100780000D01*
X92041505Y-100781204D01*
X92041505Y-100781204D01*
G37*
D13*
G04 #@! TD*
G04 #@! TO.P,C10,2*
G04 #@! TO.N,GND*
X91567000Y-101355000D03*
D14*
G04 #@! TO.P,J3,1*
G04 #@! TO.N,-3V3*
X106680000Y-101060000D03*
D15*
G04 #@! TO.P,J3,2*
G04 #@! TO.N,GND*
X106680000Y-103560000D03*
G04 #@! TD*
G04 #@! TO.P,J1,2*
G04 #@! TO.N,GND*
X106680000Y-81240000D03*
D14*
G04 #@! TO.P,J1,1*
G04 #@! TO.N,+3V3*
X106680000Y-78740000D03*
G04 #@! TD*
G04 #@! TO.P,J2,1*
G04 #@! TO.N,GND*
X63500000Y-91400000D03*
D15*
G04 #@! TO.P,J2,2*
G04 #@! TO.N,+BATT*
X63500000Y-88900000D03*
G04 #@! TD*
D16*
G04 #@! TO.P,D1,1*
G04 #@! TO.N,Net-(D1-Pad1)*
X98044000Y-104300000D03*
G04 #@! TO.P,D1,2*
G04 #@! TO.N,-3V3*
X98044000Y-98900000D03*
G04 #@! TD*
D17*
G04 #@! TO.P,JP1,1*
G04 #@! TO.N,+BATT*
X71247000Y-81818000D03*
G04 #@! TO.P,JP1,2*
G04 #@! TO.N,Net-(JP1-Pad2)*
X71247000Y-80518000D03*
G04 #@! TO.P,JP1,3*
G04 #@! TO.N,GND*
X71247000Y-79218000D03*
G04 #@! TD*
G04 #@! TO.P,JP2,3*
G04 #@! TO.N,GND*
X71374000Y-97887000D03*
G04 #@! TO.P,JP2,2*
G04 #@! TO.N,Net-(JP2-Pad2)*
X71374000Y-99187000D03*
G04 #@! TO.P,JP2,1*
G04 #@! TO.N,+BATT*
X71374000Y-100487000D03*
G04 #@! TD*
D18*
G04 #@! TO.P,U1,11*
G04 #@! TO.N,GND*
X85483000Y-78240000D03*
X86983000Y-78240000D03*
X86983000Y-79240000D03*
X86233000Y-78740000D03*
X85483000Y-79240000D03*
D19*
G04 #@! TO.P,U1,10*
G04 #@! TO.N,+3V3*
X87233000Y-80215000D03*
G04 #@! TO.P,U1,9*
G04 #@! TO.N,GND*
X86733000Y-80215000D03*
G04 #@! TO.P,U1,8*
G04 #@! TO.N,+BATT*
X86233000Y-80215000D03*
D20*
G04 #@! TO.P,U1,7*
X85733000Y-80500000D03*
G04 #@! TO.P,U1,6*
G04 #@! TO.N,Net-(JP1-Pad2)*
X85233000Y-80500000D03*
D19*
G04 #@! TO.P,U1,5*
G04 #@! TO.N,+BATT*
X85233000Y-77265000D03*
D20*
G04 #@! TO.P,U1,4*
G04 #@! TO.N,Net-(L1-Pad1)*
X85733000Y-76980000D03*
D19*
G04 #@! TO.P,U1,3*
G04 #@! TO.N,GND*
X86233000Y-77265000D03*
D20*
G04 #@! TO.P,U1,2*
G04 #@! TO.N,Net-(L1-Pad2)*
X86733000Y-76980000D03*
G04 #@! TO.P,U1,1*
G04 #@! TO.N,+3V3*
X87233000Y-76980000D03*
D21*
G04 #@! TO.P,U1,11*
G04 #@! TO.N,GND*
X86233000Y-78740000D03*
D22*
X85598000Y-79190000D03*
X85598000Y-78290000D03*
X86868000Y-79190000D03*
D23*
X84603000Y-78990000D03*
X84603000Y-78490000D03*
X87863000Y-78990000D03*
D24*
X84683000Y-78990000D03*
X84683000Y-78490000D03*
X87783000Y-78990000D03*
D23*
X87863000Y-78490000D03*
D24*
X87783000Y-78490000D03*
D22*
X86868000Y-78290000D03*
D20*
G04 #@! TO.P,U1,10*
G04 #@! TO.N,+3V3*
X87233000Y-80500000D03*
G04 #@! TO.P,U1,9*
G04 #@! TO.N,GND*
X86733000Y-80500000D03*
G04 #@! TO.P,U1,8*
G04 #@! TO.N,+BATT*
X86233000Y-80500000D03*
D19*
G04 #@! TO.P,U1,7*
X85733000Y-80215000D03*
G04 #@! TO.P,U1,6*
G04 #@! TO.N,Net-(JP1-Pad2)*
X85233000Y-80215000D03*
D20*
G04 #@! TO.P,U1,5*
G04 #@! TO.N,+BATT*
X85233000Y-76980000D03*
D19*
G04 #@! TO.P,U1,4*
G04 #@! TO.N,Net-(L1-Pad1)*
X85733000Y-77265000D03*
D20*
G04 #@! TO.P,U1,3*
G04 #@! TO.N,GND*
X86233000Y-76980000D03*
D19*
G04 #@! TO.P,U1,2*
G04 #@! TO.N,Net-(L1-Pad2)*
X86733000Y-77265000D03*
G04 #@! TO.P,U1,1*
G04 #@! TO.N,+3V3*
X87233000Y-77265000D03*
G04 #@! TD*
D25*
G04 #@! TO.P,U2,1*
G04 #@! TO.N,Net-(C6-Pad1)*
X84885000Y-98060000D03*
G04 #@! TO.P,U2,2*
G04 #@! TO.N,GND*
X84885000Y-98560000D03*
D20*
G04 #@! TO.P,U2,3*
G04 #@! TO.N,Net-(C9-Pad1)*
X84600000Y-99060000D03*
D25*
G04 #@! TO.P,U2,4*
G04 #@! TO.N,Net-(JP2-Pad2)*
X84885000Y-99560000D03*
D20*
G04 #@! TO.P,U2,5*
G04 #@! TO.N,+BATT*
X84600000Y-100060000D03*
D25*
G04 #@! TO.P,U2,6*
G04 #@! TO.N,Net-(D1-Pad1)*
X87835000Y-100060000D03*
G04 #@! TO.P,U2,7*
G04 #@! TO.N,GND*
X87835000Y-99560000D03*
D20*
G04 #@! TO.P,U2,8*
G04 #@! TO.N,-3V3*
X88120000Y-99060000D03*
G04 #@! TO.P,U2,9*
G04 #@! TO.N,Net-(R2-Pad2)*
X88120000Y-98560000D03*
G04 #@! TO.P,U2,10*
G04 #@! TO.N,Net-(C5-Pad2)*
X88120000Y-98060000D03*
D26*
G04 #@! TO.P,U2,11*
G04 #@! TO.N,GND*
X85910000Y-98425000D03*
D27*
X86110000Y-97510000D03*
D28*
X86110000Y-97430000D03*
D27*
X86610000Y-97510000D03*
X86110000Y-100610000D03*
X86610000Y-100610000D03*
D28*
X86610000Y-97430000D03*
X86110000Y-100690000D03*
X86610000Y-100690000D03*
D26*
X86810000Y-98425000D03*
X85910000Y-99695000D03*
X86810000Y-99695000D03*
D29*
X86360000Y-99060000D03*
D20*
G04 #@! TO.P,U2,1*
G04 #@! TO.N,Net-(C6-Pad1)*
X84600000Y-98060000D03*
G04 #@! TO.P,U2,2*
G04 #@! TO.N,GND*
X84600000Y-98560000D03*
D25*
G04 #@! TO.P,U2,3*
G04 #@! TO.N,Net-(C9-Pad1)*
X84885000Y-99060000D03*
D20*
G04 #@! TO.P,U2,4*
G04 #@! TO.N,Net-(JP2-Pad2)*
X84600000Y-99560000D03*
D25*
G04 #@! TO.P,U2,5*
G04 #@! TO.N,+BATT*
X84885000Y-100060000D03*
D20*
G04 #@! TO.P,U2,6*
G04 #@! TO.N,Net-(D1-Pad1)*
X88120000Y-100060000D03*
G04 #@! TO.P,U2,7*
G04 #@! TO.N,GND*
X88120000Y-99560000D03*
D25*
G04 #@! TO.P,U2,8*
G04 #@! TO.N,-3V3*
X87835000Y-99060000D03*
G04 #@! TO.P,U2,9*
G04 #@! TO.N,Net-(R2-Pad2)*
X87835000Y-98560000D03*
G04 #@! TO.P,U2,10*
G04 #@! TO.N,Net-(C5-Pad2)*
X87835000Y-98060000D03*
D18*
G04 #@! TO.P,U2,11*
G04 #@! TO.N,GND*
X86860000Y-99810000D03*
X86360000Y-99060000D03*
X86860000Y-98310000D03*
X85860000Y-98310000D03*
X85860000Y-99810000D03*
G04 #@! TD*
D11*
G04 #@! TO.N,+BATT*
G04 #@! TO.C,R1*
G36*
X77554779Y-97570144D02*
X77577834Y-97573563D01*
X77600443Y-97579227D01*
X77622387Y-97587079D01*
X77643457Y-97597044D01*
X77663448Y-97609026D01*
X77682168Y-97622910D01*
X77699438Y-97638562D01*
X77715090Y-97655832D01*
X77728974Y-97674552D01*
X77740956Y-97694543D01*
X77750921Y-97715613D01*
X77758773Y-97737557D01*
X77764437Y-97760166D01*
X77767856Y-97783221D01*
X77769000Y-97806500D01*
X77769000Y-98281500D01*
X77767856Y-98304779D01*
X77764437Y-98327834D01*
X77758773Y-98350443D01*
X77750921Y-98372387D01*
X77740956Y-98393457D01*
X77728974Y-98413448D01*
X77715090Y-98432168D01*
X77699438Y-98449438D01*
X77682168Y-98465090D01*
X77663448Y-98478974D01*
X77643457Y-98490956D01*
X77622387Y-98500921D01*
X77600443Y-98508773D01*
X77577834Y-98514437D01*
X77554779Y-98517856D01*
X77531500Y-98519000D01*
X76956500Y-98519000D01*
X76933221Y-98517856D01*
X76910166Y-98514437D01*
X76887557Y-98508773D01*
X76865613Y-98500921D01*
X76844543Y-98490956D01*
X76824552Y-98478974D01*
X76805832Y-98465090D01*
X76788562Y-98449438D01*
X76772910Y-98432168D01*
X76759026Y-98413448D01*
X76747044Y-98393457D01*
X76737079Y-98372387D01*
X76729227Y-98350443D01*
X76723563Y-98327834D01*
X76720144Y-98304779D01*
X76719000Y-98281500D01*
X76719000Y-97806500D01*
X76720144Y-97783221D01*
X76723563Y-97760166D01*
X76729227Y-97737557D01*
X76737079Y-97715613D01*
X76747044Y-97694543D01*
X76759026Y-97674552D01*
X76772910Y-97655832D01*
X76788562Y-97638562D01*
X76805832Y-97622910D01*
X76824552Y-97609026D01*
X76844543Y-97597044D01*
X76865613Y-97587079D01*
X76887557Y-97579227D01*
X76910166Y-97573563D01*
X76933221Y-97570144D01*
X76956500Y-97569000D01*
X77531500Y-97569000D01*
X77554779Y-97570144D01*
X77554779Y-97570144D01*
G37*
D12*
G04 #@! TD*
G04 #@! TO.P,R1,1*
G04 #@! TO.N,+BATT*
X77244000Y-98044000D03*
D11*
G04 #@! TO.N,Net-(C9-Pad1)*
G04 #@! TO.C,R1*
G36*
X79304779Y-97570144D02*
X79327834Y-97573563D01*
X79350443Y-97579227D01*
X79372387Y-97587079D01*
X79393457Y-97597044D01*
X79413448Y-97609026D01*
X79432168Y-97622910D01*
X79449438Y-97638562D01*
X79465090Y-97655832D01*
X79478974Y-97674552D01*
X79490956Y-97694543D01*
X79500921Y-97715613D01*
X79508773Y-97737557D01*
X79514437Y-97760166D01*
X79517856Y-97783221D01*
X79519000Y-97806500D01*
X79519000Y-98281500D01*
X79517856Y-98304779D01*
X79514437Y-98327834D01*
X79508773Y-98350443D01*
X79500921Y-98372387D01*
X79490956Y-98393457D01*
X79478974Y-98413448D01*
X79465090Y-98432168D01*
X79449438Y-98449438D01*
X79432168Y-98465090D01*
X79413448Y-98478974D01*
X79393457Y-98490956D01*
X79372387Y-98500921D01*
X79350443Y-98508773D01*
X79327834Y-98514437D01*
X79304779Y-98517856D01*
X79281500Y-98519000D01*
X78706500Y-98519000D01*
X78683221Y-98517856D01*
X78660166Y-98514437D01*
X78637557Y-98508773D01*
X78615613Y-98500921D01*
X78594543Y-98490956D01*
X78574552Y-98478974D01*
X78555832Y-98465090D01*
X78538562Y-98449438D01*
X78522910Y-98432168D01*
X78509026Y-98413448D01*
X78497044Y-98393457D01*
X78487079Y-98372387D01*
X78479227Y-98350443D01*
X78473563Y-98327834D01*
X78470144Y-98304779D01*
X78469000Y-98281500D01*
X78469000Y-97806500D01*
X78470144Y-97783221D01*
X78473563Y-97760166D01*
X78479227Y-97737557D01*
X78487079Y-97715613D01*
X78497044Y-97694543D01*
X78509026Y-97674552D01*
X78522910Y-97655832D01*
X78538562Y-97638562D01*
X78555832Y-97622910D01*
X78574552Y-97609026D01*
X78594543Y-97597044D01*
X78615613Y-97587079D01*
X78637557Y-97579227D01*
X78660166Y-97573563D01*
X78683221Y-97570144D01*
X78706500Y-97569000D01*
X79281500Y-97569000D01*
X79304779Y-97570144D01*
X79304779Y-97570144D01*
G37*
D12*
G04 #@! TD*
G04 #@! TO.P,R1,2*
G04 #@! TO.N,Net-(C9-Pad1)*
X78994000Y-98044000D03*
D11*
G04 #@! TO.N,Net-(R2-Pad2)*
G04 #@! TO.C,R2*
G36*
X92752779Y-94268144D02*
X92775834Y-94271563D01*
X92798443Y-94277227D01*
X92820387Y-94285079D01*
X92841457Y-94295044D01*
X92861448Y-94307026D01*
X92880168Y-94320910D01*
X92897438Y-94336562D01*
X92913090Y-94353832D01*
X92926974Y-94372552D01*
X92938956Y-94392543D01*
X92948921Y-94413613D01*
X92956773Y-94435557D01*
X92962437Y-94458166D01*
X92965856Y-94481221D01*
X92967000Y-94504500D01*
X92967000Y-94979500D01*
X92965856Y-95002779D01*
X92962437Y-95025834D01*
X92956773Y-95048443D01*
X92948921Y-95070387D01*
X92938956Y-95091457D01*
X92926974Y-95111448D01*
X92913090Y-95130168D01*
X92897438Y-95147438D01*
X92880168Y-95163090D01*
X92861448Y-95176974D01*
X92841457Y-95188956D01*
X92820387Y-95198921D01*
X92798443Y-95206773D01*
X92775834Y-95212437D01*
X92752779Y-95215856D01*
X92729500Y-95217000D01*
X92154500Y-95217000D01*
X92131221Y-95215856D01*
X92108166Y-95212437D01*
X92085557Y-95206773D01*
X92063613Y-95198921D01*
X92042543Y-95188956D01*
X92022552Y-95176974D01*
X92003832Y-95163090D01*
X91986562Y-95147438D01*
X91970910Y-95130168D01*
X91957026Y-95111448D01*
X91945044Y-95091457D01*
X91935079Y-95070387D01*
X91927227Y-95048443D01*
X91921563Y-95025834D01*
X91918144Y-95002779D01*
X91917000Y-94979500D01*
X91917000Y-94504500D01*
X91918144Y-94481221D01*
X91921563Y-94458166D01*
X91927227Y-94435557D01*
X91935079Y-94413613D01*
X91945044Y-94392543D01*
X91957026Y-94372552D01*
X91970910Y-94353832D01*
X91986562Y-94336562D01*
X92003832Y-94320910D01*
X92022552Y-94307026D01*
X92042543Y-94295044D01*
X92063613Y-94285079D01*
X92085557Y-94277227D01*
X92108166Y-94271563D01*
X92131221Y-94268144D01*
X92154500Y-94267000D01*
X92729500Y-94267000D01*
X92752779Y-94268144D01*
X92752779Y-94268144D01*
G37*
D12*
G04 #@! TD*
G04 #@! TO.P,R2,2*
G04 #@! TO.N,Net-(R2-Pad2)*
X92442000Y-94742000D03*
D11*
G04 #@! TO.N,Net-(C5-Pad2)*
G04 #@! TO.C,R2*
G36*
X91002779Y-94268144D02*
X91025834Y-94271563D01*
X91048443Y-94277227D01*
X91070387Y-94285079D01*
X91091457Y-94295044D01*
X91111448Y-94307026D01*
X91130168Y-94320910D01*
X91147438Y-94336562D01*
X91163090Y-94353832D01*
X91176974Y-94372552D01*
X91188956Y-94392543D01*
X91198921Y-94413613D01*
X91206773Y-94435557D01*
X91212437Y-94458166D01*
X91215856Y-94481221D01*
X91217000Y-94504500D01*
X91217000Y-94979500D01*
X91215856Y-95002779D01*
X91212437Y-95025834D01*
X91206773Y-95048443D01*
X91198921Y-95070387D01*
X91188956Y-95091457D01*
X91176974Y-95111448D01*
X91163090Y-95130168D01*
X91147438Y-95147438D01*
X91130168Y-95163090D01*
X91111448Y-95176974D01*
X91091457Y-95188956D01*
X91070387Y-95198921D01*
X91048443Y-95206773D01*
X91025834Y-95212437D01*
X91002779Y-95215856D01*
X90979500Y-95217000D01*
X90404500Y-95217000D01*
X90381221Y-95215856D01*
X90358166Y-95212437D01*
X90335557Y-95206773D01*
X90313613Y-95198921D01*
X90292543Y-95188956D01*
X90272552Y-95176974D01*
X90253832Y-95163090D01*
X90236562Y-95147438D01*
X90220910Y-95130168D01*
X90207026Y-95111448D01*
X90195044Y-95091457D01*
X90185079Y-95070387D01*
X90177227Y-95048443D01*
X90171563Y-95025834D01*
X90168144Y-95002779D01*
X90167000Y-94979500D01*
X90167000Y-94504500D01*
X90168144Y-94481221D01*
X90171563Y-94458166D01*
X90177227Y-94435557D01*
X90185079Y-94413613D01*
X90195044Y-94392543D01*
X90207026Y-94372552D01*
X90220910Y-94353832D01*
X90236562Y-94336562D01*
X90253832Y-94320910D01*
X90272552Y-94307026D01*
X90292543Y-94295044D01*
X90313613Y-94285079D01*
X90335557Y-94277227D01*
X90358166Y-94271563D01*
X90381221Y-94268144D01*
X90404500Y-94267000D01*
X90979500Y-94267000D01*
X91002779Y-94268144D01*
X91002779Y-94268144D01*
G37*
D12*
G04 #@! TD*
G04 #@! TO.P,R2,1*
G04 #@! TO.N,Net-(C5-Pad2)*
X90692000Y-94742000D03*
D11*
G04 #@! TO.N,Net-(R2-Pad2)*
G04 #@! TO.C,R3*
G36*
X91002779Y-96935144D02*
X91025834Y-96938563D01*
X91048443Y-96944227D01*
X91070387Y-96952079D01*
X91091457Y-96962044D01*
X91111448Y-96974026D01*
X91130168Y-96987910D01*
X91147438Y-97003562D01*
X91163090Y-97020832D01*
X91176974Y-97039552D01*
X91188956Y-97059543D01*
X91198921Y-97080613D01*
X91206773Y-97102557D01*
X91212437Y-97125166D01*
X91215856Y-97148221D01*
X91217000Y-97171500D01*
X91217000Y-97646500D01*
X91215856Y-97669779D01*
X91212437Y-97692834D01*
X91206773Y-97715443D01*
X91198921Y-97737387D01*
X91188956Y-97758457D01*
X91176974Y-97778448D01*
X91163090Y-97797168D01*
X91147438Y-97814438D01*
X91130168Y-97830090D01*
X91111448Y-97843974D01*
X91091457Y-97855956D01*
X91070387Y-97865921D01*
X91048443Y-97873773D01*
X91025834Y-97879437D01*
X91002779Y-97882856D01*
X90979500Y-97884000D01*
X90404500Y-97884000D01*
X90381221Y-97882856D01*
X90358166Y-97879437D01*
X90335557Y-97873773D01*
X90313613Y-97865921D01*
X90292543Y-97855956D01*
X90272552Y-97843974D01*
X90253832Y-97830090D01*
X90236562Y-97814438D01*
X90220910Y-97797168D01*
X90207026Y-97778448D01*
X90195044Y-97758457D01*
X90185079Y-97737387D01*
X90177227Y-97715443D01*
X90171563Y-97692834D01*
X90168144Y-97669779D01*
X90167000Y-97646500D01*
X90167000Y-97171500D01*
X90168144Y-97148221D01*
X90171563Y-97125166D01*
X90177227Y-97102557D01*
X90185079Y-97080613D01*
X90195044Y-97059543D01*
X90207026Y-97039552D01*
X90220910Y-97020832D01*
X90236562Y-97003562D01*
X90253832Y-96987910D01*
X90272552Y-96974026D01*
X90292543Y-96962044D01*
X90313613Y-96952079D01*
X90335557Y-96944227D01*
X90358166Y-96938563D01*
X90381221Y-96935144D01*
X90404500Y-96934000D01*
X90979500Y-96934000D01*
X91002779Y-96935144D01*
X91002779Y-96935144D01*
G37*
D12*
G04 #@! TD*
G04 #@! TO.P,R3,1*
G04 #@! TO.N,Net-(R2-Pad2)*
X90692000Y-97409000D03*
D11*
G04 #@! TO.N,-3V3*
G04 #@! TO.C,R3*
G36*
X92752779Y-96935144D02*
X92775834Y-96938563D01*
X92798443Y-96944227D01*
X92820387Y-96952079D01*
X92841457Y-96962044D01*
X92861448Y-96974026D01*
X92880168Y-96987910D01*
X92897438Y-97003562D01*
X92913090Y-97020832D01*
X92926974Y-97039552D01*
X92938956Y-97059543D01*
X92948921Y-97080613D01*
X92956773Y-97102557D01*
X92962437Y-97125166D01*
X92965856Y-97148221D01*
X92967000Y-97171500D01*
X92967000Y-97646500D01*
X92965856Y-97669779D01*
X92962437Y-97692834D01*
X92956773Y-97715443D01*
X92948921Y-97737387D01*
X92938956Y-97758457D01*
X92926974Y-97778448D01*
X92913090Y-97797168D01*
X92897438Y-97814438D01*
X92880168Y-97830090D01*
X92861448Y-97843974D01*
X92841457Y-97855956D01*
X92820387Y-97865921D01*
X92798443Y-97873773D01*
X92775834Y-97879437D01*
X92752779Y-97882856D01*
X92729500Y-97884000D01*
X92154500Y-97884000D01*
X92131221Y-97882856D01*
X92108166Y-97879437D01*
X92085557Y-97873773D01*
X92063613Y-97865921D01*
X92042543Y-97855956D01*
X92022552Y-97843974D01*
X92003832Y-97830090D01*
X91986562Y-97814438D01*
X91970910Y-97797168D01*
X91957026Y-97778448D01*
X91945044Y-97758457D01*
X91935079Y-97737387D01*
X91927227Y-97715443D01*
X91921563Y-97692834D01*
X91918144Y-97669779D01*
X91917000Y-97646500D01*
X91917000Y-97171500D01*
X91918144Y-97148221D01*
X91921563Y-97125166D01*
X91927227Y-97102557D01*
X91935079Y-97080613D01*
X91945044Y-97059543D01*
X91957026Y-97039552D01*
X91970910Y-97020832D01*
X91986562Y-97003562D01*
X92003832Y-96987910D01*
X92022552Y-96974026D01*
X92042543Y-96962044D01*
X92063613Y-96952079D01*
X92085557Y-96944227D01*
X92108166Y-96938563D01*
X92131221Y-96935144D01*
X92154500Y-96934000D01*
X92729500Y-96934000D01*
X92752779Y-96935144D01*
X92752779Y-96935144D01*
G37*
D12*
G04 #@! TD*
G04 #@! TO.P,R3,2*
G04 #@! TO.N,-3V3*
X92442000Y-97409000D03*
D30*
G04 #@! TO.P,L1,2*
G04 #@! TO.N,Net-(L1-Pad2)*
X88233000Y-73025000D03*
G04 #@! TO.P,L1,1*
G04 #@! TO.N,Net-(L1-Pad1)*
X84383000Y-73025000D03*
G04 #@! TD*
D31*
G04 #@! TO.N,GND*
X90373200Y-73050400D03*
X81915000Y-72644000D03*
X83189000Y-78490000D03*
X83185000Y-78990000D03*
X89408000Y-78994000D03*
X89408000Y-78486000D03*
X96393000Y-78740000D03*
X83439000Y-98552000D03*
X86610000Y-95635000D03*
X86110000Y-102231000D03*
X86610000Y-102231000D03*
X90043000Y-99568000D03*
X93345000Y-101346000D03*
X79629000Y-79121000D03*
X86110000Y-95656400D03*
X71374000Y-91440000D03*
X57500000Y-72500000D03*
X57500000Y-75000000D03*
X57500000Y-77500000D03*
X57500000Y-80000000D03*
X57500000Y-82500000D03*
X57500000Y-85000000D03*
X57500000Y-87500000D03*
X57500000Y-90000000D03*
X57500000Y-92500000D03*
X57500000Y-95000000D03*
X57500000Y-97500000D03*
X57500000Y-100000000D03*
X57500000Y-102500000D03*
X57500000Y-105000000D03*
X57500000Y-107500000D03*
X57500000Y-110000000D03*
X57500000Y-112500000D03*
X57500000Y-115000000D03*
X60000000Y-115000000D03*
X65000000Y-115000000D03*
X62500000Y-115000000D03*
X67500000Y-115000000D03*
X70000000Y-115000000D03*
X72500000Y-115000000D03*
X75000000Y-115000000D03*
X80000000Y-115000000D03*
X77500000Y-115000000D03*
X82500000Y-115000000D03*
X87500000Y-115000000D03*
X85000000Y-115000000D03*
X90000000Y-115000000D03*
X92500000Y-115000000D03*
X95000000Y-115000000D03*
X97500000Y-115000000D03*
X100000000Y-115000000D03*
X102500000Y-115000000D03*
X105000000Y-115000000D03*
X107500000Y-115000000D03*
X110000000Y-115000000D03*
X112500000Y-115000000D03*
X112500000Y-112500000D03*
X112500000Y-110000000D03*
X112500000Y-107500000D03*
X112500000Y-105000000D03*
X112500000Y-102500000D03*
X112500000Y-100000000D03*
X112500000Y-97500000D03*
X112500000Y-95000000D03*
X112500000Y-92500000D03*
X112500000Y-90000000D03*
X112500000Y-87500000D03*
X112500000Y-85000000D03*
X112500000Y-82500000D03*
X112500000Y-80000000D03*
X112500000Y-77500000D03*
X112500000Y-75000000D03*
X112500000Y-72500000D03*
X110000000Y-72500000D03*
X107500000Y-72500000D03*
X105000000Y-72500000D03*
X105000000Y-72500000D03*
X105000000Y-72500000D03*
X102500000Y-72500000D03*
X100000000Y-72500000D03*
X97500000Y-72500000D03*
X95000000Y-72500000D03*
X92500000Y-72500000D03*
X80000000Y-72644000D03*
X77500000Y-72644000D03*
X75000000Y-72644000D03*
X72500000Y-72644000D03*
X72500000Y-72644000D03*
X70000000Y-72644000D03*
X67500000Y-72644000D03*
X65000000Y-72500000D03*
X62500000Y-72500000D03*
X60000000Y-72500000D03*
X110000000Y-87500000D03*
X107500000Y-87500000D03*
X105000000Y-87500000D03*
X102500000Y-87500000D03*
X100000000Y-87500000D03*
X97500000Y-87500000D03*
X92500000Y-87500000D03*
X90000000Y-87500000D03*
X87500000Y-87500000D03*
X85000000Y-87500000D03*
X82500000Y-87500000D03*
X95000000Y-87500000D03*
X80000000Y-87500000D03*
X77500000Y-87500000D03*
X75000000Y-87500000D03*
X72500000Y-87500000D03*
X70000000Y-87500000D03*
X62500000Y-107500000D03*
X65000000Y-107500000D03*
X65000000Y-110000000D03*
X62500000Y-110000000D03*
X102500000Y-110000000D03*
X105000000Y-110000000D03*
X105000000Y-107500000D03*
X102500000Y-107500000D03*
X62500000Y-80000000D03*
X65000000Y-80000000D03*
X65000000Y-77500000D03*
X62581000Y-77500000D03*
G04 #@! TO.N,Net-(JP2-Pad2)*
X73406000Y-99060000D03*
X82296000Y-99060000D03*
G04 #@! TO.N,Net-(JP1-Pad2)*
X73279000Y-80518000D03*
X84582000Y-81661000D03*
G04 #@! TD*
D32*
G04 #@! TO.N,Net-(D1-Pad1)*
X97188000Y-105156000D02*
X98044000Y-104300000D01*
D33*
X87835000Y-100060000D02*
X89646000Y-100060000D01*
X89662000Y-100076000D02*
X89646000Y-100060000D01*
X89662000Y-100838000D02*
X89662000Y-100076000D01*
D32*
X97344000Y-105000000D02*
X98044000Y-104300000D01*
X89662000Y-100838000D02*
X89662000Y-104162000D01*
X89662000Y-104162000D02*
X90500000Y-105000000D01*
X92100000Y-105100000D02*
X92000000Y-105000000D01*
X92100000Y-110250000D02*
X92100000Y-105100000D01*
X90500000Y-105000000D02*
X92000000Y-105000000D01*
X92000000Y-105000000D02*
X97344000Y-105000000D01*
D33*
G04 #@! TO.N,GND*
X86233000Y-77265000D02*
X86233000Y-71628000D01*
X84683000Y-78490000D02*
X83189000Y-78490000D01*
X91817000Y-78490000D02*
X91821000Y-78486000D01*
X86733000Y-80840000D02*
X86741000Y-80848000D01*
X86733000Y-80215000D02*
X86733000Y-80840000D01*
X86741000Y-80848000D02*
X86741000Y-81407000D01*
X86741000Y-81407000D02*
X87122000Y-81788000D01*
X87122000Y-81788000D02*
X87757000Y-81788000D01*
X86110000Y-100610000D02*
X86110000Y-102231000D01*
X86610000Y-100610000D02*
X86610000Y-102231000D01*
X86610000Y-102231000D02*
X86110000Y-102231000D01*
X84233000Y-104108000D02*
X84233000Y-105156000D01*
X83956000Y-102117000D02*
X85090000Y-103251000D01*
X81026000Y-102117000D02*
X83956000Y-102117000D01*
X86110000Y-102231000D02*
X85090000Y-103251000D01*
X85090000Y-103251000D02*
X84233000Y-104108000D01*
X78486000Y-101967000D02*
X79488000Y-101967000D01*
X79638000Y-102117000D02*
X81026000Y-102117000D01*
X79488000Y-101967000D02*
X79638000Y-102117000D01*
X86610000Y-97430000D02*
X86610000Y-95635000D01*
X86727000Y-95518000D02*
X86727000Y-93726000D01*
X86610000Y-95635000D02*
X86727000Y-95518000D01*
X86110000Y-97430000D02*
X86110000Y-95656400D01*
X86110000Y-95635000D02*
X86610000Y-95635000D01*
X78188000Y-79218000D02*
X78232000Y-79262000D01*
X86233000Y-71628000D02*
X82931000Y-71628000D01*
X82931000Y-71628000D02*
X81915000Y-72644000D01*
X91821000Y-78486000D02*
X93218000Y-78486000D01*
X93359000Y-78627000D02*
X94488000Y-78627000D01*
X93218000Y-78486000D02*
X93359000Y-78627000D01*
X94488000Y-78627000D02*
X96280000Y-78627000D01*
X96280000Y-78627000D02*
X96393000Y-78740000D01*
X78373000Y-79121000D02*
X78232000Y-79262000D01*
X87863000Y-78490000D02*
X89404000Y-78490000D01*
X89404000Y-78490000D02*
X89408000Y-78486000D01*
X89404000Y-78990000D02*
X89408000Y-78994000D01*
X87783000Y-78990000D02*
X89404000Y-78990000D01*
X105480000Y-81240000D02*
X106680000Y-81240000D01*
X104297000Y-82423000D02*
X105480000Y-81240000D01*
X82919000Y-78990000D02*
X83185000Y-78990000D01*
X82804000Y-78875000D02*
X82558000Y-79121000D01*
X82558000Y-79121000D02*
X81026000Y-79121000D01*
X83189000Y-78490000D02*
X82804000Y-78875000D01*
X83185000Y-78990000D02*
X82919000Y-78990000D01*
X84603000Y-78990000D02*
X83185000Y-78990000D01*
X79629000Y-79121000D02*
X78373000Y-79121000D01*
X81026000Y-79121000D02*
X79629000Y-79121000D01*
X87835000Y-99560000D02*
X90035000Y-99560000D01*
X90035000Y-99560000D02*
X90043000Y-99568000D01*
X90043000Y-99831000D02*
X90043000Y-99568000D01*
X91567000Y-101355000D02*
X90043000Y-99831000D01*
X71374000Y-97887000D02*
X71374000Y-91440000D01*
X92442000Y-92262000D02*
X92456000Y-92248000D01*
X92442000Y-92837000D02*
X92442000Y-92262000D01*
X92456000Y-92248000D02*
X92456000Y-90424000D01*
X92456000Y-90424000D02*
X91440000Y-89408000D01*
X82931000Y-89408000D02*
X81026000Y-91313000D01*
X86727000Y-89549000D02*
X86868000Y-89408000D01*
X86727000Y-93726000D02*
X86727000Y-89549000D01*
X91440000Y-89408000D02*
X86868000Y-89408000D01*
X86868000Y-89408000D02*
X82931000Y-89408000D01*
X71374000Y-91440000D02*
X81026000Y-91440000D01*
X81026000Y-91313000D02*
X81026000Y-91440000D01*
X81026000Y-91440000D02*
X81026000Y-96294000D01*
X91567000Y-101355000D02*
X93336000Y-101355000D01*
X93336000Y-101355000D02*
X93345000Y-101346000D01*
X86110000Y-99895000D02*
X85910000Y-99695000D01*
X86110000Y-102231000D02*
X86110000Y-99895000D01*
X84885000Y-98560000D02*
X83447000Y-98560000D01*
X83447000Y-98560000D02*
X83439000Y-98552000D01*
D32*
X84400000Y-104275000D02*
X84400000Y-110250000D01*
X84233000Y-104108000D02*
X84400000Y-104275000D01*
D33*
X83189000Y-78490000D02*
X83189000Y-78490000D01*
X83185000Y-78990000D02*
X82804000Y-78875000D01*
X86110000Y-95656400D02*
X86110000Y-95635000D01*
X86610000Y-95635000D02*
X86610000Y-95635000D01*
X86110000Y-102231000D02*
X86110000Y-102231000D01*
X86610000Y-102231000D02*
X86610000Y-102231000D01*
X86110000Y-95656400D02*
X86110000Y-95656400D01*
D32*
X87757000Y-82321400D02*
X87477600Y-82042000D01*
X87757000Y-82423000D02*
X87757000Y-82321400D01*
X87477600Y-82042000D02*
X87223600Y-82042000D01*
X87223600Y-82042000D02*
X87325200Y-82143600D01*
X88239600Y-82423000D02*
X87757000Y-81940400D01*
X88595200Y-82423000D02*
X88239600Y-82423000D01*
D33*
X87757000Y-81940400D02*
X87757000Y-82423000D01*
X87757000Y-81788000D02*
X87757000Y-81940400D01*
X88595200Y-82423000D02*
X104297000Y-82423000D01*
X87757000Y-82423000D02*
X88595200Y-82423000D01*
G04 #@! TO.N,Net-(L1-Pad2)*
X87583000Y-73025000D02*
X88233000Y-73025000D01*
X86733000Y-73875000D02*
X87583000Y-73025000D01*
X86733000Y-77265000D02*
X86733000Y-73875000D01*
G04 #@! TO.N,Net-(L1-Pad1)*
X85033000Y-73025000D02*
X84383000Y-73025000D01*
X85733000Y-73725000D02*
X85033000Y-73025000D01*
X85733000Y-77265000D02*
X85733000Y-73725000D01*
G04 #@! TO.N,Net-(R2-Pad2)*
X89541000Y-98560000D02*
X90692000Y-97409000D01*
X87835000Y-98560000D02*
X89541000Y-98560000D01*
X92442000Y-95659000D02*
X90692000Y-97409000D01*
X92442000Y-94742000D02*
X92442000Y-95659000D01*
G04 #@! TO.N,-3V3*
X91322000Y-99060000D02*
X91567000Y-99305000D01*
X87835000Y-99060000D02*
X91322000Y-99060000D01*
D32*
X97639000Y-99305000D02*
X98044000Y-98900000D01*
X92442000Y-99192000D02*
X92329000Y-99305000D01*
X92442000Y-97409000D02*
X92442000Y-99192000D01*
X91567000Y-99305000D02*
X92329000Y-99305000D01*
X92329000Y-99305000D02*
X97639000Y-99305000D01*
X106680000Y-99710000D02*
X106680000Y-101060000D01*
X105870000Y-98900000D02*
X106680000Y-99710000D01*
X98044000Y-98900000D02*
X105870000Y-98900000D01*
D33*
G04 #@! TO.N,Net-(C5-Pad2)*
X90067000Y-94742000D02*
X89281000Y-95528000D01*
X90692000Y-94742000D02*
X90067000Y-94742000D01*
X89281000Y-95528000D02*
X89281000Y-97790000D01*
X89011000Y-98060000D02*
X87835000Y-98060000D01*
X89281000Y-97790000D02*
X89011000Y-98060000D01*
X90692000Y-94742000D02*
X90692000Y-92837000D01*
G04 #@! TO.N,+BATT*
X86233000Y-80215000D02*
X86233000Y-81534000D01*
X85725000Y-80848000D02*
X85725000Y-82042000D01*
X85733000Y-80840000D02*
X85725000Y-80848000D01*
X85733000Y-80215000D02*
X85733000Y-80840000D01*
X86233000Y-81534000D02*
X86233000Y-82042000D01*
D32*
X86233000Y-82042000D02*
X85725000Y-82042000D01*
X81649372Y-81794372D02*
X81026000Y-81171000D01*
X82532000Y-82677000D02*
X81649372Y-81794372D01*
X85090000Y-82677000D02*
X82532000Y-82677000D01*
X85725000Y-82042000D02*
X85090000Y-82677000D01*
X78391000Y-81171000D02*
X78232000Y-81012000D01*
X81026000Y-81171000D02*
X78391000Y-81171000D01*
X72497000Y-81818000D02*
X71247000Y-81818000D01*
X77657000Y-81012000D02*
X76851000Y-81818000D01*
X78232000Y-81012000D02*
X77657000Y-81012000D01*
X63915000Y-88900000D02*
X63500000Y-88900000D01*
X71247000Y-81818000D02*
X70997000Y-81818000D01*
D33*
X81033000Y-100060000D02*
X81026000Y-100067000D01*
X84885000Y-100060000D02*
X81033000Y-100060000D01*
D32*
X78636000Y-100067000D02*
X78486000Y-100217000D01*
X81026000Y-100067000D02*
X78636000Y-100067000D01*
X75944000Y-100487000D02*
X71374000Y-100487000D01*
X76214000Y-100217000D02*
X75944000Y-100487000D01*
X77244000Y-100189000D02*
X77216000Y-100217000D01*
X77244000Y-98044000D02*
X77244000Y-100189000D01*
X78486000Y-100217000D02*
X77216000Y-100217000D01*
X77216000Y-100217000D02*
X76214000Y-100217000D01*
X70613998Y-100487000D02*
X66675000Y-96548002D01*
X71374000Y-100487000D02*
X70613998Y-100487000D01*
X66675000Y-96548002D02*
X66675000Y-88900000D01*
X66675000Y-88900000D02*
X63500000Y-88900000D01*
X66675000Y-88900000D02*
X66675000Y-87503000D01*
X71247000Y-82931000D02*
X71247000Y-81818000D01*
X66675000Y-87503000D02*
X71247000Y-82931000D01*
D33*
X85233000Y-77265000D02*
X85233000Y-75835000D01*
X85233000Y-75835000D02*
X85090000Y-75692000D01*
D32*
X85090000Y-75692000D02*
X76581000Y-75692000D01*
X75184000Y-77089000D02*
X75184000Y-81818000D01*
X76581000Y-75692000D02*
X75184000Y-77089000D01*
X76851000Y-81818000D02*
X75184000Y-81818000D01*
X75184000Y-81818000D02*
X72497000Y-81818000D01*
D33*
G04 #@! TO.N,Net-(C9-Pad1)*
X78994000Y-98044000D02*
X81026000Y-98044000D01*
X82169000Y-98044000D02*
X81026000Y-98044000D01*
X84885000Y-99060000D02*
X83185000Y-99060000D01*
X83185000Y-99060000D02*
X82169000Y-98044000D01*
G04 #@! TO.N,Net-(C6-Pad1)*
X84260000Y-98060000D02*
X84244000Y-98044000D01*
X84885000Y-98060000D02*
X84260000Y-98060000D01*
X84244000Y-98044000D02*
X83566000Y-98044000D01*
X83566000Y-98044000D02*
X83185000Y-97663000D01*
X83185000Y-95518000D02*
X84977000Y-93726000D01*
X83185000Y-97663000D02*
X83185000Y-95518000D01*
G04 #@! TO.N,Net-(JP2-Pad2)*
X84885000Y-99560000D02*
X82796000Y-99560000D01*
X82796000Y-99560000D02*
X82296000Y-99060000D01*
X71501000Y-99060000D02*
X71374000Y-99187000D01*
X73406000Y-99060000D02*
X71501000Y-99060000D01*
G04 #@! TO.N,+3V3*
X87233000Y-80215000D02*
X87233000Y-81010000D01*
X87233000Y-81010000D02*
X87233000Y-81264000D01*
X87233000Y-81264000D02*
X87249000Y-81280000D01*
X87249000Y-81280000D02*
X88900000Y-81280000D01*
D32*
X91077000Y-81280000D02*
X91821000Y-80536000D01*
X94329000Y-80536000D02*
X94488000Y-80377000D01*
X91821000Y-80536000D02*
X94329000Y-80536000D01*
X94488000Y-80377000D02*
X97677000Y-80377000D01*
X99314000Y-78740000D02*
X106680000Y-78740000D01*
X97677000Y-80377000D02*
X99314000Y-78740000D01*
D33*
X87233000Y-77265000D02*
X87233000Y-75962000D01*
X87233000Y-75962000D02*
X87376000Y-75819000D01*
X87376000Y-75819000D02*
X88900000Y-75819000D01*
X90424000Y-77343000D02*
X90424000Y-81280000D01*
X88900000Y-75819000D02*
X90424000Y-77343000D01*
D32*
X88900000Y-81280000D02*
X90424000Y-81280000D01*
X90424000Y-81280000D02*
X91077000Y-81280000D01*
D33*
G04 #@! TO.N,Net-(JP1-Pad2)*
X85233000Y-80215000D02*
X85233000Y-81391000D01*
X85233000Y-81391000D02*
X84963000Y-81661000D01*
X84963000Y-81661000D02*
X84582000Y-81661000D01*
X73279000Y-80518000D02*
X71247000Y-80518000D01*
G04 #@! TD*
D34*
G04 #@! TO.N,GND*
G36*
X114290001Y-116540000D02*
X55710000Y-116540000D01*
X55710000Y-110535750D01*
X81865000Y-110535750D01*
X81865000Y-112126310D01*
X81961673Y-112359699D01*
X82140302Y-112538327D01*
X82373691Y-112635000D01*
X84114250Y-112635000D01*
X84273000Y-112476250D01*
X84273000Y-110377000D01*
X84527000Y-110377000D01*
X84527000Y-112476250D01*
X84685750Y-112635000D01*
X86426309Y-112635000D01*
X86659698Y-112538327D01*
X86838327Y-112359699D01*
X86935000Y-112126310D01*
X86935000Y-110535750D01*
X86776250Y-110377000D01*
X84527000Y-110377000D01*
X84273000Y-110377000D01*
X82023750Y-110377000D01*
X81865000Y-110535750D01*
X55710000Y-110535750D01*
X55710000Y-108373690D01*
X81865000Y-108373690D01*
X81865000Y-109964250D01*
X82023750Y-110123000D01*
X84273000Y-110123000D01*
X84273000Y-108023750D01*
X84527000Y-108023750D01*
X84527000Y-110123000D01*
X86776250Y-110123000D01*
X86935000Y-109964250D01*
X86935000Y-108373690D01*
X86838327Y-108140301D01*
X86659698Y-107961673D01*
X86426309Y-107865000D01*
X84685750Y-107865000D01*
X84527000Y-108023750D01*
X84273000Y-108023750D01*
X84114250Y-107865000D01*
X82373691Y-107865000D01*
X82140302Y-107961673D01*
X81961673Y-108140301D01*
X81865000Y-108373690D01*
X55710000Y-108373690D01*
X55710000Y-102252750D01*
X77376000Y-102252750D01*
X77376000Y-102618309D01*
X77472673Y-102851698D01*
X77651301Y-103030327D01*
X77884690Y-103127000D01*
X78200250Y-103127000D01*
X78359000Y-102968250D01*
X78359000Y-102094000D01*
X78613000Y-102094000D01*
X78613000Y-102968250D01*
X78771750Y-103127000D01*
X79087310Y-103127000D01*
X79320699Y-103030327D01*
X79499327Y-102851698D01*
X79596000Y-102618309D01*
X79596000Y-102402750D01*
X79691000Y-102402750D01*
X79691000Y-102818309D01*
X79787673Y-103051698D01*
X79966301Y-103230327D01*
X80199690Y-103327000D01*
X80740250Y-103327000D01*
X80899000Y-103168250D01*
X80899000Y-102244000D01*
X81153000Y-102244000D01*
X81153000Y-103168250D01*
X81311750Y-103327000D01*
X81852310Y-103327000D01*
X82085699Y-103230327D01*
X82264327Y-103051698D01*
X82361000Y-102818309D01*
X82361000Y-102402750D01*
X82202250Y-102244000D01*
X81153000Y-102244000D01*
X80899000Y-102244000D01*
X79849750Y-102244000D01*
X79691000Y-102402750D01*
X79596000Y-102402750D01*
X79596000Y-102252750D01*
X79437250Y-102094000D01*
X78613000Y-102094000D01*
X78359000Y-102094000D01*
X77534750Y-102094000D01*
X77376000Y-102252750D01*
X55710000Y-102252750D01*
X55710000Y-91685750D01*
X61865000Y-91685750D01*
X61865000Y-92376309D01*
X61961673Y-92609698D01*
X62140301Y-92788327D01*
X62373690Y-92885000D01*
X63214250Y-92885000D01*
X63373000Y-92726250D01*
X63373000Y-91527000D01*
X63627000Y-91527000D01*
X63627000Y-92726250D01*
X63785750Y-92885000D01*
X64626310Y-92885000D01*
X64859699Y-92788327D01*
X65038327Y-92609698D01*
X65135000Y-92376309D01*
X65135000Y-91685750D01*
X64976250Y-91527000D01*
X63627000Y-91527000D01*
X63373000Y-91527000D01*
X62023750Y-91527000D01*
X61865000Y-91685750D01*
X55710000Y-91685750D01*
X55710000Y-88900000D01*
X61835908Y-88900000D01*
X61951161Y-89479418D01*
X62270709Y-89957656D01*
X62140301Y-90011673D01*
X61961673Y-90190302D01*
X61865000Y-90423691D01*
X61865000Y-91114250D01*
X62023750Y-91273000D01*
X63373000Y-91273000D01*
X63373000Y-91253000D01*
X63627000Y-91253000D01*
X63627000Y-91273000D01*
X64976250Y-91273000D01*
X65135000Y-91114250D01*
X65135000Y-90423691D01*
X65038327Y-90190302D01*
X64859699Y-90011673D01*
X64729291Y-89957656D01*
X64844656Y-89785000D01*
X65790001Y-89785000D01*
X65790000Y-96460841D01*
X65772663Y-96548002D01*
X65790000Y-96635163D01*
X65790000Y-96635166D01*
X65841348Y-96893311D01*
X66036951Y-97186051D01*
X66110847Y-97235427D01*
X69926575Y-101051156D01*
X69975949Y-101125049D01*
X70008322Y-101146680D01*
X70025843Y-101234765D01*
X70166191Y-101444809D01*
X70376235Y-101585157D01*
X70624000Y-101634440D01*
X72124000Y-101634440D01*
X72371765Y-101585157D01*
X72581809Y-101444809D01*
X72630459Y-101372000D01*
X75856839Y-101372000D01*
X75944000Y-101389337D01*
X76031161Y-101372000D01*
X76031165Y-101372000D01*
X76289310Y-101320652D01*
X76582049Y-101125049D01*
X76597450Y-101102000D01*
X77128839Y-101102000D01*
X77216000Y-101119337D01*
X77303161Y-101102000D01*
X77464514Y-101102000D01*
X77376000Y-101315691D01*
X77376000Y-101681250D01*
X77534750Y-101840000D01*
X78359000Y-101840000D01*
X78359000Y-101820000D01*
X78613000Y-101820000D01*
X78613000Y-101840000D01*
X79437250Y-101840000D01*
X79596000Y-101681250D01*
X79596000Y-101315691D01*
X79499327Y-101082302D01*
X79428565Y-101011540D01*
X79468348Y-100952000D01*
X79891577Y-100952000D01*
X79941414Y-101026586D01*
X79942597Y-101027377D01*
X79787673Y-101182302D01*
X79691000Y-101415691D01*
X79691000Y-101831250D01*
X79849750Y-101990000D01*
X80899000Y-101990000D01*
X80899000Y-101970000D01*
X81153000Y-101970000D01*
X81153000Y-101990000D01*
X82202250Y-101990000D01*
X82361000Y-101831250D01*
X82361000Y-101415691D01*
X82264327Y-101182302D01*
X82109403Y-101027377D01*
X82110586Y-101026586D01*
X82265327Y-100795000D01*
X84207510Y-100795000D01*
X84212235Y-100798157D01*
X84460000Y-100847440D01*
X84740000Y-100847440D01*
X84802541Y-100835000D01*
X85246330Y-100835000D01*
X85258158Y-100832647D01*
X85357114Y-100873636D01*
X85335000Y-100895750D01*
X85335000Y-101086310D01*
X85431673Y-101319699D01*
X85610302Y-101498327D01*
X85843691Y-101595000D01*
X85881250Y-101595000D01*
X86040000Y-101436250D01*
X86040000Y-101428025D01*
X86110302Y-101498327D01*
X86335256Y-101591506D01*
X86338750Y-101595000D01*
X86381250Y-101595000D01*
X86384744Y-101591506D01*
X86609698Y-101498327D01*
X86680000Y-101428025D01*
X86680000Y-101436250D01*
X86838750Y-101595000D01*
X86876309Y-101595000D01*
X87109698Y-101498327D01*
X87288327Y-101319699D01*
X87385000Y-101086310D01*
X87385000Y-100895750D01*
X87362886Y-100873636D01*
X87461842Y-100832647D01*
X87473670Y-100835000D01*
X87917459Y-100835000D01*
X87980000Y-100847440D01*
X88260000Y-100847440D01*
X88507765Y-100798157D01*
X88512490Y-100795000D01*
X88777000Y-100795000D01*
X88777001Y-104074835D01*
X88759663Y-104162000D01*
X88828348Y-104507309D01*
X88974576Y-104726154D01*
X88974578Y-104726156D01*
X89023952Y-104800049D01*
X89097845Y-104849423D01*
X89812577Y-105564156D01*
X89861951Y-105638049D01*
X89935844Y-105687423D01*
X89935845Y-105687424D01*
X90085505Y-105787424D01*
X90154690Y-105833652D01*
X90412835Y-105885000D01*
X90412839Y-105885000D01*
X90500000Y-105902337D01*
X90587161Y-105885000D01*
X91215001Y-105885000D01*
X91215000Y-107852560D01*
X90200000Y-107852560D01*
X89952235Y-107901843D01*
X89742191Y-108042191D01*
X89601843Y-108252235D01*
X89552560Y-108500000D01*
X89552560Y-112000000D01*
X89601843Y-112247765D01*
X89742191Y-112457809D01*
X89952235Y-112598157D01*
X90200000Y-112647440D01*
X94000000Y-112647440D01*
X94247765Y-112598157D01*
X94457809Y-112457809D01*
X94598157Y-112247765D01*
X94647440Y-112000000D01*
X94647440Y-108500000D01*
X94598157Y-108252235D01*
X94457809Y-108042191D01*
X94247765Y-107901843D01*
X94000000Y-107852560D01*
X92985000Y-107852560D01*
X92985000Y-105885000D01*
X96246560Y-105885000D01*
X96246560Y-106050000D01*
X96295843Y-106297765D01*
X96436191Y-106507809D01*
X96646235Y-106648157D01*
X96894000Y-106697440D01*
X99194000Y-106697440D01*
X99441765Y-106648157D01*
X99651809Y-106507809D01*
X99792157Y-106297765D01*
X99841440Y-106050000D01*
X99841440Y-103916890D01*
X105088524Y-103916890D01*
X105090447Y-103929260D01*
X105341336Y-104452045D01*
X105773188Y-104839024D01*
X106320258Y-105031284D01*
X106553000Y-104887231D01*
X106553000Y-103687000D01*
X106807000Y-103687000D01*
X106807000Y-104887231D01*
X107039742Y-105031284D01*
X107586812Y-104839024D01*
X108018664Y-104452045D01*
X108269553Y-103929260D01*
X108271476Y-103916890D01*
X108150155Y-103687000D01*
X106807000Y-103687000D01*
X106553000Y-103687000D01*
X105209845Y-103687000D01*
X105088524Y-103916890D01*
X99841440Y-103916890D01*
X99841440Y-102550000D01*
X99792157Y-102302235D01*
X99651809Y-102092191D01*
X99441765Y-101951843D01*
X99194000Y-101902560D01*
X96894000Y-101902560D01*
X96646235Y-101951843D01*
X96436191Y-102092191D01*
X96295843Y-102302235D01*
X96246560Y-102550000D01*
X96246560Y-104115000D01*
X92087161Y-104115000D01*
X92000000Y-104097663D01*
X91912839Y-104115000D01*
X90866579Y-104115000D01*
X90547000Y-103795422D01*
X90547000Y-102484771D01*
X90740690Y-102565000D01*
X91281250Y-102565000D01*
X91440000Y-102406250D01*
X91440000Y-101482000D01*
X91694000Y-101482000D01*
X91694000Y-102406250D01*
X91852750Y-102565000D01*
X92393310Y-102565000D01*
X92626699Y-102468327D01*
X92805327Y-102289698D01*
X92902000Y-102056309D01*
X92902000Y-101640750D01*
X92743250Y-101482000D01*
X91694000Y-101482000D01*
X91440000Y-101482000D01*
X91420000Y-101482000D01*
X91420000Y-101228000D01*
X91440000Y-101228000D01*
X91440000Y-101208000D01*
X91694000Y-101208000D01*
X91694000Y-101228000D01*
X92743250Y-101228000D01*
X92902000Y-101069250D01*
X92902000Y-100653691D01*
X92805327Y-100420302D01*
X92650403Y-100265377D01*
X92651586Y-100264586D01*
X92701423Y-100190000D01*
X96246560Y-100190000D01*
X96246560Y-100650000D01*
X96295843Y-100897765D01*
X96436191Y-101107809D01*
X96646235Y-101248157D01*
X96894000Y-101297440D01*
X99194000Y-101297440D01*
X99441765Y-101248157D01*
X99651809Y-101107809D01*
X99792157Y-100897765D01*
X99841440Y-100650000D01*
X99841440Y-99785000D01*
X105200269Y-99785000D01*
X105081843Y-99962235D01*
X105032560Y-100210000D01*
X105032560Y-101910000D01*
X105081843Y-102157765D01*
X105222191Y-102367809D01*
X105432235Y-102508157D01*
X105503782Y-102522388D01*
X105341336Y-102667955D01*
X105090447Y-103190740D01*
X105088524Y-103203110D01*
X105209845Y-103433000D01*
X106553000Y-103433000D01*
X106553000Y-103413000D01*
X106807000Y-103413000D01*
X106807000Y-103433000D01*
X108150155Y-103433000D01*
X108271476Y-103203110D01*
X108269553Y-103190740D01*
X108018664Y-102667955D01*
X107856218Y-102522388D01*
X107927765Y-102508157D01*
X108137809Y-102367809D01*
X108278157Y-102157765D01*
X108327440Y-101910000D01*
X108327440Y-100210000D01*
X108278157Y-99962235D01*
X108137809Y-99752191D01*
X107927765Y-99611843D01*
X107680000Y-99562560D01*
X107553011Y-99562560D01*
X107513652Y-99364690D01*
X107452532Y-99273218D01*
X107367424Y-99145845D01*
X107367423Y-99145844D01*
X107318049Y-99071951D01*
X107244156Y-99022577D01*
X106557425Y-98335847D01*
X106508049Y-98261951D01*
X106215310Y-98066348D01*
X105957165Y-98015000D01*
X105957161Y-98015000D01*
X105870000Y-97997663D01*
X105782839Y-98015000D01*
X99841440Y-98015000D01*
X99841440Y-97150000D01*
X99792157Y-96902235D01*
X99651809Y-96692191D01*
X99441765Y-96551843D01*
X99194000Y-96502560D01*
X96894000Y-96502560D01*
X96646235Y-96551843D01*
X96436191Y-96692191D01*
X96295843Y-96902235D01*
X96246560Y-97150000D01*
X96246560Y-98420000D01*
X93327000Y-98420000D01*
X93327000Y-98291121D01*
X93355247Y-98272247D01*
X93547078Y-97985152D01*
X93614440Y-97646500D01*
X93614440Y-97171500D01*
X93547078Y-96832848D01*
X93355247Y-96545753D01*
X93068152Y-96353922D01*
X92833250Y-96307197D01*
X92910537Y-96229910D01*
X92971905Y-96188905D01*
X93134354Y-95945783D01*
X93177000Y-95731388D01*
X93178615Y-95723269D01*
X93355247Y-95605247D01*
X93547078Y-95318152D01*
X93614440Y-94979500D01*
X93614440Y-94504500D01*
X93547078Y-94165848D01*
X93355247Y-93878753D01*
X93318060Y-93853905D01*
X93326698Y-93850327D01*
X93505327Y-93671699D01*
X93602000Y-93438310D01*
X93602000Y-93122750D01*
X93443250Y-92964000D01*
X92569000Y-92964000D01*
X92569000Y-92984000D01*
X92315000Y-92984000D01*
X92315000Y-92964000D01*
X92295000Y-92964000D01*
X92295000Y-92710000D01*
X92315000Y-92710000D01*
X92315000Y-91885750D01*
X92569000Y-91885750D01*
X92569000Y-92710000D01*
X93443250Y-92710000D01*
X93602000Y-92551250D01*
X93602000Y-92235690D01*
X93505327Y-92002301D01*
X93326698Y-91823673D01*
X93093309Y-91727000D01*
X92727750Y-91727000D01*
X92569000Y-91885750D01*
X92315000Y-91885750D01*
X92156250Y-91727000D01*
X91790691Y-91727000D01*
X91557302Y-91823673D01*
X91486540Y-91894435D01*
X91318152Y-91781922D01*
X90979500Y-91714560D01*
X90404500Y-91714560D01*
X90065848Y-91781922D01*
X89778753Y-91973753D01*
X89586922Y-92260848D01*
X89519560Y-92599500D01*
X89519560Y-93074500D01*
X89586922Y-93413152D01*
X89778753Y-93700247D01*
X89912329Y-93789500D01*
X89778753Y-93878753D01*
X89586922Y-94165848D01*
X89583950Y-94180787D01*
X89537095Y-94212095D01*
X89496090Y-94273463D01*
X88812465Y-94957089D01*
X88751095Y-94998095D01*
X88588646Y-95241218D01*
X88546000Y-95455613D01*
X88546000Y-95455616D01*
X88531602Y-95528000D01*
X88546000Y-95600385D01*
X88546001Y-97325000D01*
X88512490Y-97325000D01*
X88507765Y-97321843D01*
X88260000Y-97272560D01*
X87980000Y-97272560D01*
X87917459Y-97285000D01*
X87473670Y-97285000D01*
X87461842Y-97287353D01*
X87362886Y-97246364D01*
X87385000Y-97224250D01*
X87385000Y-97033690D01*
X87288327Y-96800301D01*
X87109698Y-96621673D01*
X86876309Y-96525000D01*
X86838750Y-96525000D01*
X86680000Y-96683750D01*
X86680000Y-96691975D01*
X86609698Y-96621673D01*
X86384744Y-96528494D01*
X86381250Y-96525000D01*
X86338750Y-96525000D01*
X86335256Y-96528494D01*
X86110302Y-96621673D01*
X86040000Y-96691975D01*
X86040000Y-96683750D01*
X85881250Y-96525000D01*
X85843691Y-96525000D01*
X85610302Y-96621673D01*
X85431673Y-96800301D01*
X85335000Y-97033690D01*
X85335000Y-97224250D01*
X85357114Y-97246364D01*
X85258158Y-97287353D01*
X85246330Y-97285000D01*
X84802541Y-97285000D01*
X84740000Y-97272560D01*
X84460000Y-97272560D01*
X84296593Y-97305063D01*
X84244000Y-97294602D01*
X84171616Y-97309000D01*
X83920000Y-97309000D01*
X83920000Y-95822446D01*
X84894007Y-94848440D01*
X85264500Y-94848440D01*
X85603152Y-94781078D01*
X85771540Y-94668565D01*
X85842302Y-94739327D01*
X86075691Y-94836000D01*
X86441250Y-94836000D01*
X86600000Y-94677250D01*
X86600000Y-93853000D01*
X86854000Y-93853000D01*
X86854000Y-94677250D01*
X87012750Y-94836000D01*
X87378309Y-94836000D01*
X87611698Y-94739327D01*
X87790327Y-94560699D01*
X87887000Y-94327310D01*
X87887000Y-94011750D01*
X87728250Y-93853000D01*
X86854000Y-93853000D01*
X86600000Y-93853000D01*
X86580000Y-93853000D01*
X86580000Y-93599000D01*
X86600000Y-93599000D01*
X86600000Y-92774750D01*
X86854000Y-92774750D01*
X86854000Y-93599000D01*
X87728250Y-93599000D01*
X87887000Y-93440250D01*
X87887000Y-93124690D01*
X87790327Y-92891301D01*
X87611698Y-92712673D01*
X87378309Y-92616000D01*
X87012750Y-92616000D01*
X86854000Y-92774750D01*
X86600000Y-92774750D01*
X86441250Y-92616000D01*
X86075691Y-92616000D01*
X85842302Y-92712673D01*
X85771540Y-92783435D01*
X85603152Y-92670922D01*
X85264500Y-92603560D01*
X84689500Y-92603560D01*
X84350848Y-92670922D01*
X84063753Y-92862753D01*
X83871922Y-93149848D01*
X83804560Y-93488500D01*
X83804560Y-93858993D01*
X82716463Y-94947091D01*
X82655096Y-94988095D01*
X82614092Y-95049462D01*
X82614091Y-95049463D01*
X82492646Y-95231218D01*
X82435602Y-95518000D01*
X82450001Y-95590389D01*
X82450000Y-97350496D01*
X82241388Y-97309000D01*
X82241384Y-97309000D01*
X82169000Y-97294602D01*
X82096616Y-97309000D01*
X82008348Y-97309000D01*
X81968565Y-97249460D01*
X82039327Y-97178698D01*
X82136000Y-96945309D01*
X82136000Y-96579750D01*
X81977250Y-96421000D01*
X81153000Y-96421000D01*
X81153000Y-96441000D01*
X80899000Y-96441000D01*
X80899000Y-96421000D01*
X80074750Y-96421000D01*
X79916000Y-96579750D01*
X79916000Y-96945309D01*
X80012673Y-97178698D01*
X80083435Y-97249460D01*
X80043652Y-97309000D01*
X79992939Y-97309000D01*
X79907247Y-97180753D01*
X79620152Y-96988922D01*
X79281500Y-96921560D01*
X78706500Y-96921560D01*
X78367848Y-96988922D01*
X78119000Y-97155197D01*
X77870152Y-96988922D01*
X77531500Y-96921560D01*
X76956500Y-96921560D01*
X76617848Y-96988922D01*
X76330753Y-97180753D01*
X76138922Y-97467848D01*
X76071560Y-97806500D01*
X76071560Y-98281500D01*
X76138922Y-98620152D01*
X76330753Y-98907247D01*
X76359000Y-98926121D01*
X76359001Y-99332000D01*
X76301161Y-99332000D01*
X76214000Y-99314663D01*
X76126839Y-99332000D01*
X76126835Y-99332000D01*
X75868690Y-99383348D01*
X75575951Y-99578951D01*
X75560550Y-99602000D01*
X74044869Y-99602000D01*
X74113879Y-99532990D01*
X74241000Y-99226092D01*
X74241000Y-98893908D01*
X74113879Y-98587010D01*
X73878990Y-98352121D01*
X73572092Y-98225000D01*
X73239908Y-98225000D01*
X72998486Y-98325000D01*
X72759000Y-98325000D01*
X72759000Y-98172750D01*
X72600250Y-98014000D01*
X71501000Y-98014000D01*
X71501000Y-98034000D01*
X71247000Y-98034000D01*
X71247000Y-98014000D01*
X70147750Y-98014000D01*
X69989000Y-98172750D01*
X69989000Y-98513309D01*
X70003936Y-98549368D01*
X69991329Y-98612752D01*
X68639268Y-97260691D01*
X69989000Y-97260691D01*
X69989000Y-97601250D01*
X70147750Y-97760000D01*
X71247000Y-97760000D01*
X71247000Y-96910750D01*
X71501000Y-96910750D01*
X71501000Y-97760000D01*
X72600250Y-97760000D01*
X72759000Y-97601250D01*
X72759000Y-97260691D01*
X72662327Y-97027302D01*
X72483699Y-96848673D01*
X72250310Y-96752000D01*
X71659750Y-96752000D01*
X71501000Y-96910750D01*
X71247000Y-96910750D01*
X71088250Y-96752000D01*
X70497690Y-96752000D01*
X70264301Y-96848673D01*
X70085673Y-97027302D01*
X69989000Y-97260691D01*
X68639268Y-97260691D01*
X67560000Y-96181424D01*
X67560000Y-95642691D01*
X79916000Y-95642691D01*
X79916000Y-96008250D01*
X80074750Y-96167000D01*
X80899000Y-96167000D01*
X80899000Y-95292750D01*
X81153000Y-95292750D01*
X81153000Y-96167000D01*
X81977250Y-96167000D01*
X82136000Y-96008250D01*
X82136000Y-95642691D01*
X82039327Y-95409302D01*
X81860699Y-95230673D01*
X81627310Y-95134000D01*
X81311750Y-95134000D01*
X81153000Y-95292750D01*
X80899000Y-95292750D01*
X80740250Y-95134000D01*
X80424690Y-95134000D01*
X80191301Y-95230673D01*
X80012673Y-95409302D01*
X79916000Y-95642691D01*
X67560000Y-95642691D01*
X67560000Y-88987164D01*
X67577338Y-88900000D01*
X67560000Y-88812835D01*
X67560000Y-87869578D01*
X71811156Y-83618423D01*
X71885049Y-83569049D01*
X72080652Y-83276310D01*
X72132000Y-83018165D01*
X72132000Y-83018161D01*
X72148480Y-82935309D01*
X72244765Y-82916157D01*
X72454809Y-82775809D01*
X72503459Y-82703000D01*
X75096836Y-82703000D01*
X75184000Y-82720338D01*
X75271165Y-82703000D01*
X76763839Y-82703000D01*
X76851000Y-82720337D01*
X76938161Y-82703000D01*
X76938165Y-82703000D01*
X77196310Y-82651652D01*
X77489049Y-82456049D01*
X77538425Y-82382153D01*
X77779003Y-82141575D01*
X77994500Y-82184440D01*
X78469500Y-82184440D01*
X78808152Y-82117078D01*
X78899562Y-82056000D01*
X79891577Y-82056000D01*
X79941414Y-82130586D01*
X80232564Y-82325127D01*
X80575999Y-82393440D01*
X80996861Y-82393440D01*
X81085217Y-82481796D01*
X81085220Y-82481798D01*
X81844577Y-83241156D01*
X81893951Y-83315049D01*
X81967844Y-83364423D01*
X81967845Y-83364424D01*
X82078880Y-83438615D01*
X82186690Y-83510652D01*
X82444835Y-83562000D01*
X82444839Y-83562000D01*
X82531999Y-83579337D01*
X82619159Y-83562000D01*
X85002839Y-83562000D01*
X85090000Y-83579337D01*
X85177161Y-83562000D01*
X85177165Y-83562000D01*
X85435310Y-83510652D01*
X85728049Y-83315049D01*
X85777425Y-83241154D01*
X86091579Y-82927000D01*
X86320165Y-82927000D01*
X86578310Y-82875652D01*
X86871049Y-82680049D01*
X87066652Y-82387310D01*
X87135338Y-82042000D01*
X87128046Y-82005340D01*
X87176612Y-82015000D01*
X87176615Y-82015000D01*
X87248999Y-82029398D01*
X87321383Y-82015000D01*
X88407048Y-82015000D01*
X88554690Y-82113652D01*
X88812835Y-82165000D01*
X90989839Y-82165000D01*
X91077000Y-82182337D01*
X91164161Y-82165000D01*
X91164165Y-82165000D01*
X91422310Y-82113652D01*
X91715049Y-81918049D01*
X91764425Y-81844153D01*
X91850138Y-81758440D01*
X92271001Y-81758440D01*
X92614436Y-81690127D01*
X92753974Y-81596890D01*
X105088524Y-81596890D01*
X105090447Y-81609260D01*
X105341336Y-82132045D01*
X105773188Y-82519024D01*
X106320258Y-82711284D01*
X106553000Y-82567231D01*
X106553000Y-81367000D01*
X106807000Y-81367000D01*
X106807000Y-82567231D01*
X107039742Y-82711284D01*
X107586812Y-82519024D01*
X108018664Y-82132045D01*
X108269553Y-81609260D01*
X108271476Y-81596890D01*
X108150155Y-81367000D01*
X106807000Y-81367000D01*
X106553000Y-81367000D01*
X105209845Y-81367000D01*
X105088524Y-81596890D01*
X92753974Y-81596890D01*
X92905586Y-81495586D01*
X92955423Y-81421000D01*
X93820438Y-81421000D01*
X93911848Y-81482078D01*
X94250500Y-81549440D01*
X94725500Y-81549440D01*
X95064152Y-81482078D01*
X95351247Y-81290247D01*
X95370121Y-81262000D01*
X97589839Y-81262000D01*
X97677000Y-81279337D01*
X97764161Y-81262000D01*
X97764165Y-81262000D01*
X98022310Y-81210652D01*
X98315049Y-81015049D01*
X98364425Y-80941153D01*
X99680579Y-79625000D01*
X105039522Y-79625000D01*
X105081843Y-79837765D01*
X105222191Y-80047809D01*
X105432235Y-80188157D01*
X105503782Y-80202388D01*
X105341336Y-80347955D01*
X105090447Y-80870740D01*
X105088524Y-80883110D01*
X105209845Y-81113000D01*
X106553000Y-81113000D01*
X106553000Y-81093000D01*
X106807000Y-81093000D01*
X106807000Y-81113000D01*
X108150155Y-81113000D01*
X108271476Y-80883110D01*
X108269553Y-80870740D01*
X108018664Y-80347955D01*
X107856218Y-80202388D01*
X107927765Y-80188157D01*
X108137809Y-80047809D01*
X108278157Y-79837765D01*
X108327440Y-79590000D01*
X108327440Y-77890000D01*
X108278157Y-77642235D01*
X108137809Y-77432191D01*
X107927765Y-77291843D01*
X107680000Y-77242560D01*
X105680000Y-77242560D01*
X105432235Y-77291843D01*
X105222191Y-77432191D01*
X105081843Y-77642235D01*
X105039522Y-77855000D01*
X99401161Y-77855000D01*
X99314000Y-77837663D01*
X99226839Y-77855000D01*
X99226835Y-77855000D01*
X98995702Y-77900975D01*
X98968690Y-77906348D01*
X98749845Y-78052576D01*
X98749844Y-78052577D01*
X98675951Y-78101951D01*
X98626577Y-78175844D01*
X97310422Y-79492000D01*
X95509486Y-79492000D01*
X95598000Y-79278309D01*
X95598000Y-78912750D01*
X95439250Y-78754000D01*
X94615000Y-78754000D01*
X94615000Y-78774000D01*
X94361000Y-78774000D01*
X94361000Y-78754000D01*
X93536750Y-78754000D01*
X93378000Y-78912750D01*
X93378000Y-79278309D01*
X93474673Y-79511698D01*
X93545435Y-79582460D01*
X93499638Y-79651000D01*
X92955423Y-79651000D01*
X92905586Y-79576414D01*
X92904403Y-79575623D01*
X93059327Y-79420698D01*
X93156000Y-79187309D01*
X93156000Y-78771750D01*
X92997250Y-78613000D01*
X91948000Y-78613000D01*
X91948000Y-78633000D01*
X91694000Y-78633000D01*
X91694000Y-78613000D01*
X91674000Y-78613000D01*
X91674000Y-78359000D01*
X91694000Y-78359000D01*
X91694000Y-77434750D01*
X91948000Y-77434750D01*
X91948000Y-78359000D01*
X92997250Y-78359000D01*
X93156000Y-78200250D01*
X93156000Y-77975691D01*
X93378000Y-77975691D01*
X93378000Y-78341250D01*
X93536750Y-78500000D01*
X94361000Y-78500000D01*
X94361000Y-77625750D01*
X94615000Y-77625750D01*
X94615000Y-78500000D01*
X95439250Y-78500000D01*
X95598000Y-78341250D01*
X95598000Y-77975691D01*
X95501327Y-77742302D01*
X95322699Y-77563673D01*
X95089310Y-77467000D01*
X94773750Y-77467000D01*
X94615000Y-77625750D01*
X94361000Y-77625750D01*
X94202250Y-77467000D01*
X93886690Y-77467000D01*
X93653301Y-77563673D01*
X93474673Y-77742302D01*
X93378000Y-77975691D01*
X93156000Y-77975691D01*
X93156000Y-77784691D01*
X93059327Y-77551302D01*
X92880699Y-77372673D01*
X92647310Y-77276000D01*
X92106750Y-77276000D01*
X91948000Y-77434750D01*
X91694000Y-77434750D01*
X91535250Y-77276000D01*
X91160071Y-77276000D01*
X91159000Y-77270613D01*
X91159000Y-77270612D01*
X91116354Y-77056217D01*
X90953905Y-76813095D01*
X90892538Y-76772091D01*
X89470911Y-75350465D01*
X89429905Y-75289095D01*
X89186783Y-75126646D01*
X88972388Y-75084000D01*
X88972384Y-75084000D01*
X88900000Y-75069602D01*
X88827616Y-75084000D01*
X87468000Y-75084000D01*
X87468000Y-74228232D01*
X87535235Y-74273157D01*
X87783000Y-74322440D01*
X88683000Y-74322440D01*
X88930765Y-74273157D01*
X89140809Y-74132809D01*
X89281157Y-73922765D01*
X89330440Y-73675000D01*
X89330440Y-72375000D01*
X89281157Y-72127235D01*
X89140809Y-71917191D01*
X88930765Y-71776843D01*
X88683000Y-71727560D01*
X87783000Y-71727560D01*
X87535235Y-71776843D01*
X87325191Y-71917191D01*
X87184843Y-72127235D01*
X87135560Y-72375000D01*
X87135560Y-72439994D01*
X87053095Y-72495095D01*
X87012090Y-72556463D01*
X86307187Y-73261367D01*
X86262905Y-73195095D01*
X86201537Y-73154090D01*
X85603911Y-72556465D01*
X85562905Y-72495095D01*
X85480440Y-72439994D01*
X85480440Y-72375000D01*
X85431157Y-72127235D01*
X85290809Y-71917191D01*
X85080765Y-71776843D01*
X84833000Y-71727560D01*
X83933000Y-71727560D01*
X83685235Y-71776843D01*
X83475191Y-71917191D01*
X83334843Y-72127235D01*
X83285560Y-72375000D01*
X83285560Y-73675000D01*
X83334843Y-73922765D01*
X83475191Y-74132809D01*
X83685235Y-74273157D01*
X83933000Y-74322440D01*
X84833000Y-74322440D01*
X84998001Y-74289620D01*
X84998001Y-74807000D01*
X76668159Y-74807000D01*
X76580999Y-74789663D01*
X76493839Y-74807000D01*
X76493835Y-74807000D01*
X76235690Y-74858348D01*
X76235688Y-74858349D01*
X76235689Y-74858349D01*
X76016845Y-75004576D01*
X76016844Y-75004577D01*
X75942951Y-75053951D01*
X75893577Y-75127844D01*
X74619847Y-76401575D01*
X74545951Y-76450951D01*
X74350348Y-76743691D01*
X74299000Y-77001836D01*
X74299000Y-77001839D01*
X74281663Y-77089000D01*
X74299000Y-77176161D01*
X74299001Y-80933000D01*
X74010899Y-80933000D01*
X74114000Y-80684092D01*
X74114000Y-80351908D01*
X73986879Y-80045010D01*
X73751990Y-79810121D01*
X73445092Y-79683000D01*
X73112908Y-79683000D01*
X72871486Y-79783000D01*
X72632000Y-79783000D01*
X72632000Y-79503750D01*
X72473250Y-79345000D01*
X71374000Y-79345000D01*
X71374000Y-79365000D01*
X71120000Y-79365000D01*
X71120000Y-79345000D01*
X70020750Y-79345000D01*
X69862000Y-79503750D01*
X69862000Y-79844309D01*
X69876936Y-79880368D01*
X69849560Y-80018000D01*
X69849560Y-81018000D01*
X69879397Y-81168000D01*
X69849560Y-81318000D01*
X69849560Y-82318000D01*
X69898843Y-82565765D01*
X70039191Y-82775809D01*
X70105983Y-82820438D01*
X66110845Y-86815577D01*
X66036952Y-86864951D01*
X65987578Y-86938844D01*
X65987576Y-86938846D01*
X65841348Y-87157691D01*
X65772663Y-87503000D01*
X65790001Y-87590165D01*
X65790001Y-88015000D01*
X64844656Y-88015000D01*
X64720625Y-87829375D01*
X64229418Y-87501161D01*
X63796256Y-87415000D01*
X63203744Y-87415000D01*
X62770582Y-87501161D01*
X62279375Y-87829375D01*
X61951161Y-88320582D01*
X61835908Y-88900000D01*
X55710000Y-88900000D01*
X55710000Y-78591691D01*
X69862000Y-78591691D01*
X69862000Y-78932250D01*
X70020750Y-79091000D01*
X71120000Y-79091000D01*
X71120000Y-78241750D01*
X71374000Y-78241750D01*
X71374000Y-79091000D01*
X72473250Y-79091000D01*
X72632000Y-78932250D01*
X72632000Y-78591691D01*
X72535327Y-78358302D01*
X72356699Y-78179673D01*
X72123310Y-78083000D01*
X71532750Y-78083000D01*
X71374000Y-78241750D01*
X71120000Y-78241750D01*
X70961250Y-78083000D01*
X70370690Y-78083000D01*
X70137301Y-78179673D01*
X69958673Y-78358302D01*
X69862000Y-78591691D01*
X55710000Y-78591691D01*
X55710000Y-70710000D01*
X114290000Y-70710000D01*
X114290001Y-116540000D01*
X114290001Y-116540000D01*
G37*
X114290001Y-116540000D02*
X55710000Y-116540000D01*
X55710000Y-110535750D01*
X81865000Y-110535750D01*
X81865000Y-112126310D01*
X81961673Y-112359699D01*
X82140302Y-112538327D01*
X82373691Y-112635000D01*
X84114250Y-112635000D01*
X84273000Y-112476250D01*
X84273000Y-110377000D01*
X84527000Y-110377000D01*
X84527000Y-112476250D01*
X84685750Y-112635000D01*
X86426309Y-112635000D01*
X86659698Y-112538327D01*
X86838327Y-112359699D01*
X86935000Y-112126310D01*
X86935000Y-110535750D01*
X86776250Y-110377000D01*
X84527000Y-110377000D01*
X84273000Y-110377000D01*
X82023750Y-110377000D01*
X81865000Y-110535750D01*
X55710000Y-110535750D01*
X55710000Y-108373690D01*
X81865000Y-108373690D01*
X81865000Y-109964250D01*
X82023750Y-110123000D01*
X84273000Y-110123000D01*
X84273000Y-108023750D01*
X84527000Y-108023750D01*
X84527000Y-110123000D01*
X86776250Y-110123000D01*
X86935000Y-109964250D01*
X86935000Y-108373690D01*
X86838327Y-108140301D01*
X86659698Y-107961673D01*
X86426309Y-107865000D01*
X84685750Y-107865000D01*
X84527000Y-108023750D01*
X84273000Y-108023750D01*
X84114250Y-107865000D01*
X82373691Y-107865000D01*
X82140302Y-107961673D01*
X81961673Y-108140301D01*
X81865000Y-108373690D01*
X55710000Y-108373690D01*
X55710000Y-102252750D01*
X77376000Y-102252750D01*
X77376000Y-102618309D01*
X77472673Y-102851698D01*
X77651301Y-103030327D01*
X77884690Y-103127000D01*
X78200250Y-103127000D01*
X78359000Y-102968250D01*
X78359000Y-102094000D01*
X78613000Y-102094000D01*
X78613000Y-102968250D01*
X78771750Y-103127000D01*
X79087310Y-103127000D01*
X79320699Y-103030327D01*
X79499327Y-102851698D01*
X79596000Y-102618309D01*
X79596000Y-102402750D01*
X79691000Y-102402750D01*
X79691000Y-102818309D01*
X79787673Y-103051698D01*
X79966301Y-103230327D01*
X80199690Y-103327000D01*
X80740250Y-103327000D01*
X80899000Y-103168250D01*
X80899000Y-102244000D01*
X81153000Y-102244000D01*
X81153000Y-103168250D01*
X81311750Y-103327000D01*
X81852310Y-103327000D01*
X82085699Y-103230327D01*
X82264327Y-103051698D01*
X82361000Y-102818309D01*
X82361000Y-102402750D01*
X82202250Y-102244000D01*
X81153000Y-102244000D01*
X80899000Y-102244000D01*
X79849750Y-102244000D01*
X79691000Y-102402750D01*
X79596000Y-102402750D01*
X79596000Y-102252750D01*
X79437250Y-102094000D01*
X78613000Y-102094000D01*
X78359000Y-102094000D01*
X77534750Y-102094000D01*
X77376000Y-102252750D01*
X55710000Y-102252750D01*
X55710000Y-91685750D01*
X61865000Y-91685750D01*
X61865000Y-92376309D01*
X61961673Y-92609698D01*
X62140301Y-92788327D01*
X62373690Y-92885000D01*
X63214250Y-92885000D01*
X63373000Y-92726250D01*
X63373000Y-91527000D01*
X63627000Y-91527000D01*
X63627000Y-92726250D01*
X63785750Y-92885000D01*
X64626310Y-92885000D01*
X64859699Y-92788327D01*
X65038327Y-92609698D01*
X65135000Y-92376309D01*
X65135000Y-91685750D01*
X64976250Y-91527000D01*
X63627000Y-91527000D01*
X63373000Y-91527000D01*
X62023750Y-91527000D01*
X61865000Y-91685750D01*
X55710000Y-91685750D01*
X55710000Y-88900000D01*
X61835908Y-88900000D01*
X61951161Y-89479418D01*
X62270709Y-89957656D01*
X62140301Y-90011673D01*
X61961673Y-90190302D01*
X61865000Y-90423691D01*
X61865000Y-91114250D01*
X62023750Y-91273000D01*
X63373000Y-91273000D01*
X63373000Y-91253000D01*
X63627000Y-91253000D01*
X63627000Y-91273000D01*
X64976250Y-91273000D01*
X65135000Y-91114250D01*
X65135000Y-90423691D01*
X65038327Y-90190302D01*
X64859699Y-90011673D01*
X64729291Y-89957656D01*
X64844656Y-89785000D01*
X65790001Y-89785000D01*
X65790000Y-96460841D01*
X65772663Y-96548002D01*
X65790000Y-96635163D01*
X65790000Y-96635166D01*
X65841348Y-96893311D01*
X66036951Y-97186051D01*
X66110847Y-97235427D01*
X69926575Y-101051156D01*
X69975949Y-101125049D01*
X70008322Y-101146680D01*
X70025843Y-101234765D01*
X70166191Y-101444809D01*
X70376235Y-101585157D01*
X70624000Y-101634440D01*
X72124000Y-101634440D01*
X72371765Y-101585157D01*
X72581809Y-101444809D01*
X72630459Y-101372000D01*
X75856839Y-101372000D01*
X75944000Y-101389337D01*
X76031161Y-101372000D01*
X76031165Y-101372000D01*
X76289310Y-101320652D01*
X76582049Y-101125049D01*
X76597450Y-101102000D01*
X77128839Y-101102000D01*
X77216000Y-101119337D01*
X77303161Y-101102000D01*
X77464514Y-101102000D01*
X77376000Y-101315691D01*
X77376000Y-101681250D01*
X77534750Y-101840000D01*
X78359000Y-101840000D01*
X78359000Y-101820000D01*
X78613000Y-101820000D01*
X78613000Y-101840000D01*
X79437250Y-101840000D01*
X79596000Y-101681250D01*
X79596000Y-101315691D01*
X79499327Y-101082302D01*
X79428565Y-101011540D01*
X79468348Y-100952000D01*
X79891577Y-100952000D01*
X79941414Y-101026586D01*
X79942597Y-101027377D01*
X79787673Y-101182302D01*
X79691000Y-101415691D01*
X79691000Y-101831250D01*
X79849750Y-101990000D01*
X80899000Y-101990000D01*
X80899000Y-101970000D01*
X81153000Y-101970000D01*
X81153000Y-101990000D01*
X82202250Y-101990000D01*
X82361000Y-101831250D01*
X82361000Y-101415691D01*
X82264327Y-101182302D01*
X82109403Y-101027377D01*
X82110586Y-101026586D01*
X82265327Y-100795000D01*
X84207510Y-100795000D01*
X84212235Y-100798157D01*
X84460000Y-100847440D01*
X84740000Y-100847440D01*
X84802541Y-100835000D01*
X85246330Y-100835000D01*
X85258158Y-100832647D01*
X85357114Y-100873636D01*
X85335000Y-100895750D01*
X85335000Y-101086310D01*
X85431673Y-101319699D01*
X85610302Y-101498327D01*
X85843691Y-101595000D01*
X85881250Y-101595000D01*
X86040000Y-101436250D01*
X86040000Y-101428025D01*
X86110302Y-101498327D01*
X86335256Y-101591506D01*
X86338750Y-101595000D01*
X86381250Y-101595000D01*
X86384744Y-101591506D01*
X86609698Y-101498327D01*
X86680000Y-101428025D01*
X86680000Y-101436250D01*
X86838750Y-101595000D01*
X86876309Y-101595000D01*
X87109698Y-101498327D01*
X87288327Y-101319699D01*
X87385000Y-101086310D01*
X87385000Y-100895750D01*
X87362886Y-100873636D01*
X87461842Y-100832647D01*
X87473670Y-100835000D01*
X87917459Y-100835000D01*
X87980000Y-100847440D01*
X88260000Y-100847440D01*
X88507765Y-100798157D01*
X88512490Y-100795000D01*
X88777000Y-100795000D01*
X88777001Y-104074835D01*
X88759663Y-104162000D01*
X88828348Y-104507309D01*
X88974576Y-104726154D01*
X88974578Y-104726156D01*
X89023952Y-104800049D01*
X89097845Y-104849423D01*
X89812577Y-105564156D01*
X89861951Y-105638049D01*
X89935844Y-105687423D01*
X89935845Y-105687424D01*
X90085505Y-105787424D01*
X90154690Y-105833652D01*
X90412835Y-105885000D01*
X90412839Y-105885000D01*
X90500000Y-105902337D01*
X90587161Y-105885000D01*
X91215001Y-105885000D01*
X91215000Y-107852560D01*
X90200000Y-107852560D01*
X89952235Y-107901843D01*
X89742191Y-108042191D01*
X89601843Y-108252235D01*
X89552560Y-108500000D01*
X89552560Y-112000000D01*
X89601843Y-112247765D01*
X89742191Y-112457809D01*
X89952235Y-112598157D01*
X90200000Y-112647440D01*
X94000000Y-112647440D01*
X94247765Y-112598157D01*
X94457809Y-112457809D01*
X94598157Y-112247765D01*
X94647440Y-112000000D01*
X94647440Y-108500000D01*
X94598157Y-108252235D01*
X94457809Y-108042191D01*
X94247765Y-107901843D01*
X94000000Y-107852560D01*
X92985000Y-107852560D01*
X92985000Y-105885000D01*
X96246560Y-105885000D01*
X96246560Y-106050000D01*
X96295843Y-106297765D01*
X96436191Y-106507809D01*
X96646235Y-106648157D01*
X96894000Y-106697440D01*
X99194000Y-106697440D01*
X99441765Y-106648157D01*
X99651809Y-106507809D01*
X99792157Y-106297765D01*
X99841440Y-106050000D01*
X99841440Y-103916890D01*
X105088524Y-103916890D01*
X105090447Y-103929260D01*
X105341336Y-104452045D01*
X105773188Y-104839024D01*
X106320258Y-105031284D01*
X106553000Y-104887231D01*
X106553000Y-103687000D01*
X106807000Y-103687000D01*
X106807000Y-104887231D01*
X107039742Y-105031284D01*
X107586812Y-104839024D01*
X108018664Y-104452045D01*
X108269553Y-103929260D01*
X108271476Y-103916890D01*
X108150155Y-103687000D01*
X106807000Y-103687000D01*
X106553000Y-103687000D01*
X105209845Y-103687000D01*
X105088524Y-103916890D01*
X99841440Y-103916890D01*
X99841440Y-102550000D01*
X99792157Y-102302235D01*
X99651809Y-102092191D01*
X99441765Y-101951843D01*
X99194000Y-101902560D01*
X96894000Y-101902560D01*
X96646235Y-101951843D01*
X96436191Y-102092191D01*
X96295843Y-102302235D01*
X96246560Y-102550000D01*
X96246560Y-104115000D01*
X92087161Y-104115000D01*
X92000000Y-104097663D01*
X91912839Y-104115000D01*
X90866579Y-104115000D01*
X90547000Y-103795422D01*
X90547000Y-102484771D01*
X90740690Y-102565000D01*
X91281250Y-102565000D01*
X91440000Y-102406250D01*
X91440000Y-101482000D01*
X91694000Y-101482000D01*
X91694000Y-102406250D01*
X91852750Y-102565000D01*
X92393310Y-102565000D01*
X92626699Y-102468327D01*
X92805327Y-102289698D01*
X92902000Y-102056309D01*
X92902000Y-101640750D01*
X92743250Y-101482000D01*
X91694000Y-101482000D01*
X91440000Y-101482000D01*
X91420000Y-101482000D01*
X91420000Y-101228000D01*
X91440000Y-101228000D01*
X91440000Y-101208000D01*
X91694000Y-101208000D01*
X91694000Y-101228000D01*
X92743250Y-101228000D01*
X92902000Y-101069250D01*
X92902000Y-100653691D01*
X92805327Y-100420302D01*
X92650403Y-100265377D01*
X92651586Y-100264586D01*
X92701423Y-100190000D01*
X96246560Y-100190000D01*
X96246560Y-100650000D01*
X96295843Y-100897765D01*
X96436191Y-101107809D01*
X96646235Y-101248157D01*
X96894000Y-101297440D01*
X99194000Y-101297440D01*
X99441765Y-101248157D01*
X99651809Y-101107809D01*
X99792157Y-100897765D01*
X99841440Y-100650000D01*
X99841440Y-99785000D01*
X105200269Y-99785000D01*
X105081843Y-99962235D01*
X105032560Y-100210000D01*
X105032560Y-101910000D01*
X105081843Y-102157765D01*
X105222191Y-102367809D01*
X105432235Y-102508157D01*
X105503782Y-102522388D01*
X105341336Y-102667955D01*
X105090447Y-103190740D01*
X105088524Y-103203110D01*
X105209845Y-103433000D01*
X106553000Y-103433000D01*
X106553000Y-103413000D01*
X106807000Y-103413000D01*
X106807000Y-103433000D01*
X108150155Y-103433000D01*
X108271476Y-103203110D01*
X108269553Y-103190740D01*
X108018664Y-102667955D01*
X107856218Y-102522388D01*
X107927765Y-102508157D01*
X108137809Y-102367809D01*
X108278157Y-102157765D01*
X108327440Y-101910000D01*
X108327440Y-100210000D01*
X108278157Y-99962235D01*
X108137809Y-99752191D01*
X107927765Y-99611843D01*
X107680000Y-99562560D01*
X107553011Y-99562560D01*
X107513652Y-99364690D01*
X107452532Y-99273218D01*
X107367424Y-99145845D01*
X107367423Y-99145844D01*
X107318049Y-99071951D01*
X107244156Y-99022577D01*
X106557425Y-98335847D01*
X106508049Y-98261951D01*
X106215310Y-98066348D01*
X105957165Y-98015000D01*
X105957161Y-98015000D01*
X105870000Y-97997663D01*
X105782839Y-98015000D01*
X99841440Y-98015000D01*
X99841440Y-97150000D01*
X99792157Y-96902235D01*
X99651809Y-96692191D01*
X99441765Y-96551843D01*
X99194000Y-96502560D01*
X96894000Y-96502560D01*
X96646235Y-96551843D01*
X96436191Y-96692191D01*
X96295843Y-96902235D01*
X96246560Y-97150000D01*
X96246560Y-98420000D01*
X93327000Y-98420000D01*
X93327000Y-98291121D01*
X93355247Y-98272247D01*
X93547078Y-97985152D01*
X93614440Y-97646500D01*
X93614440Y-97171500D01*
X93547078Y-96832848D01*
X93355247Y-96545753D01*
X93068152Y-96353922D01*
X92833250Y-96307197D01*
X92910537Y-96229910D01*
X92971905Y-96188905D01*
X93134354Y-95945783D01*
X93177000Y-95731388D01*
X93178615Y-95723269D01*
X93355247Y-95605247D01*
X93547078Y-95318152D01*
X93614440Y-94979500D01*
X93614440Y-94504500D01*
X93547078Y-94165848D01*
X93355247Y-93878753D01*
X93318060Y-93853905D01*
X93326698Y-93850327D01*
X93505327Y-93671699D01*
X93602000Y-93438310D01*
X93602000Y-93122750D01*
X93443250Y-92964000D01*
X92569000Y-92964000D01*
X92569000Y-92984000D01*
X92315000Y-92984000D01*
X92315000Y-92964000D01*
X92295000Y-92964000D01*
X92295000Y-92710000D01*
X92315000Y-92710000D01*
X92315000Y-91885750D01*
X92569000Y-91885750D01*
X92569000Y-92710000D01*
X93443250Y-92710000D01*
X93602000Y-92551250D01*
X93602000Y-92235690D01*
X93505327Y-92002301D01*
X93326698Y-91823673D01*
X93093309Y-91727000D01*
X92727750Y-91727000D01*
X92569000Y-91885750D01*
X92315000Y-91885750D01*
X92156250Y-91727000D01*
X91790691Y-91727000D01*
X91557302Y-91823673D01*
X91486540Y-91894435D01*
X91318152Y-91781922D01*
X90979500Y-91714560D01*
X90404500Y-91714560D01*
X90065848Y-91781922D01*
X89778753Y-91973753D01*
X89586922Y-92260848D01*
X89519560Y-92599500D01*
X89519560Y-93074500D01*
X89586922Y-93413152D01*
X89778753Y-93700247D01*
X89912329Y-93789500D01*
X89778753Y-93878753D01*
X89586922Y-94165848D01*
X89583950Y-94180787D01*
X89537095Y-94212095D01*
X89496090Y-94273463D01*
X88812465Y-94957089D01*
X88751095Y-94998095D01*
X88588646Y-95241218D01*
X88546000Y-95455613D01*
X88546000Y-95455616D01*
X88531602Y-95528000D01*
X88546000Y-95600385D01*
X88546001Y-97325000D01*
X88512490Y-97325000D01*
X88507765Y-97321843D01*
X88260000Y-97272560D01*
X87980000Y-97272560D01*
X87917459Y-97285000D01*
X87473670Y-97285000D01*
X87461842Y-97287353D01*
X87362886Y-97246364D01*
X87385000Y-97224250D01*
X87385000Y-97033690D01*
X87288327Y-96800301D01*
X87109698Y-96621673D01*
X86876309Y-96525000D01*
X86838750Y-96525000D01*
X86680000Y-96683750D01*
X86680000Y-96691975D01*
X86609698Y-96621673D01*
X86384744Y-96528494D01*
X86381250Y-96525000D01*
X86338750Y-96525000D01*
X86335256Y-96528494D01*
X86110302Y-96621673D01*
X86040000Y-96691975D01*
X86040000Y-96683750D01*
X85881250Y-96525000D01*
X85843691Y-96525000D01*
X85610302Y-96621673D01*
X85431673Y-96800301D01*
X85335000Y-97033690D01*
X85335000Y-97224250D01*
X85357114Y-97246364D01*
X85258158Y-97287353D01*
X85246330Y-97285000D01*
X84802541Y-97285000D01*
X84740000Y-97272560D01*
X84460000Y-97272560D01*
X84296593Y-97305063D01*
X84244000Y-97294602D01*
X84171616Y-97309000D01*
X83920000Y-97309000D01*
X83920000Y-95822446D01*
X84894007Y-94848440D01*
X85264500Y-94848440D01*
X85603152Y-94781078D01*
X85771540Y-94668565D01*
X85842302Y-94739327D01*
X86075691Y-94836000D01*
X86441250Y-94836000D01*
X86600000Y-94677250D01*
X86600000Y-93853000D01*
X86854000Y-93853000D01*
X86854000Y-94677250D01*
X87012750Y-94836000D01*
X87378309Y-94836000D01*
X87611698Y-94739327D01*
X87790327Y-94560699D01*
X87887000Y-94327310D01*
X87887000Y-94011750D01*
X87728250Y-93853000D01*
X86854000Y-93853000D01*
X86600000Y-93853000D01*
X86580000Y-93853000D01*
X86580000Y-93599000D01*
X86600000Y-93599000D01*
X86600000Y-92774750D01*
X86854000Y-92774750D01*
X86854000Y-93599000D01*
X87728250Y-93599000D01*
X87887000Y-93440250D01*
X87887000Y-93124690D01*
X87790327Y-92891301D01*
X87611698Y-92712673D01*
X87378309Y-92616000D01*
X87012750Y-92616000D01*
X86854000Y-92774750D01*
X86600000Y-92774750D01*
X86441250Y-92616000D01*
X86075691Y-92616000D01*
X85842302Y-92712673D01*
X85771540Y-92783435D01*
X85603152Y-92670922D01*
X85264500Y-92603560D01*
X84689500Y-92603560D01*
X84350848Y-92670922D01*
X84063753Y-92862753D01*
X83871922Y-93149848D01*
X83804560Y-93488500D01*
X83804560Y-93858993D01*
X82716463Y-94947091D01*
X82655096Y-94988095D01*
X82614092Y-95049462D01*
X82614091Y-95049463D01*
X82492646Y-95231218D01*
X82435602Y-95518000D01*
X82450001Y-95590389D01*
X82450000Y-97350496D01*
X82241388Y-97309000D01*
X82241384Y-97309000D01*
X82169000Y-97294602D01*
X82096616Y-97309000D01*
X82008348Y-97309000D01*
X81968565Y-97249460D01*
X82039327Y-97178698D01*
X82136000Y-96945309D01*
X82136000Y-96579750D01*
X81977250Y-96421000D01*
X81153000Y-96421000D01*
X81153000Y-96441000D01*
X80899000Y-96441000D01*
X80899000Y-96421000D01*
X80074750Y-96421000D01*
X79916000Y-96579750D01*
X79916000Y-96945309D01*
X80012673Y-97178698D01*
X80083435Y-97249460D01*
X80043652Y-97309000D01*
X79992939Y-97309000D01*
X79907247Y-97180753D01*
X79620152Y-96988922D01*
X79281500Y-96921560D01*
X78706500Y-96921560D01*
X78367848Y-96988922D01*
X78119000Y-97155197D01*
X77870152Y-96988922D01*
X77531500Y-96921560D01*
X76956500Y-96921560D01*
X76617848Y-96988922D01*
X76330753Y-97180753D01*
X76138922Y-97467848D01*
X76071560Y-97806500D01*
X76071560Y-98281500D01*
X76138922Y-98620152D01*
X76330753Y-98907247D01*
X76359000Y-98926121D01*
X76359001Y-99332000D01*
X76301161Y-99332000D01*
X76214000Y-99314663D01*
X76126839Y-99332000D01*
X76126835Y-99332000D01*
X75868690Y-99383348D01*
X75575951Y-99578951D01*
X75560550Y-99602000D01*
X74044869Y-99602000D01*
X74113879Y-99532990D01*
X74241000Y-99226092D01*
X74241000Y-98893908D01*
X74113879Y-98587010D01*
X73878990Y-98352121D01*
X73572092Y-98225000D01*
X73239908Y-98225000D01*
X72998486Y-98325000D01*
X72759000Y-98325000D01*
X72759000Y-98172750D01*
X72600250Y-98014000D01*
X71501000Y-98014000D01*
X71501000Y-98034000D01*
X71247000Y-98034000D01*
X71247000Y-98014000D01*
X70147750Y-98014000D01*
X69989000Y-98172750D01*
X69989000Y-98513309D01*
X70003936Y-98549368D01*
X69991329Y-98612752D01*
X68639268Y-97260691D01*
X69989000Y-97260691D01*
X69989000Y-97601250D01*
X70147750Y-97760000D01*
X71247000Y-97760000D01*
X71247000Y-96910750D01*
X71501000Y-96910750D01*
X71501000Y-97760000D01*
X72600250Y-97760000D01*
X72759000Y-97601250D01*
X72759000Y-97260691D01*
X72662327Y-97027302D01*
X72483699Y-96848673D01*
X72250310Y-96752000D01*
X71659750Y-96752000D01*
X71501000Y-96910750D01*
X71247000Y-96910750D01*
X71088250Y-96752000D01*
X70497690Y-96752000D01*
X70264301Y-96848673D01*
X70085673Y-97027302D01*
X69989000Y-97260691D01*
X68639268Y-97260691D01*
X67560000Y-96181424D01*
X67560000Y-95642691D01*
X79916000Y-95642691D01*
X79916000Y-96008250D01*
X80074750Y-96167000D01*
X80899000Y-96167000D01*
X80899000Y-95292750D01*
X81153000Y-95292750D01*
X81153000Y-96167000D01*
X81977250Y-96167000D01*
X82136000Y-96008250D01*
X82136000Y-95642691D01*
X82039327Y-95409302D01*
X81860699Y-95230673D01*
X81627310Y-95134000D01*
X81311750Y-95134000D01*
X81153000Y-95292750D01*
X80899000Y-95292750D01*
X80740250Y-95134000D01*
X80424690Y-95134000D01*
X80191301Y-95230673D01*
X80012673Y-95409302D01*
X79916000Y-95642691D01*
X67560000Y-95642691D01*
X67560000Y-88987164D01*
X67577338Y-88900000D01*
X67560000Y-88812835D01*
X67560000Y-87869578D01*
X71811156Y-83618423D01*
X71885049Y-83569049D01*
X72080652Y-83276310D01*
X72132000Y-83018165D01*
X72132000Y-83018161D01*
X72148480Y-82935309D01*
X72244765Y-82916157D01*
X72454809Y-82775809D01*
X72503459Y-82703000D01*
X75096836Y-82703000D01*
X75184000Y-82720338D01*
X75271165Y-82703000D01*
X76763839Y-82703000D01*
X76851000Y-82720337D01*
X76938161Y-82703000D01*
X76938165Y-82703000D01*
X77196310Y-82651652D01*
X77489049Y-82456049D01*
X77538425Y-82382153D01*
X77779003Y-82141575D01*
X77994500Y-82184440D01*
X78469500Y-82184440D01*
X78808152Y-82117078D01*
X78899562Y-82056000D01*
X79891577Y-82056000D01*
X79941414Y-82130586D01*
X80232564Y-82325127D01*
X80575999Y-82393440D01*
X80996861Y-82393440D01*
X81085217Y-82481796D01*
X81085220Y-82481798D01*
X81844577Y-83241156D01*
X81893951Y-83315049D01*
X81967844Y-83364423D01*
X81967845Y-83364424D01*
X82078880Y-83438615D01*
X82186690Y-83510652D01*
X82444835Y-83562000D01*
X82444839Y-83562000D01*
X82531999Y-83579337D01*
X82619159Y-83562000D01*
X85002839Y-83562000D01*
X85090000Y-83579337D01*
X85177161Y-83562000D01*
X85177165Y-83562000D01*
X85435310Y-83510652D01*
X85728049Y-83315049D01*
X85777425Y-83241154D01*
X86091579Y-82927000D01*
X86320165Y-82927000D01*
X86578310Y-82875652D01*
X86871049Y-82680049D01*
X87066652Y-82387310D01*
X87135338Y-82042000D01*
X87128046Y-82005340D01*
X87176612Y-82015000D01*
X87176615Y-82015000D01*
X87248999Y-82029398D01*
X87321383Y-82015000D01*
X88407048Y-82015000D01*
X88554690Y-82113652D01*
X88812835Y-82165000D01*
X90989839Y-82165000D01*
X91077000Y-82182337D01*
X91164161Y-82165000D01*
X91164165Y-82165000D01*
X91422310Y-82113652D01*
X91715049Y-81918049D01*
X91764425Y-81844153D01*
X91850138Y-81758440D01*
X92271001Y-81758440D01*
X92614436Y-81690127D01*
X92753974Y-81596890D01*
X105088524Y-81596890D01*
X105090447Y-81609260D01*
X105341336Y-82132045D01*
X105773188Y-82519024D01*
X106320258Y-82711284D01*
X106553000Y-82567231D01*
X106553000Y-81367000D01*
X106807000Y-81367000D01*
X106807000Y-82567231D01*
X107039742Y-82711284D01*
X107586812Y-82519024D01*
X108018664Y-82132045D01*
X108269553Y-81609260D01*
X108271476Y-81596890D01*
X108150155Y-81367000D01*
X106807000Y-81367000D01*
X106553000Y-81367000D01*
X105209845Y-81367000D01*
X105088524Y-81596890D01*
X92753974Y-81596890D01*
X92905586Y-81495586D01*
X92955423Y-81421000D01*
X93820438Y-81421000D01*
X93911848Y-81482078D01*
X94250500Y-81549440D01*
X94725500Y-81549440D01*
X95064152Y-81482078D01*
X95351247Y-81290247D01*
X95370121Y-81262000D01*
X97589839Y-81262000D01*
X97677000Y-81279337D01*
X97764161Y-81262000D01*
X97764165Y-81262000D01*
X98022310Y-81210652D01*
X98315049Y-81015049D01*
X98364425Y-80941153D01*
X99680579Y-79625000D01*
X105039522Y-79625000D01*
X105081843Y-79837765D01*
X105222191Y-80047809D01*
X105432235Y-80188157D01*
X105503782Y-80202388D01*
X105341336Y-80347955D01*
X105090447Y-80870740D01*
X105088524Y-80883110D01*
X105209845Y-81113000D01*
X106553000Y-81113000D01*
X106553000Y-81093000D01*
X106807000Y-81093000D01*
X106807000Y-81113000D01*
X108150155Y-81113000D01*
X108271476Y-80883110D01*
X108269553Y-80870740D01*
X108018664Y-80347955D01*
X107856218Y-80202388D01*
X107927765Y-80188157D01*
X108137809Y-80047809D01*
X108278157Y-79837765D01*
X108327440Y-79590000D01*
X108327440Y-77890000D01*
X108278157Y-77642235D01*
X108137809Y-77432191D01*
X107927765Y-77291843D01*
X107680000Y-77242560D01*
X105680000Y-77242560D01*
X105432235Y-77291843D01*
X105222191Y-77432191D01*
X105081843Y-77642235D01*
X105039522Y-77855000D01*
X99401161Y-77855000D01*
X99314000Y-77837663D01*
X99226839Y-77855000D01*
X99226835Y-77855000D01*
X98995702Y-77900975D01*
X98968690Y-77906348D01*
X98749845Y-78052576D01*
X98749844Y-78052577D01*
X98675951Y-78101951D01*
X98626577Y-78175844D01*
X97310422Y-79492000D01*
X95509486Y-79492000D01*
X95598000Y-79278309D01*
X95598000Y-78912750D01*
X95439250Y-78754000D01*
X94615000Y-78754000D01*
X94615000Y-78774000D01*
X94361000Y-78774000D01*
X94361000Y-78754000D01*
X93536750Y-78754000D01*
X93378000Y-78912750D01*
X93378000Y-79278309D01*
X93474673Y-79511698D01*
X93545435Y-79582460D01*
X93499638Y-79651000D01*
X92955423Y-79651000D01*
X92905586Y-79576414D01*
X92904403Y-79575623D01*
X93059327Y-79420698D01*
X93156000Y-79187309D01*
X93156000Y-78771750D01*
X92997250Y-78613000D01*
X91948000Y-78613000D01*
X91948000Y-78633000D01*
X91694000Y-78633000D01*
X91694000Y-78613000D01*
X91674000Y-78613000D01*
X91674000Y-78359000D01*
X91694000Y-78359000D01*
X91694000Y-77434750D01*
X91948000Y-77434750D01*
X91948000Y-78359000D01*
X92997250Y-78359000D01*
X93156000Y-78200250D01*
X93156000Y-77975691D01*
X93378000Y-77975691D01*
X93378000Y-78341250D01*
X93536750Y-78500000D01*
X94361000Y-78500000D01*
X94361000Y-77625750D01*
X94615000Y-77625750D01*
X94615000Y-78500000D01*
X95439250Y-78500000D01*
X95598000Y-78341250D01*
X95598000Y-77975691D01*
X95501327Y-77742302D01*
X95322699Y-77563673D01*
X95089310Y-77467000D01*
X94773750Y-77467000D01*
X94615000Y-77625750D01*
X94361000Y-77625750D01*
X94202250Y-77467000D01*
X93886690Y-77467000D01*
X93653301Y-77563673D01*
X93474673Y-77742302D01*
X93378000Y-77975691D01*
X93156000Y-77975691D01*
X93156000Y-77784691D01*
X93059327Y-77551302D01*
X92880699Y-77372673D01*
X92647310Y-77276000D01*
X92106750Y-77276000D01*
X91948000Y-77434750D01*
X91694000Y-77434750D01*
X91535250Y-77276000D01*
X91160071Y-77276000D01*
X91159000Y-77270613D01*
X91159000Y-77270612D01*
X91116354Y-77056217D01*
X90953905Y-76813095D01*
X90892538Y-76772091D01*
X89470911Y-75350465D01*
X89429905Y-75289095D01*
X89186783Y-75126646D01*
X88972388Y-75084000D01*
X88972384Y-75084000D01*
X88900000Y-75069602D01*
X88827616Y-75084000D01*
X87468000Y-75084000D01*
X87468000Y-74228232D01*
X87535235Y-74273157D01*
X87783000Y-74322440D01*
X88683000Y-74322440D01*
X88930765Y-74273157D01*
X89140809Y-74132809D01*
X89281157Y-73922765D01*
X89330440Y-73675000D01*
X89330440Y-72375000D01*
X89281157Y-72127235D01*
X89140809Y-71917191D01*
X88930765Y-71776843D01*
X88683000Y-71727560D01*
X87783000Y-71727560D01*
X87535235Y-71776843D01*
X87325191Y-71917191D01*
X87184843Y-72127235D01*
X87135560Y-72375000D01*
X87135560Y-72439994D01*
X87053095Y-72495095D01*
X87012090Y-72556463D01*
X86307187Y-73261367D01*
X86262905Y-73195095D01*
X86201537Y-73154090D01*
X85603911Y-72556465D01*
X85562905Y-72495095D01*
X85480440Y-72439994D01*
X85480440Y-72375000D01*
X85431157Y-72127235D01*
X85290809Y-71917191D01*
X85080765Y-71776843D01*
X84833000Y-71727560D01*
X83933000Y-71727560D01*
X83685235Y-71776843D01*
X83475191Y-71917191D01*
X83334843Y-72127235D01*
X83285560Y-72375000D01*
X83285560Y-73675000D01*
X83334843Y-73922765D01*
X83475191Y-74132809D01*
X83685235Y-74273157D01*
X83933000Y-74322440D01*
X84833000Y-74322440D01*
X84998001Y-74289620D01*
X84998001Y-74807000D01*
X76668159Y-74807000D01*
X76580999Y-74789663D01*
X76493839Y-74807000D01*
X76493835Y-74807000D01*
X76235690Y-74858348D01*
X76235688Y-74858349D01*
X76235689Y-74858349D01*
X76016845Y-75004576D01*
X76016844Y-75004577D01*
X75942951Y-75053951D01*
X75893577Y-75127844D01*
X74619847Y-76401575D01*
X74545951Y-76450951D01*
X74350348Y-76743691D01*
X74299000Y-77001836D01*
X74299000Y-77001839D01*
X74281663Y-77089000D01*
X74299000Y-77176161D01*
X74299001Y-80933000D01*
X74010899Y-80933000D01*
X74114000Y-80684092D01*
X74114000Y-80351908D01*
X73986879Y-80045010D01*
X73751990Y-79810121D01*
X73445092Y-79683000D01*
X73112908Y-79683000D01*
X72871486Y-79783000D01*
X72632000Y-79783000D01*
X72632000Y-79503750D01*
X72473250Y-79345000D01*
X71374000Y-79345000D01*
X71374000Y-79365000D01*
X71120000Y-79365000D01*
X71120000Y-79345000D01*
X70020750Y-79345000D01*
X69862000Y-79503750D01*
X69862000Y-79844309D01*
X69876936Y-79880368D01*
X69849560Y-80018000D01*
X69849560Y-81018000D01*
X69879397Y-81168000D01*
X69849560Y-81318000D01*
X69849560Y-82318000D01*
X69898843Y-82565765D01*
X70039191Y-82775809D01*
X70105983Y-82820438D01*
X66110845Y-86815577D01*
X66036952Y-86864951D01*
X65987578Y-86938844D01*
X65987576Y-86938846D01*
X65841348Y-87157691D01*
X65772663Y-87503000D01*
X65790001Y-87590165D01*
X65790001Y-88015000D01*
X64844656Y-88015000D01*
X64720625Y-87829375D01*
X64229418Y-87501161D01*
X63796256Y-87415000D01*
X63203744Y-87415000D01*
X62770582Y-87501161D01*
X62279375Y-87829375D01*
X61951161Y-88320582D01*
X61835908Y-88900000D01*
X55710000Y-88900000D01*
X55710000Y-78591691D01*
X69862000Y-78591691D01*
X69862000Y-78932250D01*
X70020750Y-79091000D01*
X71120000Y-79091000D01*
X71120000Y-78241750D01*
X71374000Y-78241750D01*
X71374000Y-79091000D01*
X72473250Y-79091000D01*
X72632000Y-78932250D01*
X72632000Y-78591691D01*
X72535327Y-78358302D01*
X72356699Y-78179673D01*
X72123310Y-78083000D01*
X71532750Y-78083000D01*
X71374000Y-78241750D01*
X71120000Y-78241750D01*
X70961250Y-78083000D01*
X70370690Y-78083000D01*
X70137301Y-78179673D01*
X69958673Y-78358302D01*
X69862000Y-78591691D01*
X55710000Y-78591691D01*
X55710000Y-70710000D01*
X114290000Y-70710000D01*
X114290001Y-116540000D01*
G36*
X84498000Y-76587510D02*
X84494843Y-76592235D01*
X84445560Y-76840000D01*
X84445560Y-77120000D01*
X84458000Y-77182541D01*
X84458000Y-77626329D01*
X84460353Y-77638158D01*
X84419364Y-77737114D01*
X84397250Y-77715000D01*
X84206690Y-77715000D01*
X83973301Y-77811673D01*
X83794673Y-77990302D01*
X83698000Y-78223691D01*
X83698000Y-78261250D01*
X83856750Y-78420000D01*
X83864975Y-78420000D01*
X83794673Y-78490302D01*
X83701494Y-78715256D01*
X83698000Y-78718750D01*
X83698000Y-78761250D01*
X83701494Y-78764744D01*
X83794673Y-78989698D01*
X83864975Y-79060000D01*
X83856750Y-79060000D01*
X83698000Y-79218750D01*
X83698000Y-79256309D01*
X83794673Y-79489698D01*
X83973301Y-79668327D01*
X84206690Y-79765000D01*
X84397250Y-79765000D01*
X84419364Y-79742886D01*
X84460353Y-79841842D01*
X84458000Y-79853670D01*
X84458000Y-80297459D01*
X84445560Y-80360000D01*
X84445560Y-80640000D01*
X84482557Y-80826000D01*
X84415908Y-80826000D01*
X84109010Y-80953121D01*
X83874121Y-81188010D01*
X83747000Y-81494908D01*
X83747000Y-81792000D01*
X82898579Y-81792000D01*
X82373440Y-81266862D01*
X82373440Y-80845999D01*
X82305127Y-80502564D01*
X82110586Y-80211414D01*
X82109403Y-80210623D01*
X82264327Y-80055698D01*
X82361000Y-79822309D01*
X82361000Y-79406750D01*
X82202250Y-79248000D01*
X81153000Y-79248000D01*
X81153000Y-79268000D01*
X80899000Y-79268000D01*
X80899000Y-79248000D01*
X79849750Y-79248000D01*
X79691000Y-79406750D01*
X79691000Y-79822309D01*
X79787673Y-80055698D01*
X79942597Y-80210623D01*
X79941414Y-80211414D01*
X79891577Y-80286000D01*
X79220362Y-80286000D01*
X79174565Y-80217460D01*
X79245327Y-80146698D01*
X79342000Y-79913309D01*
X79342000Y-79547750D01*
X79183250Y-79389000D01*
X78359000Y-79389000D01*
X78359000Y-79409000D01*
X78105000Y-79409000D01*
X78105000Y-79389000D01*
X77280750Y-79389000D01*
X77122000Y-79547750D01*
X77122000Y-79913309D01*
X77218673Y-80146698D01*
X77274903Y-80202928D01*
X77228864Y-80233691D01*
X77092845Y-80324576D01*
X77092844Y-80324577D01*
X77018951Y-80373951D01*
X76969577Y-80447844D01*
X76484422Y-80933000D01*
X76069000Y-80933000D01*
X76069000Y-78610691D01*
X77122000Y-78610691D01*
X77122000Y-78976250D01*
X77280750Y-79135000D01*
X78105000Y-79135000D01*
X78105000Y-78260750D01*
X78359000Y-78260750D01*
X78359000Y-79135000D01*
X79183250Y-79135000D01*
X79342000Y-78976250D01*
X79342000Y-78610691D01*
X79262886Y-78419691D01*
X79691000Y-78419691D01*
X79691000Y-78835250D01*
X79849750Y-78994000D01*
X80899000Y-78994000D01*
X80899000Y-78069750D01*
X81153000Y-78069750D01*
X81153000Y-78994000D01*
X82202250Y-78994000D01*
X82361000Y-78835250D01*
X82361000Y-78419691D01*
X82264327Y-78186302D01*
X82085699Y-78007673D01*
X81852310Y-77911000D01*
X81311750Y-77911000D01*
X81153000Y-78069750D01*
X80899000Y-78069750D01*
X80740250Y-77911000D01*
X80199690Y-77911000D01*
X79966301Y-78007673D01*
X79787673Y-78186302D01*
X79691000Y-78419691D01*
X79262886Y-78419691D01*
X79245327Y-78377302D01*
X79066699Y-78198673D01*
X78833310Y-78102000D01*
X78517750Y-78102000D01*
X78359000Y-78260750D01*
X78105000Y-78260750D01*
X77946250Y-78102000D01*
X77630690Y-78102000D01*
X77397301Y-78198673D01*
X77218673Y-78377302D01*
X77122000Y-78610691D01*
X76069000Y-78610691D01*
X76069000Y-77455578D01*
X76947579Y-76577000D01*
X84498000Y-76577000D01*
X84498000Y-76587510D01*
X84498000Y-76587510D01*
G37*
X84498000Y-76587510D02*
X84494843Y-76592235D01*
X84445560Y-76840000D01*
X84445560Y-77120000D01*
X84458000Y-77182541D01*
X84458000Y-77626329D01*
X84460353Y-77638158D01*
X84419364Y-77737114D01*
X84397250Y-77715000D01*
X84206690Y-77715000D01*
X83973301Y-77811673D01*
X83794673Y-77990302D01*
X83698000Y-78223691D01*
X83698000Y-78261250D01*
X83856750Y-78420000D01*
X83864975Y-78420000D01*
X83794673Y-78490302D01*
X83701494Y-78715256D01*
X83698000Y-78718750D01*
X83698000Y-78761250D01*
X83701494Y-78764744D01*
X83794673Y-78989698D01*
X83864975Y-79060000D01*
X83856750Y-79060000D01*
X83698000Y-79218750D01*
X83698000Y-79256309D01*
X83794673Y-79489698D01*
X83973301Y-79668327D01*
X84206690Y-79765000D01*
X84397250Y-79765000D01*
X84419364Y-79742886D01*
X84460353Y-79841842D01*
X84458000Y-79853670D01*
X84458000Y-80297459D01*
X84445560Y-80360000D01*
X84445560Y-80640000D01*
X84482557Y-80826000D01*
X84415908Y-80826000D01*
X84109010Y-80953121D01*
X83874121Y-81188010D01*
X83747000Y-81494908D01*
X83747000Y-81792000D01*
X82898579Y-81792000D01*
X82373440Y-81266862D01*
X82373440Y-80845999D01*
X82305127Y-80502564D01*
X82110586Y-80211414D01*
X82109403Y-80210623D01*
X82264327Y-80055698D01*
X82361000Y-79822309D01*
X82361000Y-79406750D01*
X82202250Y-79248000D01*
X81153000Y-79248000D01*
X81153000Y-79268000D01*
X80899000Y-79268000D01*
X80899000Y-79248000D01*
X79849750Y-79248000D01*
X79691000Y-79406750D01*
X79691000Y-79822309D01*
X79787673Y-80055698D01*
X79942597Y-80210623D01*
X79941414Y-80211414D01*
X79891577Y-80286000D01*
X79220362Y-80286000D01*
X79174565Y-80217460D01*
X79245327Y-80146698D01*
X79342000Y-79913309D01*
X79342000Y-79547750D01*
X79183250Y-79389000D01*
X78359000Y-79389000D01*
X78359000Y-79409000D01*
X78105000Y-79409000D01*
X78105000Y-79389000D01*
X77280750Y-79389000D01*
X77122000Y-79547750D01*
X77122000Y-79913309D01*
X77218673Y-80146698D01*
X77274903Y-80202928D01*
X77228864Y-80233691D01*
X77092845Y-80324576D01*
X77092844Y-80324577D01*
X77018951Y-80373951D01*
X76969577Y-80447844D01*
X76484422Y-80933000D01*
X76069000Y-80933000D01*
X76069000Y-78610691D01*
X77122000Y-78610691D01*
X77122000Y-78976250D01*
X77280750Y-79135000D01*
X78105000Y-79135000D01*
X78105000Y-78260750D01*
X78359000Y-78260750D01*
X78359000Y-79135000D01*
X79183250Y-79135000D01*
X79342000Y-78976250D01*
X79342000Y-78610691D01*
X79262886Y-78419691D01*
X79691000Y-78419691D01*
X79691000Y-78835250D01*
X79849750Y-78994000D01*
X80899000Y-78994000D01*
X80899000Y-78069750D01*
X81153000Y-78069750D01*
X81153000Y-78994000D01*
X82202250Y-78994000D01*
X82361000Y-78835250D01*
X82361000Y-78419691D01*
X82264327Y-78186302D01*
X82085699Y-78007673D01*
X81852310Y-77911000D01*
X81311750Y-77911000D01*
X81153000Y-78069750D01*
X80899000Y-78069750D01*
X80740250Y-77911000D01*
X80199690Y-77911000D01*
X79966301Y-78007673D01*
X79787673Y-78186302D01*
X79691000Y-78419691D01*
X79262886Y-78419691D01*
X79245327Y-78377302D01*
X79066699Y-78198673D01*
X78833310Y-78102000D01*
X78517750Y-78102000D01*
X78359000Y-78260750D01*
X78105000Y-78260750D01*
X77946250Y-78102000D01*
X77630690Y-78102000D01*
X77397301Y-78198673D01*
X77218673Y-78377302D01*
X77122000Y-78610691D01*
X76069000Y-78610691D01*
X76069000Y-77455578D01*
X76947579Y-76577000D01*
X84498000Y-76577000D01*
X84498000Y-76587510D01*
G36*
X89689000Y-77647447D02*
X89689001Y-80395000D01*
X88812835Y-80395000D01*
X88554690Y-80446348D01*
X88407048Y-80545000D01*
X88020440Y-80545000D01*
X88020440Y-80360000D01*
X88008000Y-80297459D01*
X88008000Y-79853670D01*
X88005647Y-79841842D01*
X88046636Y-79742886D01*
X88068750Y-79765000D01*
X88259310Y-79765000D01*
X88492699Y-79668327D01*
X88671327Y-79489698D01*
X88768000Y-79256309D01*
X88768000Y-79218750D01*
X88609250Y-79060000D01*
X88601025Y-79060000D01*
X88671327Y-78989698D01*
X88764506Y-78764744D01*
X88768000Y-78761250D01*
X88768000Y-78718750D01*
X88764506Y-78715256D01*
X88671327Y-78490302D01*
X88601025Y-78420000D01*
X88609250Y-78420000D01*
X88768000Y-78261250D01*
X88768000Y-78223691D01*
X88671327Y-77990302D01*
X88492699Y-77811673D01*
X88259310Y-77715000D01*
X88068750Y-77715000D01*
X88046636Y-77737114D01*
X88005647Y-77638158D01*
X88008000Y-77626330D01*
X88008000Y-77182541D01*
X88020440Y-77120000D01*
X88020440Y-76840000D01*
X87971157Y-76592235D01*
X87968000Y-76587510D01*
X87968000Y-76554000D01*
X88595554Y-76554000D01*
X89689000Y-77647447D01*
X89689000Y-77647447D01*
G37*
X89689000Y-77647447D02*
X89689001Y-80395000D01*
X88812835Y-80395000D01*
X88554690Y-80446348D01*
X88407048Y-80545000D01*
X88020440Y-80545000D01*
X88020440Y-80360000D01*
X88008000Y-80297459D01*
X88008000Y-79853670D01*
X88005647Y-79841842D01*
X88046636Y-79742886D01*
X88068750Y-79765000D01*
X88259310Y-79765000D01*
X88492699Y-79668327D01*
X88671327Y-79489698D01*
X88768000Y-79256309D01*
X88768000Y-79218750D01*
X88609250Y-79060000D01*
X88601025Y-79060000D01*
X88671327Y-78989698D01*
X88764506Y-78764744D01*
X88768000Y-78761250D01*
X88768000Y-78718750D01*
X88764506Y-78715256D01*
X88671327Y-78490302D01*
X88601025Y-78420000D01*
X88609250Y-78420000D01*
X88768000Y-78261250D01*
X88768000Y-78223691D01*
X88671327Y-77990302D01*
X88492699Y-77811673D01*
X88259310Y-77715000D01*
X88068750Y-77715000D01*
X88046636Y-77737114D01*
X88005647Y-77638158D01*
X88008000Y-77626330D01*
X88008000Y-77182541D01*
X88020440Y-77120000D01*
X88020440Y-76840000D01*
X87971157Y-76592235D01*
X87968000Y-76587510D01*
X87968000Y-76554000D01*
X88595554Y-76554000D01*
X89689000Y-77647447D01*
G04 #@! TD*
M02*
