G04 #@! TF.GenerationSoftware,KiCad,Pcbnew,(5.0.0)*
G04 #@! TF.CreationDate,2019-04-27T15:16:20+09:00*
G04 #@! TF.ProjectId,Power_supply_circuit,506F7765725F737570706C795F636972,rev?*
G04 #@! TF.SameCoordinates,Original*
G04 #@! TF.FileFunction,Copper,L2,Bot,Signal*
G04 #@! TF.FilePolarity,Positive*
%FSLAX46Y46*%
G04 Gerber Fmt 4.6, Leading zero omitted, Abs format (unit mm)*
G04 Created by KiCad (PCBNEW (5.0.0)) date 04/27/19 15:16:20*
%MOMM*%
%LPD*%
G01*
G04 APERTURE LIST*
G04 #@! TA.AperFunction,ComponentPad*
%ADD10R,2.000000X1.700000*%
G04 #@! TD*
G04 #@! TA.AperFunction,ComponentPad*
%ADD11O,2.000000X1.700000*%
G04 #@! TD*
G04 #@! TA.AperFunction,Conductor*
%ADD12R,2.800000X2.300000*%
G04 #@! TD*
G04 #@! TA.AperFunction,ComponentPad*
%ADD13C,0.600000*%
G04 #@! TD*
G04 #@! TA.AperFunction,Conductor*
%ADD14R,2.300000X2.800000*%
G04 #@! TD*
G04 #@! TA.AperFunction,ViaPad*
%ADD15C,0.400000*%
G04 #@! TD*
G04 #@! TA.AperFunction,Conductor*
%ADD16C,0.200000*%
G04 #@! TD*
G04 #@! TA.AperFunction,Conductor*
%ADD17C,0.254000*%
G04 #@! TD*
G04 APERTURE END LIST*
D10*
G04 #@! TO.P,J3,1*
G04 #@! TO.N,-3V3*
X106680000Y-101060000D03*
D11*
G04 #@! TO.P,J3,2*
G04 #@! TO.N,GND*
X106680000Y-103560000D03*
G04 #@! TD*
G04 #@! TO.P,J1,2*
G04 #@! TO.N,GND*
X106680000Y-81240000D03*
D10*
G04 #@! TO.P,J1,1*
G04 #@! TO.N,+3V3*
X106680000Y-78740000D03*
G04 #@! TD*
G04 #@! TO.P,J2,1*
G04 #@! TO.N,GND*
X63500000Y-91400000D03*
D11*
G04 #@! TO.P,J2,2*
G04 #@! TO.N,+BATT*
X63500000Y-88900000D03*
G04 #@! TD*
D12*
G04 #@! TO.N,GND*
G04 #@! TO.C,U1*
X86233000Y-78740000D03*
D13*
G04 #@! TD*
G04 #@! TO.P,U1,11*
G04 #@! TO.N,GND*
X85483000Y-78240000D03*
G04 #@! TO.P,U1,11*
G04 #@! TO.N,GND*
X86983000Y-78240000D03*
X86983000Y-79240000D03*
X86233000Y-78740000D03*
X85483000Y-79240000D03*
G04 #@! TD*
G04 #@! TO.P,U2,11*
G04 #@! TO.N,GND*
X86860000Y-99810000D03*
X86360000Y-99060000D03*
X86860000Y-98310000D03*
X85860000Y-98310000D03*
X85860000Y-99810000D03*
D14*
G04 #@! TD*
G04 #@! TO.N,GND*
G04 #@! TO.C,U2*
X86360000Y-99060000D03*
D15*
G04 #@! TO.N,GND*
X90373200Y-73050400D03*
X81915000Y-72644000D03*
X83189000Y-78490000D03*
X83185000Y-78990000D03*
X89408000Y-78994000D03*
X89408000Y-78486000D03*
X96393000Y-78740000D03*
X83439000Y-98552000D03*
X86610000Y-95635000D03*
X86110000Y-102231000D03*
X86610000Y-102231000D03*
X90043000Y-99568000D03*
X93345000Y-101346000D03*
X79629000Y-79121000D03*
X86110000Y-95656400D03*
X71374000Y-91440000D03*
X57500000Y-72500000D03*
X57500000Y-75000000D03*
X57500000Y-77500000D03*
X57500000Y-80000000D03*
X57500000Y-82500000D03*
X57500000Y-85000000D03*
X57500000Y-87500000D03*
X57500000Y-90000000D03*
X57500000Y-92500000D03*
X57500000Y-95000000D03*
X57500000Y-97500000D03*
X57500000Y-100000000D03*
X57500000Y-102500000D03*
X57500000Y-105000000D03*
X57500000Y-107500000D03*
X57500000Y-110000000D03*
X57500000Y-112500000D03*
X57500000Y-115000000D03*
X60000000Y-115000000D03*
X65000000Y-115000000D03*
X62500000Y-115000000D03*
X67500000Y-115000000D03*
X70000000Y-115000000D03*
X72500000Y-115000000D03*
X75000000Y-115000000D03*
X80000000Y-115000000D03*
X77500000Y-115000000D03*
X82500000Y-115000000D03*
X87500000Y-115000000D03*
X85000000Y-115000000D03*
X90000000Y-115000000D03*
X92500000Y-115000000D03*
X95000000Y-115000000D03*
X97500000Y-115000000D03*
X100000000Y-115000000D03*
X102500000Y-115000000D03*
X105000000Y-115000000D03*
X107500000Y-115000000D03*
X110000000Y-115000000D03*
X112500000Y-115000000D03*
X112500000Y-112500000D03*
X112500000Y-110000000D03*
X112500000Y-107500000D03*
X112500000Y-105000000D03*
X112500000Y-102500000D03*
X112500000Y-100000000D03*
X112500000Y-97500000D03*
X112500000Y-95000000D03*
X112500000Y-92500000D03*
X112500000Y-90000000D03*
X112500000Y-87500000D03*
X112500000Y-85000000D03*
X112500000Y-82500000D03*
X112500000Y-80000000D03*
X112500000Y-77500000D03*
X112500000Y-75000000D03*
X112500000Y-72500000D03*
X110000000Y-72500000D03*
X107500000Y-72500000D03*
X105000000Y-72500000D03*
X105000000Y-72500000D03*
X105000000Y-72500000D03*
X102500000Y-72500000D03*
X100000000Y-72500000D03*
X97500000Y-72500000D03*
X95000000Y-72500000D03*
X92500000Y-72500000D03*
X80000000Y-72644000D03*
X77500000Y-72644000D03*
X75000000Y-72644000D03*
X72500000Y-72644000D03*
X72500000Y-72644000D03*
X70000000Y-72644000D03*
X67500000Y-72644000D03*
X65000000Y-72500000D03*
X62500000Y-72500000D03*
X60000000Y-72500000D03*
X110000000Y-87500000D03*
X107500000Y-87500000D03*
X105000000Y-87500000D03*
X102500000Y-87500000D03*
X100000000Y-87500000D03*
X97500000Y-87500000D03*
X92500000Y-87500000D03*
X90000000Y-87500000D03*
X87500000Y-87500000D03*
X85000000Y-87500000D03*
X82500000Y-87500000D03*
X95000000Y-87500000D03*
X80000000Y-87500000D03*
X77500000Y-87500000D03*
X75000000Y-87500000D03*
X72500000Y-87500000D03*
X70000000Y-87500000D03*
X62500000Y-107500000D03*
X65000000Y-107500000D03*
X65000000Y-110000000D03*
X62500000Y-110000000D03*
X102500000Y-110000000D03*
X105000000Y-110000000D03*
X105000000Y-107500000D03*
X102500000Y-107500000D03*
X62500000Y-80000000D03*
X65000000Y-80000000D03*
X65000000Y-77500000D03*
X62581000Y-77500000D03*
G04 #@! TO.N,Net-(JP2-Pad2)*
X73406000Y-99060000D03*
X82296000Y-99060000D03*
G04 #@! TO.N,Net-(JP1-Pad2)*
X73279000Y-80518000D03*
X84582000Y-81661000D03*
G04 #@! TD*
D16*
G04 #@! TO.N,GND*
X98893000Y-81240000D02*
X106680000Y-81240000D01*
X96393000Y-78740000D02*
X98893000Y-81240000D01*
X86483000Y-78740000D02*
X86983000Y-78240000D01*
X86233000Y-78740000D02*
X86483000Y-78740000D01*
X85733000Y-79240000D02*
X86233000Y-78740000D01*
X85483000Y-79240000D02*
X85733000Y-79240000D01*
X85733000Y-78240000D02*
X86233000Y-78740000D01*
X85483000Y-78240000D02*
X85733000Y-78240000D01*
X86233000Y-78740000D02*
X86233000Y-76962000D01*
X89408000Y-78486000D02*
X89408000Y-78994000D01*
X89154000Y-78740000D02*
X89408000Y-78486000D01*
X86233000Y-78740000D02*
X89154000Y-78740000D01*
X62300000Y-91400000D02*
X59817000Y-88917000D01*
X63500000Y-91400000D02*
X62300000Y-91400000D01*
X59817000Y-88917000D02*
X59817000Y-80264000D01*
X67437000Y-72644000D02*
X67500000Y-72644000D01*
X59817000Y-80264000D02*
X62581000Y-77500000D01*
X83185000Y-74168000D02*
X83312000Y-74041000D01*
X83185000Y-78990000D02*
X83185000Y-74168000D01*
X86233000Y-76962000D02*
X83312000Y-74041000D01*
X83312000Y-74041000D02*
X81915000Y-72644000D01*
X63540000Y-91440000D02*
X63500000Y-91400000D01*
X71374000Y-91440000D02*
X63540000Y-91440000D01*
X95559000Y-103560000D02*
X106680000Y-103560000D01*
X93345000Y-101346000D02*
X95559000Y-103560000D01*
X86360000Y-95885000D02*
X86610000Y-95635000D01*
X86360000Y-99060000D02*
X86360000Y-95885000D01*
X86610000Y-99310000D02*
X86360000Y-99060000D01*
X86610000Y-102231000D02*
X86610000Y-99310000D01*
X83947000Y-99060000D02*
X86360000Y-99060000D01*
X83439000Y-98552000D02*
X83947000Y-99060000D01*
X89408000Y-78994000D02*
X89408000Y-78994000D01*
X80000000Y-72644000D02*
X81915000Y-72644000D01*
X77500000Y-72644000D02*
X80000000Y-72644000D01*
X75000000Y-72644000D02*
X77500000Y-72644000D01*
X72500000Y-72644000D02*
X75000000Y-72644000D01*
X72500000Y-72644000D02*
X72500000Y-72644000D01*
X70000000Y-72644000D02*
X72500000Y-72644000D01*
X67500000Y-72644000D02*
X70000000Y-72644000D01*
X62581000Y-77500000D02*
X67437000Y-72644000D01*
G04 #@! TO.N,Net-(JP2-Pad2)*
X82296000Y-99060000D02*
X73406000Y-99060000D01*
G04 #@! TO.N,Net-(JP1-Pad2)*
X84582000Y-81661000D02*
X74422000Y-81661000D01*
X74422000Y-81661000D02*
X73279000Y-80518000D01*
G04 #@! TD*
D17*
G04 #@! TO.N,GND*
G36*
X114290001Y-116540000D02*
X55710000Y-116540000D01*
X55710000Y-103916890D01*
X105088524Y-103916890D01*
X105090447Y-103929260D01*
X105341336Y-104452045D01*
X105773188Y-104839024D01*
X106320258Y-105031284D01*
X106553000Y-104887231D01*
X106553000Y-103687000D01*
X106807000Y-103687000D01*
X106807000Y-104887231D01*
X107039742Y-105031284D01*
X107586812Y-104839024D01*
X108018664Y-104452045D01*
X108269553Y-103929260D01*
X108271476Y-103916890D01*
X108150155Y-103687000D01*
X106807000Y-103687000D01*
X106553000Y-103687000D01*
X105209845Y-103687000D01*
X105088524Y-103916890D01*
X55710000Y-103916890D01*
X55710000Y-98893908D01*
X72571000Y-98893908D01*
X72571000Y-99226092D01*
X72698121Y-99532990D01*
X72933010Y-99767879D01*
X73239908Y-99895000D01*
X73572092Y-99895000D01*
X73813514Y-99795000D01*
X81888486Y-99795000D01*
X82129908Y-99895000D01*
X82462092Y-99895000D01*
X82768990Y-99767879D01*
X83003879Y-99532990D01*
X83131000Y-99226092D01*
X83131000Y-98893908D01*
X83003879Y-98587010D01*
X82768990Y-98352121D01*
X82462092Y-98225000D01*
X82129908Y-98225000D01*
X81888486Y-98325000D01*
X73813514Y-98325000D01*
X73572092Y-98225000D01*
X73239908Y-98225000D01*
X72933010Y-98352121D01*
X72698121Y-98587010D01*
X72571000Y-98893908D01*
X55710000Y-98893908D01*
X55710000Y-97533690D01*
X84575000Y-97533690D01*
X84575000Y-98774250D01*
X84733750Y-98933000D01*
X85416605Y-98933000D01*
X85395181Y-98954424D01*
X85401806Y-99060000D01*
X85395181Y-99165576D01*
X85416605Y-99187000D01*
X84733750Y-99187000D01*
X84575000Y-99345750D01*
X84575000Y-100586310D01*
X84671673Y-100819699D01*
X84850302Y-100998327D01*
X85083691Y-101095000D01*
X86074250Y-101095000D01*
X86233000Y-100936250D01*
X86233000Y-100681999D01*
X86312607Y-100649025D01*
X86320108Y-100529500D01*
X86360000Y-100489608D01*
X86399892Y-100529500D01*
X86407393Y-100649025D01*
X86487000Y-100673507D01*
X86487000Y-100936250D01*
X86645750Y-101095000D01*
X87636309Y-101095000D01*
X87869698Y-100998327D01*
X88048327Y-100819699D01*
X88145000Y-100586310D01*
X88145000Y-100210000D01*
X105032560Y-100210000D01*
X105032560Y-101910000D01*
X105081843Y-102157765D01*
X105222191Y-102367809D01*
X105432235Y-102508157D01*
X105503782Y-102522388D01*
X105341336Y-102667955D01*
X105090447Y-103190740D01*
X105088524Y-103203110D01*
X105209845Y-103433000D01*
X106553000Y-103433000D01*
X106553000Y-103413000D01*
X106807000Y-103413000D01*
X106807000Y-103433000D01*
X108150155Y-103433000D01*
X108271476Y-103203110D01*
X108269553Y-103190740D01*
X108018664Y-102667955D01*
X107856218Y-102522388D01*
X107927765Y-102508157D01*
X108137809Y-102367809D01*
X108278157Y-102157765D01*
X108327440Y-101910000D01*
X108327440Y-100210000D01*
X108278157Y-99962235D01*
X108137809Y-99752191D01*
X107927765Y-99611843D01*
X107680000Y-99562560D01*
X105680000Y-99562560D01*
X105432235Y-99611843D01*
X105222191Y-99752191D01*
X105081843Y-99962235D01*
X105032560Y-100210000D01*
X88145000Y-100210000D01*
X88145000Y-99345750D01*
X87986250Y-99187000D01*
X87303395Y-99187000D01*
X87324819Y-99165576D01*
X87318194Y-99060000D01*
X87324819Y-98954424D01*
X87303395Y-98933000D01*
X87986250Y-98933000D01*
X88145000Y-98774250D01*
X88145000Y-97533690D01*
X88048327Y-97300301D01*
X87869698Y-97121673D01*
X87636309Y-97025000D01*
X86645750Y-97025000D01*
X86487000Y-97183750D01*
X86487000Y-97438001D01*
X86407393Y-97470975D01*
X86399892Y-97590500D01*
X86360000Y-97630392D01*
X86320108Y-97590500D01*
X86312607Y-97470975D01*
X86233000Y-97446493D01*
X86233000Y-97183750D01*
X86074250Y-97025000D01*
X85083691Y-97025000D01*
X84850302Y-97121673D01*
X84671673Y-97300301D01*
X84575000Y-97533690D01*
X55710000Y-97533690D01*
X55710000Y-91685750D01*
X61865000Y-91685750D01*
X61865000Y-92376309D01*
X61961673Y-92609698D01*
X62140301Y-92788327D01*
X62373690Y-92885000D01*
X63214250Y-92885000D01*
X63373000Y-92726250D01*
X63373000Y-91527000D01*
X63627000Y-91527000D01*
X63627000Y-92726250D01*
X63785750Y-92885000D01*
X64626310Y-92885000D01*
X64859699Y-92788327D01*
X65038327Y-92609698D01*
X65135000Y-92376309D01*
X65135000Y-91685750D01*
X64976250Y-91527000D01*
X63627000Y-91527000D01*
X63373000Y-91527000D01*
X62023750Y-91527000D01*
X61865000Y-91685750D01*
X55710000Y-91685750D01*
X55710000Y-88900000D01*
X61835908Y-88900000D01*
X61951161Y-89479418D01*
X62270709Y-89957656D01*
X62140301Y-90011673D01*
X61961673Y-90190302D01*
X61865000Y-90423691D01*
X61865000Y-91114250D01*
X62023750Y-91273000D01*
X63373000Y-91273000D01*
X63373000Y-91253000D01*
X63627000Y-91253000D01*
X63627000Y-91273000D01*
X64976250Y-91273000D01*
X65135000Y-91114250D01*
X65135000Y-90423691D01*
X65038327Y-90190302D01*
X64859699Y-90011673D01*
X64729291Y-89957656D01*
X65048839Y-89479418D01*
X65164092Y-88900000D01*
X65048839Y-88320582D01*
X64720625Y-87829375D01*
X64229418Y-87501161D01*
X63796256Y-87415000D01*
X63203744Y-87415000D01*
X62770582Y-87501161D01*
X62279375Y-87829375D01*
X61951161Y-88320582D01*
X61835908Y-88900000D01*
X55710000Y-88900000D01*
X55710000Y-80351908D01*
X72444000Y-80351908D01*
X72444000Y-80684092D01*
X72571121Y-80990990D01*
X72806010Y-81225879D01*
X73047433Y-81325880D01*
X73851090Y-82129537D01*
X73892095Y-82190905D01*
X74135217Y-82353354D01*
X74349612Y-82396000D01*
X74349615Y-82396000D01*
X74421999Y-82410398D01*
X74494383Y-82396000D01*
X84174486Y-82396000D01*
X84415908Y-82496000D01*
X84748092Y-82496000D01*
X85054990Y-82368879D01*
X85289879Y-82133990D01*
X85417000Y-81827092D01*
X85417000Y-81596890D01*
X105088524Y-81596890D01*
X105090447Y-81609260D01*
X105341336Y-82132045D01*
X105773188Y-82519024D01*
X106320258Y-82711284D01*
X106553000Y-82567231D01*
X106553000Y-81367000D01*
X106807000Y-81367000D01*
X106807000Y-82567231D01*
X107039742Y-82711284D01*
X107586812Y-82519024D01*
X108018664Y-82132045D01*
X108269553Y-81609260D01*
X108271476Y-81596890D01*
X108150155Y-81367000D01*
X106807000Y-81367000D01*
X106553000Y-81367000D01*
X105209845Y-81367000D01*
X105088524Y-81596890D01*
X85417000Y-81596890D01*
X85417000Y-81494908D01*
X85289879Y-81188010D01*
X85054990Y-80953121D01*
X84748092Y-80826000D01*
X84415908Y-80826000D01*
X84174486Y-80926000D01*
X74726447Y-80926000D01*
X74086880Y-80286433D01*
X73986879Y-80045010D01*
X73751990Y-79810121D01*
X73445092Y-79683000D01*
X73112908Y-79683000D01*
X72806010Y-79810121D01*
X72571121Y-80045010D01*
X72444000Y-80351908D01*
X55710000Y-80351908D01*
X55710000Y-77463691D01*
X84198000Y-77463691D01*
X84198000Y-78454250D01*
X84356750Y-78613000D01*
X84611001Y-78613000D01*
X84643975Y-78692607D01*
X84763500Y-78700108D01*
X84803392Y-78740000D01*
X84763500Y-78779892D01*
X84643975Y-78787393D01*
X84619493Y-78867000D01*
X84356750Y-78867000D01*
X84198000Y-79025750D01*
X84198000Y-80016309D01*
X84294673Y-80249698D01*
X84473301Y-80428327D01*
X84706690Y-80525000D01*
X85947250Y-80525000D01*
X86106000Y-80366250D01*
X86106000Y-79683395D01*
X86127424Y-79704819D01*
X86233000Y-79698194D01*
X86338576Y-79704819D01*
X86360000Y-79683395D01*
X86360000Y-80366250D01*
X86518750Y-80525000D01*
X87759310Y-80525000D01*
X87992699Y-80428327D01*
X88171327Y-80249698D01*
X88268000Y-80016309D01*
X88268000Y-79025750D01*
X88109250Y-78867000D01*
X87854999Y-78867000D01*
X87822025Y-78787393D01*
X87702500Y-78779892D01*
X87662608Y-78740000D01*
X87702500Y-78700108D01*
X87822025Y-78692607D01*
X87846507Y-78613000D01*
X88109250Y-78613000D01*
X88268000Y-78454250D01*
X88268000Y-77890000D01*
X105032560Y-77890000D01*
X105032560Y-79590000D01*
X105081843Y-79837765D01*
X105222191Y-80047809D01*
X105432235Y-80188157D01*
X105503782Y-80202388D01*
X105341336Y-80347955D01*
X105090447Y-80870740D01*
X105088524Y-80883110D01*
X105209845Y-81113000D01*
X106553000Y-81113000D01*
X106553000Y-81093000D01*
X106807000Y-81093000D01*
X106807000Y-81113000D01*
X108150155Y-81113000D01*
X108271476Y-80883110D01*
X108269553Y-80870740D01*
X108018664Y-80347955D01*
X107856218Y-80202388D01*
X107927765Y-80188157D01*
X108137809Y-80047809D01*
X108278157Y-79837765D01*
X108327440Y-79590000D01*
X108327440Y-77890000D01*
X108278157Y-77642235D01*
X108137809Y-77432191D01*
X107927765Y-77291843D01*
X107680000Y-77242560D01*
X105680000Y-77242560D01*
X105432235Y-77291843D01*
X105222191Y-77432191D01*
X105081843Y-77642235D01*
X105032560Y-77890000D01*
X88268000Y-77890000D01*
X88268000Y-77463691D01*
X88171327Y-77230302D01*
X87992699Y-77051673D01*
X87759310Y-76955000D01*
X86518750Y-76955000D01*
X86360000Y-77113750D01*
X86360000Y-77796605D01*
X86338576Y-77775181D01*
X86233000Y-77781806D01*
X86127424Y-77775181D01*
X86106000Y-77796605D01*
X86106000Y-77113750D01*
X85947250Y-76955000D01*
X84706690Y-76955000D01*
X84473301Y-77051673D01*
X84294673Y-77230302D01*
X84198000Y-77463691D01*
X55710000Y-77463691D01*
X55710000Y-70710000D01*
X114290000Y-70710000D01*
X114290001Y-116540000D01*
X114290001Y-116540000D01*
G37*
X114290001Y-116540000D02*
X55710000Y-116540000D01*
X55710000Y-103916890D01*
X105088524Y-103916890D01*
X105090447Y-103929260D01*
X105341336Y-104452045D01*
X105773188Y-104839024D01*
X106320258Y-105031284D01*
X106553000Y-104887231D01*
X106553000Y-103687000D01*
X106807000Y-103687000D01*
X106807000Y-104887231D01*
X107039742Y-105031284D01*
X107586812Y-104839024D01*
X108018664Y-104452045D01*
X108269553Y-103929260D01*
X108271476Y-103916890D01*
X108150155Y-103687000D01*
X106807000Y-103687000D01*
X106553000Y-103687000D01*
X105209845Y-103687000D01*
X105088524Y-103916890D01*
X55710000Y-103916890D01*
X55710000Y-98893908D01*
X72571000Y-98893908D01*
X72571000Y-99226092D01*
X72698121Y-99532990D01*
X72933010Y-99767879D01*
X73239908Y-99895000D01*
X73572092Y-99895000D01*
X73813514Y-99795000D01*
X81888486Y-99795000D01*
X82129908Y-99895000D01*
X82462092Y-99895000D01*
X82768990Y-99767879D01*
X83003879Y-99532990D01*
X83131000Y-99226092D01*
X83131000Y-98893908D01*
X83003879Y-98587010D01*
X82768990Y-98352121D01*
X82462092Y-98225000D01*
X82129908Y-98225000D01*
X81888486Y-98325000D01*
X73813514Y-98325000D01*
X73572092Y-98225000D01*
X73239908Y-98225000D01*
X72933010Y-98352121D01*
X72698121Y-98587010D01*
X72571000Y-98893908D01*
X55710000Y-98893908D01*
X55710000Y-97533690D01*
X84575000Y-97533690D01*
X84575000Y-98774250D01*
X84733750Y-98933000D01*
X85416605Y-98933000D01*
X85395181Y-98954424D01*
X85401806Y-99060000D01*
X85395181Y-99165576D01*
X85416605Y-99187000D01*
X84733750Y-99187000D01*
X84575000Y-99345750D01*
X84575000Y-100586310D01*
X84671673Y-100819699D01*
X84850302Y-100998327D01*
X85083691Y-101095000D01*
X86074250Y-101095000D01*
X86233000Y-100936250D01*
X86233000Y-100681999D01*
X86312607Y-100649025D01*
X86320108Y-100529500D01*
X86360000Y-100489608D01*
X86399892Y-100529500D01*
X86407393Y-100649025D01*
X86487000Y-100673507D01*
X86487000Y-100936250D01*
X86645750Y-101095000D01*
X87636309Y-101095000D01*
X87869698Y-100998327D01*
X88048327Y-100819699D01*
X88145000Y-100586310D01*
X88145000Y-100210000D01*
X105032560Y-100210000D01*
X105032560Y-101910000D01*
X105081843Y-102157765D01*
X105222191Y-102367809D01*
X105432235Y-102508157D01*
X105503782Y-102522388D01*
X105341336Y-102667955D01*
X105090447Y-103190740D01*
X105088524Y-103203110D01*
X105209845Y-103433000D01*
X106553000Y-103433000D01*
X106553000Y-103413000D01*
X106807000Y-103413000D01*
X106807000Y-103433000D01*
X108150155Y-103433000D01*
X108271476Y-103203110D01*
X108269553Y-103190740D01*
X108018664Y-102667955D01*
X107856218Y-102522388D01*
X107927765Y-102508157D01*
X108137809Y-102367809D01*
X108278157Y-102157765D01*
X108327440Y-101910000D01*
X108327440Y-100210000D01*
X108278157Y-99962235D01*
X108137809Y-99752191D01*
X107927765Y-99611843D01*
X107680000Y-99562560D01*
X105680000Y-99562560D01*
X105432235Y-99611843D01*
X105222191Y-99752191D01*
X105081843Y-99962235D01*
X105032560Y-100210000D01*
X88145000Y-100210000D01*
X88145000Y-99345750D01*
X87986250Y-99187000D01*
X87303395Y-99187000D01*
X87324819Y-99165576D01*
X87318194Y-99060000D01*
X87324819Y-98954424D01*
X87303395Y-98933000D01*
X87986250Y-98933000D01*
X88145000Y-98774250D01*
X88145000Y-97533690D01*
X88048327Y-97300301D01*
X87869698Y-97121673D01*
X87636309Y-97025000D01*
X86645750Y-97025000D01*
X86487000Y-97183750D01*
X86487000Y-97438001D01*
X86407393Y-97470975D01*
X86399892Y-97590500D01*
X86360000Y-97630392D01*
X86320108Y-97590500D01*
X86312607Y-97470975D01*
X86233000Y-97446493D01*
X86233000Y-97183750D01*
X86074250Y-97025000D01*
X85083691Y-97025000D01*
X84850302Y-97121673D01*
X84671673Y-97300301D01*
X84575000Y-97533690D01*
X55710000Y-97533690D01*
X55710000Y-91685750D01*
X61865000Y-91685750D01*
X61865000Y-92376309D01*
X61961673Y-92609698D01*
X62140301Y-92788327D01*
X62373690Y-92885000D01*
X63214250Y-92885000D01*
X63373000Y-92726250D01*
X63373000Y-91527000D01*
X63627000Y-91527000D01*
X63627000Y-92726250D01*
X63785750Y-92885000D01*
X64626310Y-92885000D01*
X64859699Y-92788327D01*
X65038327Y-92609698D01*
X65135000Y-92376309D01*
X65135000Y-91685750D01*
X64976250Y-91527000D01*
X63627000Y-91527000D01*
X63373000Y-91527000D01*
X62023750Y-91527000D01*
X61865000Y-91685750D01*
X55710000Y-91685750D01*
X55710000Y-88900000D01*
X61835908Y-88900000D01*
X61951161Y-89479418D01*
X62270709Y-89957656D01*
X62140301Y-90011673D01*
X61961673Y-90190302D01*
X61865000Y-90423691D01*
X61865000Y-91114250D01*
X62023750Y-91273000D01*
X63373000Y-91273000D01*
X63373000Y-91253000D01*
X63627000Y-91253000D01*
X63627000Y-91273000D01*
X64976250Y-91273000D01*
X65135000Y-91114250D01*
X65135000Y-90423691D01*
X65038327Y-90190302D01*
X64859699Y-90011673D01*
X64729291Y-89957656D01*
X65048839Y-89479418D01*
X65164092Y-88900000D01*
X65048839Y-88320582D01*
X64720625Y-87829375D01*
X64229418Y-87501161D01*
X63796256Y-87415000D01*
X63203744Y-87415000D01*
X62770582Y-87501161D01*
X62279375Y-87829375D01*
X61951161Y-88320582D01*
X61835908Y-88900000D01*
X55710000Y-88900000D01*
X55710000Y-80351908D01*
X72444000Y-80351908D01*
X72444000Y-80684092D01*
X72571121Y-80990990D01*
X72806010Y-81225879D01*
X73047433Y-81325880D01*
X73851090Y-82129537D01*
X73892095Y-82190905D01*
X74135217Y-82353354D01*
X74349612Y-82396000D01*
X74349615Y-82396000D01*
X74421999Y-82410398D01*
X74494383Y-82396000D01*
X84174486Y-82396000D01*
X84415908Y-82496000D01*
X84748092Y-82496000D01*
X85054990Y-82368879D01*
X85289879Y-82133990D01*
X85417000Y-81827092D01*
X85417000Y-81596890D01*
X105088524Y-81596890D01*
X105090447Y-81609260D01*
X105341336Y-82132045D01*
X105773188Y-82519024D01*
X106320258Y-82711284D01*
X106553000Y-82567231D01*
X106553000Y-81367000D01*
X106807000Y-81367000D01*
X106807000Y-82567231D01*
X107039742Y-82711284D01*
X107586812Y-82519024D01*
X108018664Y-82132045D01*
X108269553Y-81609260D01*
X108271476Y-81596890D01*
X108150155Y-81367000D01*
X106807000Y-81367000D01*
X106553000Y-81367000D01*
X105209845Y-81367000D01*
X105088524Y-81596890D01*
X85417000Y-81596890D01*
X85417000Y-81494908D01*
X85289879Y-81188010D01*
X85054990Y-80953121D01*
X84748092Y-80826000D01*
X84415908Y-80826000D01*
X84174486Y-80926000D01*
X74726447Y-80926000D01*
X74086880Y-80286433D01*
X73986879Y-80045010D01*
X73751990Y-79810121D01*
X73445092Y-79683000D01*
X73112908Y-79683000D01*
X72806010Y-79810121D01*
X72571121Y-80045010D01*
X72444000Y-80351908D01*
X55710000Y-80351908D01*
X55710000Y-77463691D01*
X84198000Y-77463691D01*
X84198000Y-78454250D01*
X84356750Y-78613000D01*
X84611001Y-78613000D01*
X84643975Y-78692607D01*
X84763500Y-78700108D01*
X84803392Y-78740000D01*
X84763500Y-78779892D01*
X84643975Y-78787393D01*
X84619493Y-78867000D01*
X84356750Y-78867000D01*
X84198000Y-79025750D01*
X84198000Y-80016309D01*
X84294673Y-80249698D01*
X84473301Y-80428327D01*
X84706690Y-80525000D01*
X85947250Y-80525000D01*
X86106000Y-80366250D01*
X86106000Y-79683395D01*
X86127424Y-79704819D01*
X86233000Y-79698194D01*
X86338576Y-79704819D01*
X86360000Y-79683395D01*
X86360000Y-80366250D01*
X86518750Y-80525000D01*
X87759310Y-80525000D01*
X87992699Y-80428327D01*
X88171327Y-80249698D01*
X88268000Y-80016309D01*
X88268000Y-79025750D01*
X88109250Y-78867000D01*
X87854999Y-78867000D01*
X87822025Y-78787393D01*
X87702500Y-78779892D01*
X87662608Y-78740000D01*
X87702500Y-78700108D01*
X87822025Y-78692607D01*
X87846507Y-78613000D01*
X88109250Y-78613000D01*
X88268000Y-78454250D01*
X88268000Y-77890000D01*
X105032560Y-77890000D01*
X105032560Y-79590000D01*
X105081843Y-79837765D01*
X105222191Y-80047809D01*
X105432235Y-80188157D01*
X105503782Y-80202388D01*
X105341336Y-80347955D01*
X105090447Y-80870740D01*
X105088524Y-80883110D01*
X105209845Y-81113000D01*
X106553000Y-81113000D01*
X106553000Y-81093000D01*
X106807000Y-81093000D01*
X106807000Y-81113000D01*
X108150155Y-81113000D01*
X108271476Y-80883110D01*
X108269553Y-80870740D01*
X108018664Y-80347955D01*
X107856218Y-80202388D01*
X107927765Y-80188157D01*
X108137809Y-80047809D01*
X108278157Y-79837765D01*
X108327440Y-79590000D01*
X108327440Y-77890000D01*
X108278157Y-77642235D01*
X108137809Y-77432191D01*
X107927765Y-77291843D01*
X107680000Y-77242560D01*
X105680000Y-77242560D01*
X105432235Y-77291843D01*
X105222191Y-77432191D01*
X105081843Y-77642235D01*
X105032560Y-77890000D01*
X88268000Y-77890000D01*
X88268000Y-77463691D01*
X88171327Y-77230302D01*
X87992699Y-77051673D01*
X87759310Y-76955000D01*
X86518750Y-76955000D01*
X86360000Y-77113750D01*
X86360000Y-77796605D01*
X86338576Y-77775181D01*
X86233000Y-77781806D01*
X86127424Y-77775181D01*
X86106000Y-77796605D01*
X86106000Y-77113750D01*
X85947250Y-76955000D01*
X84706690Y-76955000D01*
X84473301Y-77051673D01*
X84294673Y-77230302D01*
X84198000Y-77463691D01*
X55710000Y-77463691D01*
X55710000Y-70710000D01*
X114290000Y-70710000D01*
X114290001Y-116540000D01*
G36*
X86399892Y-99029500D02*
X86401806Y-99060000D01*
X86399892Y-99090500D01*
X86360000Y-99130392D01*
X86320108Y-99090500D01*
X86318194Y-99060000D01*
X86320108Y-99029500D01*
X86360000Y-98989608D01*
X86399892Y-99029500D01*
X86399892Y-99029500D01*
G37*
X86399892Y-99029500D02*
X86401806Y-99060000D01*
X86399892Y-99090500D01*
X86360000Y-99130392D01*
X86320108Y-99090500D01*
X86318194Y-99060000D01*
X86320108Y-99029500D01*
X86360000Y-98989608D01*
X86399892Y-99029500D01*
G36*
X86263500Y-78700108D02*
X86303392Y-78740000D01*
X86263500Y-78779892D01*
X86233000Y-78781806D01*
X86202500Y-78779892D01*
X86162608Y-78740000D01*
X86202500Y-78700108D01*
X86233000Y-78698194D01*
X86263500Y-78700108D01*
X86263500Y-78700108D01*
G37*
X86263500Y-78700108D02*
X86303392Y-78740000D01*
X86263500Y-78779892D01*
X86233000Y-78781806D01*
X86202500Y-78779892D01*
X86162608Y-78740000D01*
X86202500Y-78700108D01*
X86233000Y-78698194D01*
X86263500Y-78700108D01*
G04 #@! TD*
M02*
